%TF.GenerationSoftware,KiCad,Pcbnew,9.0.0*%
%TF.CreationDate,2025-04-09T23:46:36-07:00*%
%TF.ProjectId,RP2350_60QFN_minimal,52503233-3530-45f3-9630-51464e5f6d69,rev?*%
%TF.SameCoordinates,Original*%
%TF.FileFunction,Copper,L1,Top*%
%TF.FilePolarity,Positive*%
%FSLAX46Y46*%
G04 Gerber Fmt 4.6, Leading zero omitted, Abs format (unit mm)*
G04 Created by KiCad (PCBNEW 9.0.0) date 2025-04-09 23:46:36*
%MOMM*%
%LPD*%
G01*
G04 APERTURE LIST*
G04 Aperture macros list*
%AMRoundRect*
0 Rectangle with rounded corners*
0 $1 Rounding radius*
0 $2 $3 $4 $5 $6 $7 $8 $9 X,Y pos of 4 corners*
0 Add a 4 corners polygon primitive as box body*
4,1,4,$2,$3,$4,$5,$6,$7,$8,$9,$2,$3,0*
0 Add four circle primitives for the rounded corners*
1,1,$1+$1,$2,$3*
1,1,$1+$1,$4,$5*
1,1,$1+$1,$6,$7*
1,1,$1+$1,$8,$9*
0 Add four rect primitives between the rounded corners*
20,1,$1+$1,$2,$3,$4,$5,0*
20,1,$1+$1,$4,$5,$6,$7,0*
20,1,$1+$1,$6,$7,$8,$9,0*
20,1,$1+$1,$8,$9,$2,$3,0*%
%AMFreePoly0*
4,1,18,-0.437500,0.050000,-0.433694,0.069134,-0.422855,0.085355,-0.406634,0.096194,-0.387500,0.100000,0.387500,0.100000,0.437500,0.050000,0.437500,-0.050000,0.433694,-0.069134,0.422855,-0.085355,0.406634,-0.096194,0.387500,-0.100000,-0.387500,-0.100000,-0.406634,-0.096194,-0.422855,-0.085355,-0.433694,-0.069134,-0.437500,-0.050000,-0.437500,0.050000,-0.437500,0.050000,$1*%
%AMFreePoly1*
4,1,18,-0.437500,0.050000,-0.433694,0.069134,-0.422855,0.085355,-0.406634,0.096194,-0.387500,0.100000,0.387500,0.100000,0.406634,0.096194,0.422855,0.085355,0.433694,0.069134,0.437500,0.050000,0.437500,-0.050000,0.387500,-0.100000,-0.387500,-0.100000,-0.406634,-0.096194,-0.422855,-0.085355,-0.433694,-0.069134,-0.437500,-0.050000,-0.437500,0.050000,-0.437500,0.050000,$1*%
%AMFreePoly2*
4,1,18,-0.100000,0.387500,-0.050000,0.437500,0.050000,0.437500,0.069134,0.433694,0.085355,0.422855,0.096194,0.406634,0.100000,0.387500,0.100000,-0.387500,0.096194,-0.406634,0.085355,-0.422855,0.069134,-0.433694,0.050000,-0.437500,-0.050000,-0.437500,-0.069134,-0.433694,-0.085355,-0.422855,-0.096194,-0.406634,-0.100000,-0.387500,-0.100000,0.387500,-0.100000,0.387500,$1*%
%AMFreePoly3*
4,1,18,-0.100000,0.387500,-0.096194,0.406634,-0.085355,0.422855,-0.069134,0.433694,-0.050000,0.437500,0.050000,0.437500,0.100000,0.387500,0.100000,-0.387500,0.096194,-0.406634,0.085355,-0.422855,0.069134,-0.433694,0.050000,-0.437500,-0.050000,-0.437500,-0.069134,-0.433694,-0.085355,-0.422855,-0.096194,-0.406634,-0.100000,-0.387500,-0.100000,0.387500,-0.100000,0.387500,$1*%
%AMFreePoly4*
4,1,18,-0.437500,0.050000,-0.433694,0.069134,-0.422855,0.085355,-0.406634,0.096194,-0.387500,0.100000,0.387500,0.100000,0.406634,0.096194,0.422855,0.085355,0.433694,0.069134,0.437500,0.050000,0.437500,-0.050000,0.433694,-0.069134,0.422855,-0.085355,0.406634,-0.096194,0.387500,-0.100000,-0.387500,-0.100000,-0.437500,-0.050000,-0.437500,0.050000,-0.437500,0.050000,$1*%
%AMFreePoly5*
4,1,18,-0.437500,0.050000,-0.387500,0.100000,0.387500,0.100000,0.406634,0.096194,0.422855,0.085355,0.433694,0.069134,0.437500,0.050000,0.437500,-0.050000,0.433694,-0.069134,0.422855,-0.085355,0.406634,-0.096194,0.387500,-0.100000,-0.387500,-0.100000,-0.406634,-0.096194,-0.422855,-0.085355,-0.433694,-0.069134,-0.437500,-0.050000,-0.437500,0.050000,-0.437500,0.050000,$1*%
%AMFreePoly6*
4,1,18,-0.100000,0.387500,-0.096194,0.406634,-0.085355,0.422855,-0.069134,0.433694,-0.050000,0.437500,0.050000,0.437500,0.069134,0.433694,0.085355,0.422855,0.096194,0.406634,0.100000,0.387500,0.100000,-0.387500,0.050000,-0.437500,-0.050000,-0.437500,-0.069134,-0.433694,-0.085355,-0.422855,-0.096194,-0.406634,-0.100000,-0.387500,-0.100000,0.387500,-0.100000,0.387500,$1*%
%AMFreePoly7*
4,1,18,-0.100000,0.387500,-0.096194,0.406634,-0.085355,0.422855,-0.069134,0.433694,-0.050000,0.437500,0.050000,0.437500,0.069134,0.433694,0.085355,0.422855,0.096194,0.406634,0.100000,0.387500,0.100000,-0.387500,0.096194,-0.406634,0.085355,-0.422855,0.069134,-0.433694,0.050000,-0.437500,-0.050000,-0.437500,-0.100000,-0.387500,-0.100000,0.387500,-0.100000,0.387500,$1*%
G04 Aperture macros list end*
%TA.AperFunction,SMDPad,CuDef*%
%ADD10R,0.530000X0.470000*%
%TD*%
%TA.AperFunction,SMDPad,CuDef*%
%ADD11RoundRect,0.140000X-0.170000X0.140000X-0.170000X-0.140000X0.170000X-0.140000X0.170000X0.140000X0*%
%TD*%
%TA.AperFunction,SMDPad,CuDef*%
%ADD12RoundRect,0.135000X0.135000X0.185000X-0.135000X0.185000X-0.135000X-0.185000X0.135000X-0.185000X0*%
%TD*%
%TA.AperFunction,SMDPad,CuDef*%
%ADD13R,0.599999X1.100000*%
%TD*%
%TA.AperFunction,SMDPad,CuDef*%
%ADD14RoundRect,0.162500X0.162500X-0.650000X0.162500X0.650000X-0.162500X0.650000X-0.162500X-0.650000X0*%
%TD*%
%TA.AperFunction,SMDPad,CuDef*%
%ADD15RoundRect,0.150000X0.625000X-0.150000X0.625000X0.150000X-0.625000X0.150000X-0.625000X-0.150000X0*%
%TD*%
%TA.AperFunction,SMDPad,CuDef*%
%ADD16RoundRect,0.250000X0.650000X-0.350000X0.650000X0.350000X-0.650000X0.350000X-0.650000X-0.350000X0*%
%TD*%
%TA.AperFunction,SMDPad,CuDef*%
%ADD17RoundRect,0.140000X0.170000X-0.140000X0.170000X0.140000X-0.170000X0.140000X-0.170000X-0.140000X0*%
%TD*%
%TA.AperFunction,SMDPad,CuDef*%
%ADD18R,1.200000X1.400000*%
%TD*%
%TA.AperFunction,SMDPad,CuDef*%
%ADD19R,0.470000X0.530000*%
%TD*%
%TA.AperFunction,SMDPad,CuDef*%
%ADD20R,0.700000X1.700000*%
%TD*%
%TA.AperFunction,SMDPad,CuDef*%
%ADD21RoundRect,0.140000X-0.140000X-0.170000X0.140000X-0.170000X0.140000X0.170000X-0.140000X0.170000X0*%
%TD*%
%TA.AperFunction,SMDPad,CuDef*%
%ADD22RoundRect,0.135000X0.185000X-0.135000X0.185000X0.135000X-0.185000X0.135000X-0.185000X-0.135000X0*%
%TD*%
%TA.AperFunction,SMDPad,CuDef*%
%ADD23RoundRect,0.250000X-0.650000X0.325000X-0.650000X-0.325000X0.650000X-0.325000X0.650000X0.325000X0*%
%TD*%
%TA.AperFunction,SMDPad,CuDef*%
%ADD24RoundRect,0.140000X0.140000X0.170000X-0.140000X0.170000X-0.140000X-0.170000X0.140000X-0.170000X0*%
%TD*%
%TA.AperFunction,SMDPad,CuDef*%
%ADD25FreePoly0,0.000000*%
%TD*%
%TA.AperFunction,SMDPad,CuDef*%
%ADD26RoundRect,0.050000X-0.387500X-0.050000X0.387500X-0.050000X0.387500X0.050000X-0.387500X0.050000X0*%
%TD*%
%TA.AperFunction,SMDPad,CuDef*%
%ADD27FreePoly1,0.000000*%
%TD*%
%TA.AperFunction,SMDPad,CuDef*%
%ADD28FreePoly2,0.000000*%
%TD*%
%TA.AperFunction,SMDPad,CuDef*%
%ADD29RoundRect,0.050000X-0.050000X-0.387500X0.050000X-0.387500X0.050000X0.387500X-0.050000X0.387500X0*%
%TD*%
%TA.AperFunction,SMDPad,CuDef*%
%ADD30FreePoly3,0.000000*%
%TD*%
%TA.AperFunction,SMDPad,CuDef*%
%ADD31FreePoly4,0.000000*%
%TD*%
%TA.AperFunction,SMDPad,CuDef*%
%ADD32FreePoly5,0.000000*%
%TD*%
%TA.AperFunction,SMDPad,CuDef*%
%ADD33FreePoly6,0.000000*%
%TD*%
%TA.AperFunction,SMDPad,CuDef*%
%ADD34FreePoly7,0.000000*%
%TD*%
%TA.AperFunction,ComponentPad*%
%ADD35C,0.635000*%
%TD*%
%TA.AperFunction,SMDPad,CuDef*%
%ADD36RoundRect,0.153000X1.547000X-1.547000X1.547000X1.547000X-1.547000X1.547000X-1.547000X-1.547000X0*%
%TD*%
%TA.AperFunction,SMDPad,CuDef*%
%ADD37RoundRect,0.135000X-0.185000X0.135000X-0.185000X-0.135000X0.185000X-0.135000X0.185000X0.135000X0*%
%TD*%
%TA.AperFunction,ComponentPad*%
%ADD38RoundRect,0.250000X0.600000X0.725000X-0.600000X0.725000X-0.600000X-0.725000X0.600000X-0.725000X0*%
%TD*%
%TA.AperFunction,ComponentPad*%
%ADD39O,1.700000X1.950000*%
%TD*%
%TA.AperFunction,SMDPad,CuDef*%
%ADD40RoundRect,0.135000X-0.135000X-0.185000X0.135000X-0.185000X0.135000X0.185000X-0.135000X0.185000X0*%
%TD*%
%TA.AperFunction,SMDPad,CuDef*%
%ADD41R,0.650000X1.050000*%
%TD*%
%TA.AperFunction,ComponentPad*%
%ADD42C,1.400000*%
%TD*%
%TA.AperFunction,ComponentPad*%
%ADD43RoundRect,0.770000X-0.980000X-0.980000X0.980000X-0.980000X0.980000X0.980000X-0.980000X0.980000X0*%
%TD*%
%TA.AperFunction,ComponentPad*%
%ADD44C,3.500000*%
%TD*%
%TA.AperFunction,SMDPad,CuDef*%
%ADD45RoundRect,0.150000X-0.825000X-0.150000X0.825000X-0.150000X0.825000X0.150000X-0.825000X0.150000X0*%
%TD*%
%TA.AperFunction,ViaPad*%
%ADD46C,1.905000*%
%TD*%
%TA.AperFunction,ViaPad*%
%ADD47C,0.508000*%
%TD*%
%TA.AperFunction,ViaPad*%
%ADD48C,0.635000*%
%TD*%
%TA.AperFunction,Conductor*%
%ADD49C,1.905000*%
%TD*%
%TA.AperFunction,Conductor*%
%ADD50C,0.508000*%
%TD*%
%TA.AperFunction,Conductor*%
%ADD51C,0.190500*%
%TD*%
%TA.AperFunction,Conductor*%
%ADD52C,0.635000*%
%TD*%
%TA.AperFunction,Conductor*%
%ADD53C,0.254000*%
%TD*%
%TA.AperFunction,Conductor*%
%ADD54C,0.444500*%
%TD*%
%TA.AperFunction,Conductor*%
%ADD55C,1.016000*%
%TD*%
G04 APERTURE END LIST*
D10*
%TO.P,C18,1*%
%TO.N,+3V3*%
X20701000Y-50666000D03*
%TO.P,C18,2*%
%TO.N,GND*%
X20701000Y-51696000D03*
%TD*%
D11*
%TO.P,C2,1*%
%TO.N,/XIN*%
X19050000Y-53749000D03*
%TO.P,C2,2*%
%TO.N,GND*%
X19050000Y-54709000D03*
%TD*%
D12*
%TO.P,R5,1*%
%TO.N,+3V3*%
X26545000Y-40640000D03*
%TO.P,R5,2*%
%TO.N,/VREG_AVDD*%
X25525000Y-40640000D03*
%TD*%
D13*
%TO.P,U2,1,CB*%
%TO.N,Net-(U2-CB)*%
X26227999Y-36733000D03*
%TO.P,U2,2,GND*%
%TO.N,GND*%
X27178000Y-36733000D03*
%TO.P,U2,3,FB*%
%TO.N,+3V3*%
X28128001Y-36733000D03*
%TO.P,U2,4,EN*%
%TO.N,+24V*%
X28128001Y-34133000D03*
%TO.P,U2,5,VIN*%
X27178000Y-34133000D03*
%TO.P,U2,6,SW*%
%TO.N,Net-(U2-SW)*%
X26227999Y-34133000D03*
%TD*%
D14*
%TO.P,U1,1,~{CS}*%
%TO.N,/FLASH_SS*%
X17399000Y-40925500D03*
%TO.P,U1,2,DO(IO1)*%
%TO.N,/QSPI_SD1*%
X18669000Y-40925500D03*
%TO.P,U1,3,IO2*%
%TO.N,/QSPI_SD2*%
X19939000Y-40925500D03*
%TO.P,U1,4,GND*%
%TO.N,GND*%
X21209000Y-40925500D03*
%TO.P,U1,5,DI(IO0)*%
%TO.N,/QSPI_SD0*%
X21209000Y-33750500D03*
%TO.P,U1,6,CLK*%
%TO.N,/QSPI_SCLK*%
X19939000Y-33750500D03*
%TO.P,U1,7,IO3*%
%TO.N,/QSPI_SD3*%
X18669000Y-33750500D03*
%TO.P,U1,8,VCC*%
%TO.N,+3V3*%
X17399000Y-33750500D03*
%TD*%
D15*
%TO.P,J3,1,Pin_1*%
%TO.N,/SWCLK*%
X24924000Y-55864000D03*
%TO.P,J3,2,Pin_2*%
%TO.N,GND*%
X24924000Y-54864000D03*
%TO.P,J3,3,Pin_3*%
%TO.N,/SWD*%
X24924000Y-53864000D03*
D16*
%TO.P,J3,MP,MountPin*%
%TO.N,GND*%
X28799000Y-57164000D03*
X28799000Y-52564000D03*
%TD*%
D17*
%TO.P,C13,1*%
%TO.N,+3V3*%
X22606000Y-41501000D03*
%TO.P,C13,2*%
%TO.N,GND*%
X22606000Y-40541000D03*
%TD*%
D18*
%TO.P,Y1,1,1*%
%TO.N,/XIN*%
X20232000Y-53129000D03*
%TO.P,Y1,2,2*%
%TO.N,GND*%
X20232000Y-55329000D03*
%TO.P,Y1,3,3*%
%TO.N,Net-(C3-Pad1)*%
X21932000Y-55329000D03*
%TO.P,Y1,4,4*%
%TO.N,GND*%
X21932000Y-53129000D03*
%TD*%
D19*
%TO.P,C7,1*%
%TO.N,+1V1*%
X23742000Y-40640000D03*
%TO.P,C7,2*%
%TO.N,GND*%
X24772000Y-40640000D03*
%TD*%
D10*
%TO.P,C15,1*%
%TO.N,+3V3*%
X25753000Y-50666000D03*
%TO.P,C15,2*%
%TO.N,GND*%
X25753000Y-51696000D03*
%TD*%
D20*
%TO.P,L2,1,1*%
%TO.N,+1V1*%
X23557000Y-39116000D03*
%TO.P,L2,2,2*%
%TO.N,/VREG_LX*%
X24957000Y-39116000D03*
%TD*%
D21*
%TO.P,C20,1*%
%TO.N,+24V*%
X24920000Y-61722000D03*
%TO.P,C20,2*%
%TO.N,GND*%
X25880000Y-61722000D03*
%TD*%
D17*
%TO.P,C4,1*%
%TO.N,+3V3*%
X17399000Y-32230000D03*
%TO.P,C4,2*%
%TO.N,GND*%
X17399000Y-31270000D03*
%TD*%
D10*
%TO.P,C11,1*%
%TO.N,+1V1*%
X22225000Y-50666000D03*
%TO.P,C11,2*%
%TO.N,GND*%
X22225000Y-51696000D03*
%TD*%
D22*
%TO.P,R4,1*%
%TO.N,Net-(R4-Pad1)*%
X28702000Y-45214000D03*
%TO.P,R4,2*%
%TO.N,GND*%
X28702000Y-44194000D03*
%TD*%
D11*
%TO.P,C6,1*%
%TO.N,Net-(U2-SW)*%
X22733000Y-34953000D03*
%TO.P,C6,2*%
%TO.N,Net-(U2-CB)*%
X22733000Y-35913000D03*
%TD*%
%TO.P,C19,1*%
%TO.N,+3V3*%
X27432000Y-40541000D03*
%TO.P,C19,2*%
%TO.N,GND*%
X27432000Y-41501000D03*
%TD*%
D23*
%TO.P,C1,1*%
%TO.N,+24V*%
X24384000Y-33958000D03*
%TO.P,C1,2*%
%TO.N,GND*%
X24384000Y-36908000D03*
%TD*%
D21*
%TO.P,C9,1*%
%TO.N,+1V1*%
X26952000Y-44196000D03*
%TO.P,C9,2*%
%TO.N,GND*%
X27912000Y-44196000D03*
%TD*%
D24*
%TO.P,C12,1*%
%TO.N,+1V1*%
X17625000Y-45339000D03*
%TO.P,C12,2*%
%TO.N,GND*%
X16665000Y-45339000D03*
%TD*%
D25*
%TO.P,U3,1,IOVDD*%
%TO.N,+3V3*%
X18787500Y-43301000D03*
D26*
%TO.P,U3,2,GPIO0*%
%TO.N,/GPIO0*%
X18787500Y-43701000D03*
%TO.P,U3,3,GPIO1*%
%TO.N,/GPIO1*%
X18787500Y-44101000D03*
%TO.P,U3,4,GPIO2*%
%TO.N,/GPIO2*%
X18787500Y-44501000D03*
%TO.P,U3,5,GPIO3*%
%TO.N,/GPIO3*%
X18787500Y-44901000D03*
%TO.P,U3,6,DVDD*%
%TO.N,+1V1*%
X18787500Y-45301000D03*
%TO.P,U3,7,GPIO4*%
%TO.N,/GPIO4*%
X18787500Y-45701000D03*
%TO.P,U3,8,GPIO5*%
%TO.N,/GPIO5*%
X18787500Y-46101000D03*
%TO.P,U3,9,GPIO6*%
%TO.N,/GPIO6*%
X18787500Y-46501000D03*
%TO.P,U3,10,GPIO7*%
%TO.N,/GPIO7*%
X18787500Y-46901000D03*
%TO.P,U3,11,IOVDD*%
%TO.N,+3V3*%
X18787500Y-47301000D03*
%TO.P,U3,12,GPIO8*%
%TO.N,/GPIO8*%
X18787500Y-47701000D03*
%TO.P,U3,13,GPIO9*%
%TO.N,/GPIO9*%
X18787500Y-48101000D03*
%TO.P,U3,14,GPIO10*%
%TO.N,/GPIO10*%
X18787500Y-48501000D03*
D27*
%TO.P,U3,15,GPIO11*%
%TO.N,/GPIO11*%
X18787500Y-48901000D03*
D28*
%TO.P,U3,16,GPIO12*%
%TO.N,/GPIO12*%
X19425000Y-49538500D03*
D29*
%TO.P,U3,17,GPIO13*%
%TO.N,/GPIO13*%
X19825000Y-49538500D03*
%TO.P,U3,18,GPIO14*%
%TO.N,/GPIO14*%
X20225000Y-49538500D03*
%TO.P,U3,19,GPIO15*%
%TO.N,/GPIO15*%
X20625000Y-49538500D03*
%TO.P,U3,20,IOVDD*%
%TO.N,+3V3*%
X21025000Y-49538500D03*
%TO.P,U3,21,XIN*%
%TO.N,/XIN*%
X21425000Y-49538500D03*
%TO.P,U3,22,XOUT*%
%TO.N,/XOUT*%
X21825000Y-49538500D03*
%TO.P,U3,23,DVDD*%
%TO.N,+1V1*%
X22225000Y-49538500D03*
%TO.P,U3,24,SWCLK*%
%TO.N,/SWCLK*%
X22625000Y-49538500D03*
%TO.P,U3,25,SWD*%
%TO.N,/SWD*%
X23025000Y-49538500D03*
%TO.P,U3,26,RUN*%
%TO.N,/RUN*%
X23425000Y-49538500D03*
%TO.P,U3,27,GPIO16*%
%TO.N,/GPIO16*%
X23825000Y-49538500D03*
%TO.P,U3,28,GPIO17*%
%TO.N,/GPIO17*%
X24225000Y-49538500D03*
%TO.P,U3,29,GPIO18*%
%TO.N,/GPIO18*%
X24625000Y-49538500D03*
D30*
%TO.P,U3,30,IOVDD*%
%TO.N,+3V3*%
X25025000Y-49538500D03*
D31*
%TO.P,U3,31,GPIO19*%
%TO.N,/GPIO19*%
X25662500Y-48901000D03*
D26*
%TO.P,U3,32,GPIO20*%
%TO.N,/GPIO20*%
X25662500Y-48501000D03*
%TO.P,U3,33,GPIO21*%
%TO.N,/GPIO21*%
X25662500Y-48101000D03*
%TO.P,U3,34,GPIO22*%
%TO.N,/GPIO22*%
X25662500Y-47701000D03*
%TO.P,U3,35,GPIO23*%
%TO.N,/GPIO23*%
X25662500Y-47301000D03*
%TO.P,U3,36,GPIO24*%
%TO.N,/GPIO24*%
X25662500Y-46901000D03*
%TO.P,U3,37,GPIO25*%
%TO.N,/GPIO25*%
X25662500Y-46501000D03*
%TO.P,U3,38,IOVDD*%
%TO.N,+3V3*%
X25662500Y-46101000D03*
%TO.P,U3,39,DVDD*%
%TO.N,+1V1*%
X25662500Y-45701000D03*
%TO.P,U3,40,GPIO26_ADC0*%
%TO.N,/GPIO26_ADC0*%
X25662500Y-45301000D03*
%TO.P,U3,41,GPIO27_ADC1*%
%TO.N,/GPIO27_ADC1*%
X25662500Y-44901000D03*
%TO.P,U3,42,GPIO28_ADC2*%
%TO.N,/GPIO28_ADC2*%
X25662500Y-44501000D03*
%TO.P,U3,43,GPIO29_ADC3*%
%TO.N,/GPIO29_ADC3*%
X25662500Y-44101000D03*
%TO.P,U3,44,ADC_AVDD*%
%TO.N,+3V3*%
X25662500Y-43701000D03*
D32*
%TO.P,U3,45,IOVDD*%
X25662500Y-43301000D03*
D33*
%TO.P,U3,46,VREG_AVDD*%
%TO.N,/VREG_AVDD*%
X25025000Y-42663500D03*
D29*
%TO.P,U3,47,VREG_PGND*%
%TO.N,GND*%
X24625000Y-42663500D03*
%TO.P,U3,48,VREG_LX*%
%TO.N,/VREG_LX*%
X24225000Y-42663500D03*
%TO.P,U3,49,VREG_VIN*%
%TO.N,+3V3*%
X23825000Y-42663500D03*
%TO.P,U3,50,VREG_FB*%
%TO.N,+1V1*%
X23425000Y-42663500D03*
%TO.P,U3,51,USB_DM*%
%TO.N,unconnected-(U3-USB_DM-Pad51)*%
X23025000Y-42663500D03*
%TO.P,U3,52,USB_DP*%
%TO.N,unconnected-(U3-USB_DP-Pad52)*%
X22625000Y-42663500D03*
%TO.P,U3,53,USB_OTP_VDD*%
%TO.N,+3V3*%
X22225000Y-42663500D03*
%TO.P,U3,54,QSPI_IOVDD*%
X21825000Y-42663500D03*
%TO.P,U3,55,QSPI_SD3*%
%TO.N,/QSPI_SD3*%
X21425000Y-42663500D03*
%TO.P,U3,56,QSPI_SCLK*%
%TO.N,/QSPI_SCLK*%
X21025000Y-42663500D03*
%TO.P,U3,57,QSPI_SD0*%
%TO.N,/QSPI_SD0*%
X20625000Y-42663500D03*
%TO.P,U3,58,QSPI_SD2*%
%TO.N,/QSPI_SD2*%
X20225000Y-42663500D03*
%TO.P,U3,59,QSPI_SD1*%
%TO.N,/QSPI_SD1*%
X19825000Y-42663500D03*
D34*
%TO.P,U3,60,QSPI_SS*%
%TO.N,/FLASH_SS*%
X19425000Y-42663500D03*
D35*
%TO.P,U3,61,GND*%
%TO.N,GND*%
X20850000Y-44726000D03*
X20850000Y-46101000D03*
X20850000Y-47476000D03*
X22225000Y-44726000D03*
X22225000Y-46101000D03*
D36*
X22225000Y-46101000D03*
D35*
X22225000Y-47476000D03*
X23600000Y-44726000D03*
X23600000Y-46101000D03*
X23600000Y-47476000D03*
%TD*%
D19*
%TO.P,C5,1*%
%TO.N,+3V3*%
X23742000Y-41529000D03*
%TO.P,C5,2*%
%TO.N,GND*%
X24772000Y-41529000D03*
%TD*%
D37*
%TO.P,R3,1*%
%TO.N,/XOUT*%
X23241000Y-51687000D03*
%TO.P,R3,2*%
%TO.N,Net-(C3-Pad1)*%
X23241000Y-52707000D03*
%TD*%
D38*
%TO.P,J5,1,Pin_1*%
%TO.N,GND*%
X26610000Y-64142500D03*
D39*
%TO.P,J5,2,Pin_2*%
%TO.N,+24V*%
X24110000Y-64142500D03*
%TO.P,J5,3,Pin_3*%
%TO.N,/RS485-A*%
X21610000Y-64142500D03*
%TO.P,J5,4,Pin_4*%
%TO.N,/RS485-B*%
X19110000Y-64142500D03*
%TD*%
D11*
%TO.P,C16,1*%
%TO.N,+3V3*%
X17653000Y-42954000D03*
%TO.P,C16,2*%
%TO.N,GND*%
X17653000Y-43914000D03*
%TD*%
D20*
%TO.P,L1,1,1*%
%TO.N,Net-(U2-SW)*%
X26732000Y-38862000D03*
%TO.P,L1,2,2*%
%TO.N,+3V3*%
X28132000Y-38862000D03*
%TD*%
D19*
%TO.P,C17,1*%
%TO.N,+3V3*%
X17660000Y-47117000D03*
%TO.P,C17,2*%
%TO.N,GND*%
X16630000Y-47117000D03*
%TD*%
D40*
%TO.P,R2,1*%
%TO.N,/GPIO29_ADC3*%
X26922000Y-43307000D03*
%TO.P,R2,2*%
%TO.N,GND*%
X27942000Y-43307000D03*
%TD*%
D41*
%TO.P,SW1,1,1*%
%TO.N,Net-(R4-Pad1)*%
X29142000Y-46609000D03*
X29142000Y-50759000D03*
%TO.P,SW1,2,2*%
%TO.N,/RUN*%
X26992000Y-46609000D03*
X26992000Y-50734000D03*
%TD*%
D11*
%TO.P,C3,1*%
%TO.N,Net-(C3-Pad1)*%
X23241000Y-53594000D03*
%TO.P,C3,2*%
%TO.N,GND*%
X23241000Y-54554000D03*
%TD*%
D42*
%TO.P,J1,*%
%TO.N,GND*%
X17400000Y-20480000D03*
X28400000Y-20480000D03*
D43*
%TO.P,J1,1,Pin_1*%
X25400000Y-30480000D03*
D44*
%TO.P,J1,2,Pin_2*%
%TO.N,+24V*%
X20400000Y-30480000D03*
%TD*%
D21*
%TO.P,C14,1*%
%TO.N,+3V3*%
X26952000Y-45085000D03*
%TO.P,C14,2*%
%TO.N,GND*%
X27912000Y-45085000D03*
%TD*%
D37*
%TO.P,R7,1*%
%TO.N,/RS485-B*%
X23749000Y-58672000D03*
%TO.P,R7,2*%
%TO.N,/RS485-A*%
X23749000Y-59692000D03*
%TD*%
D19*
%TO.P,C10,1*%
%TO.N,/VREG_AVDD*%
X25520000Y-41529000D03*
%TO.P,C10,2*%
%TO.N,GND*%
X26550000Y-41529000D03*
%TD*%
D45*
%TO.P,U4,1,RO*%
%TO.N,/GPIO9*%
X17083000Y-57277000D03*
%TO.P,U4,2,~{RE}*%
%TO.N,/GPIO7*%
X17083000Y-58547000D03*
%TO.P,U4,3,DE*%
X17083000Y-59817000D03*
%TO.P,U4,4,DI*%
%TO.N,/GPIO8*%
X17083000Y-61087000D03*
%TO.P,U4,5,GND*%
%TO.N,GND*%
X22033000Y-61087000D03*
%TO.P,U4,6,A*%
%TO.N,/RS485-A*%
X22033000Y-59817000D03*
%TO.P,U4,7,B*%
%TO.N,/RS485-B*%
X22033000Y-58547000D03*
%TO.P,U4,8,VCC*%
%TO.N,+3V3*%
X22033000Y-57277000D03*
%TD*%
D12*
%TO.P,R1,1*%
%TO.N,+24V*%
X27942000Y-42418000D03*
%TO.P,R1,2*%
%TO.N,/GPIO29_ADC3*%
X26922000Y-42418000D03*
%TD*%
%TO.P,R6,1*%
%TO.N,/GPIO7*%
X17655000Y-46228000D03*
%TO.P,R6,2*%
%TO.N,GND*%
X16635000Y-46228000D03*
%TD*%
D11*
%TO.P,C8,1*%
%TO.N,+3V3*%
X28321000Y-40541000D03*
%TO.P,C8,2*%
%TO.N,GND*%
X28321000Y-41501000D03*
%TD*%
D46*
%TO.N,+24V*%
X24130000Y-61976000D03*
D47*
%TO.N,GND*%
X21209000Y-39751000D03*
D48*
X26924000Y-54864000D03*
D46*
X26670000Y-61976000D03*
D48*
X28702000Y-43307000D03*
X22606000Y-39370000D03*
X23241000Y-55372000D03*
X28702000Y-41783000D03*
D47*
X24765000Y-40370002D03*
D48*
X23368000Y-36703000D03*
X27178000Y-37465000D03*
D47*
%TO.N,+3V3*%
X19558000Y-38608000D03*
X21717000Y-38608000D03*
D48*
%TO.N,Net-(U2-SW)*%
X26162000Y-37846000D03*
X25308999Y-35052000D03*
D47*
%TO.N,+1V1*%
X24384000Y-44450000D03*
X26511250Y-44450000D03*
X22225000Y-50419000D03*
X22225000Y-48260000D03*
X23742000Y-40132000D03*
X20066000Y-45339000D03*
X18034000Y-45301000D03*
X23749000Y-43942000D03*
D48*
%TO.N,/GPIO9*%
X17145000Y-49403000D03*
X17780000Y-48263750D03*
%TO.N,/GPIO7*%
X16510000Y-59182000D03*
X16510000Y-56509500D03*
D47*
%TO.N,/QSPI_SD3*%
X21209000Y-37846000D03*
X19557425Y-37846000D03*
%TO.N,/QSPI_SCLK*%
X21082000Y-43434000D03*
X20066000Y-39624000D03*
%TD*%
D49*
%TO.N,+24V*%
X24110000Y-64142500D02*
X24110000Y-62230000D01*
D50*
X24110000Y-61996000D02*
X24130000Y-61976000D01*
D51*
X29083000Y-42418000D02*
X29337000Y-42164000D01*
D49*
X20400000Y-30480000D02*
X20574000Y-30480000D01*
D52*
X24384000Y-33958000D02*
X25227500Y-33114500D01*
D49*
X20574000Y-30480000D02*
X23725000Y-33631000D01*
D50*
X24110000Y-62230000D02*
X24110000Y-61996000D01*
D52*
X26996498Y-33114500D02*
X27178000Y-33296002D01*
D49*
X23725000Y-33631000D02*
X24384000Y-33631000D01*
D52*
X28128001Y-34133000D02*
X28014998Y-34133000D01*
X28014998Y-34133000D02*
X26996498Y-33114500D01*
D51*
X27942000Y-42418000D02*
X29083000Y-42418000D01*
D52*
X27178000Y-33296002D02*
X27178000Y-34133000D01*
D51*
X29337000Y-35341999D02*
X28128001Y-34133000D01*
D52*
X25227500Y-33114500D02*
X26996498Y-33114500D01*
D51*
X29337000Y-42164000D02*
X29337000Y-35341999D01*
D52*
%TO.N,GND*%
X26924000Y-54864000D02*
X26924000Y-55289000D01*
X27432000Y-41501000D02*
X26647000Y-41501000D01*
X28702000Y-44194000D02*
X28702000Y-43307000D01*
D50*
X21214000Y-54224000D02*
X20927000Y-54224000D01*
X28702000Y-44194000D02*
X27914000Y-44194000D01*
D52*
X23241000Y-55372000D02*
X23241000Y-54554000D01*
X24924000Y-54864000D02*
X26924000Y-54864000D01*
X20863500Y-56497500D02*
X23000500Y-56497500D01*
X27432000Y-41501000D02*
X28321000Y-41501000D01*
X16605500Y-43402500D02*
X16605500Y-31753501D01*
X17117000Y-43914000D02*
X16605500Y-43402500D01*
D50*
X27912000Y-45085000D02*
X27912000Y-44196000D01*
X25046999Y-60579000D02*
X25880000Y-61412001D01*
D53*
X28420000Y-41501000D02*
X28702000Y-41783000D01*
D50*
X23368000Y-60579000D02*
X25046999Y-60579000D01*
D49*
X26610000Y-64142500D02*
X26610000Y-62230000D01*
D52*
X25768000Y-51711000D02*
X25753000Y-51711000D01*
X17089001Y-31270000D02*
X17399000Y-31270000D01*
X26647000Y-41501000D02*
X26619000Y-41529000D01*
X26924000Y-54864000D02*
X26924000Y-52867000D01*
X16581250Y-45422750D02*
X16581250Y-47117000D01*
X22606000Y-40541000D02*
X22606000Y-39370000D01*
X23000500Y-56497500D02*
X23241000Y-56257000D01*
X21932000Y-51794000D02*
X21947500Y-51778500D01*
X16665000Y-45339000D02*
X16665000Y-43462000D01*
X27942000Y-43307000D02*
X28702000Y-43307000D01*
D50*
X26610000Y-62036000D02*
X26670000Y-61976000D01*
X24772000Y-40640000D02*
X24772000Y-40377002D01*
D52*
X16605500Y-31753501D02*
X17089001Y-31270000D01*
X17399000Y-31270000D02*
X17399000Y-29586284D01*
X26924000Y-55289000D02*
X28799000Y-57164000D01*
X17653000Y-43914000D02*
X17117000Y-43914000D01*
X21932000Y-53129000D02*
X21932000Y-52592000D01*
X26924000Y-52867000D02*
X25768000Y-51711000D01*
X19670000Y-55329000D02*
X19050000Y-54709000D01*
X27912000Y-44097000D02*
X28702000Y-43307000D01*
X16665000Y-44902000D02*
X17653000Y-43914000D01*
X21932000Y-52592000D02*
X21084750Y-51744750D01*
D50*
X27942000Y-43307000D02*
X27942000Y-44166000D01*
X27942000Y-44166000D02*
X27912000Y-44196000D01*
D52*
X26924000Y-54439000D02*
X28799000Y-52564000D01*
D50*
X22033000Y-61087000D02*
X22860000Y-61087000D01*
D52*
X21947500Y-51778500D02*
X22225000Y-51778500D01*
X17399000Y-29586284D02*
X19172284Y-27813000D01*
D50*
X21932000Y-53506000D02*
X21214000Y-54224000D01*
X21932000Y-53129000D02*
X21932000Y-53506000D01*
D51*
X24625000Y-41676000D02*
X24772000Y-41529000D01*
D50*
X20232000Y-54919000D02*
X20232000Y-55329000D01*
D52*
X16665000Y-43462000D02*
X16605500Y-43402500D01*
D50*
X22860000Y-61087000D02*
X23368000Y-60579000D01*
D52*
X21084750Y-51744750D02*
X20753500Y-51744750D01*
X26924000Y-54864000D02*
X26924000Y-54439000D01*
D50*
X24772000Y-40640000D02*
X24772000Y-41529000D01*
D52*
X21932000Y-53129000D02*
X21932000Y-51794000D01*
X27912000Y-44196000D02*
X27912000Y-44097000D01*
X20232000Y-55866000D02*
X20863500Y-56497500D01*
D51*
X21209000Y-40925500D02*
X21209000Y-39751000D01*
D50*
X27914000Y-44194000D02*
X27912000Y-44196000D01*
X20927000Y-54224000D02*
X20232000Y-54919000D01*
D52*
X23368000Y-36703000D02*
X24179000Y-36703000D01*
X19172284Y-27813000D02*
X22733000Y-27813000D01*
X16665000Y-45339000D02*
X16665000Y-44902000D01*
D50*
X25880000Y-61412001D02*
X25880000Y-61722000D01*
X26610000Y-62230000D02*
X26610000Y-62036000D01*
D52*
X20232000Y-55329000D02*
X19670000Y-55329000D01*
D50*
X24772000Y-40377002D02*
X24765000Y-40370002D01*
D52*
X16665000Y-45339000D02*
X16581250Y-45422750D01*
X24179000Y-36703000D02*
X24384000Y-36908000D01*
X22733000Y-27813000D02*
X25400000Y-30480000D01*
D53*
X28321000Y-41501000D02*
X28420000Y-41501000D01*
D52*
X23241000Y-56257000D02*
X23241000Y-55372000D01*
D51*
X24625000Y-42663500D02*
X24625000Y-41676000D01*
D52*
X20232000Y-55329000D02*
X20232000Y-55866000D01*
D51*
%TO.N,/XIN*%
X21372250Y-50927000D02*
X21372250Y-49591250D01*
X20189750Y-51214750D02*
X20223500Y-51181000D01*
X21118250Y-51181000D02*
X21372250Y-50927000D01*
X21372250Y-49591250D02*
X21425000Y-49538500D01*
X20189750Y-53086750D02*
X20189750Y-51214750D01*
X20223500Y-51181000D02*
X21118250Y-51181000D01*
X20232000Y-53129000D02*
X20189750Y-53086750D01*
D52*
X20232000Y-53129000D02*
X19670000Y-53129000D01*
X19670000Y-53129000D02*
X19050000Y-53749000D01*
D51*
%TO.N,Net-(C3-Pad1)*%
X21932000Y-55329000D02*
X21932000Y-54903000D01*
D52*
X23241000Y-53594000D02*
X23241000Y-53213000D01*
D51*
X21932000Y-54903000D02*
X23241000Y-53594000D01*
D52*
X23241000Y-53213000D02*
X23241000Y-52707000D01*
D51*
%TO.N,+3V3*%
X21825000Y-42663500D02*
X21825000Y-43415000D01*
D52*
X26545000Y-40640000D02*
X27333000Y-40640000D01*
D53*
X18787500Y-43301000D02*
X18000000Y-43301000D01*
D50*
X22033000Y-57277000D02*
X20070000Y-57277000D01*
D51*
X17399000Y-34562999D02*
X17399000Y-33750500D01*
D50*
X18327500Y-55534500D02*
X18327500Y-52369540D01*
D51*
X23825000Y-43383000D02*
X23876000Y-43434000D01*
X24971250Y-49484750D02*
X24971250Y-48847250D01*
D52*
X27333000Y-40640000D02*
X27432000Y-40541000D01*
D51*
X19501000Y-47301000D02*
X19558000Y-47244000D01*
X25662500Y-43301000D02*
X25662500Y-42235904D01*
D52*
X28321000Y-40030000D02*
X28132000Y-39841000D01*
D51*
X17809000Y-47301000D02*
X18787500Y-47301000D01*
D53*
X18000000Y-43301000D02*
X17653000Y-42954000D01*
D51*
X22225000Y-42009000D02*
X22225000Y-41882000D01*
D52*
X28132000Y-36736999D02*
X28128001Y-36733000D01*
D51*
X19470980Y-43346980D02*
X19558000Y-43434000D01*
X18523001Y-35687000D02*
X17399000Y-34562999D01*
X25662500Y-42235904D02*
X26055250Y-41843154D01*
X19050000Y-38608000D02*
X18523001Y-38081001D01*
X25662500Y-46101000D02*
X24892000Y-46101000D01*
X18833480Y-43346980D02*
X19470980Y-43346980D01*
X24971250Y-48847250D02*
X24892000Y-48768000D01*
X18523001Y-38081001D02*
X18523001Y-35687000D01*
X26952000Y-45438000D02*
X26952000Y-45085000D01*
X22225000Y-41882000D02*
X22606000Y-41501000D01*
D50*
X25402500Y-43561000D02*
X24892000Y-43561000D01*
D51*
X22225000Y-42009000D02*
X21825000Y-42409000D01*
X20701000Y-50701000D02*
X21025000Y-50377000D01*
D52*
X28132000Y-39841000D02*
X27432000Y-40541000D01*
D51*
X23825000Y-41612000D02*
X23742000Y-41529000D01*
X21025000Y-50377000D02*
X21025000Y-49538500D01*
X25025000Y-49538500D02*
X24971250Y-49484750D01*
X18787500Y-47301000D02*
X19501000Y-47301000D01*
X21025000Y-48825000D02*
X21082000Y-48768000D01*
X21717000Y-38608000D02*
X22305250Y-38019750D01*
X17625000Y-47117000D02*
X17809000Y-47301000D01*
X26055250Y-41843154D02*
X26055250Y-41129750D01*
D50*
X20070000Y-57277000D02*
X18327500Y-55534500D01*
D51*
X22225000Y-42663500D02*
X22225000Y-42009000D01*
X25553250Y-39648250D02*
X26545000Y-40640000D01*
X18787500Y-43301000D02*
X18833480Y-43346980D01*
X22225000Y-42663500D02*
X22225000Y-43434000D01*
X23825000Y-42663500D02*
X23825000Y-43383000D01*
X25662500Y-46101000D02*
X26289000Y-46101000D01*
X25553250Y-38019750D02*
X25553250Y-39648250D01*
D52*
X28132000Y-38862000D02*
X28132000Y-36736999D01*
D51*
X21025000Y-49538500D02*
X21025000Y-48825000D01*
D52*
X28321000Y-40541000D02*
X27432000Y-40541000D01*
D51*
X26289000Y-46101000D02*
X26952000Y-45438000D01*
X19558000Y-38608000D02*
X19050000Y-38608000D01*
D50*
X20031040Y-50666000D02*
X20701000Y-50666000D01*
X18327500Y-52369540D02*
X20031040Y-50666000D01*
D51*
X26055250Y-41129750D02*
X26545000Y-40640000D01*
X21825000Y-43415000D02*
X21844000Y-43434000D01*
D50*
X25662500Y-43301000D02*
X25402500Y-43561000D01*
D52*
X28132000Y-38862000D02*
X28132000Y-39841000D01*
D51*
X21825000Y-42409000D02*
X21825000Y-42663500D01*
X23825000Y-42663500D02*
X23825000Y-41612000D01*
D53*
X25753000Y-50266500D02*
X25025000Y-49538500D01*
D52*
X17399000Y-32230000D02*
X17399000Y-33750500D01*
X28321000Y-40541000D02*
X28321000Y-40030000D01*
D51*
X22305250Y-38019750D02*
X25553250Y-38019750D01*
D53*
X25753000Y-50666000D02*
X25753000Y-50266500D01*
D52*
%TO.N,Net-(U2-CB)*%
X22733000Y-35913000D02*
X22781500Y-35864500D01*
X22781500Y-35864500D02*
X25359499Y-35864500D01*
X25359499Y-35864500D02*
X26227999Y-36733000D01*
%TO.N,Net-(U2-SW)*%
X22733000Y-34953000D02*
X22832000Y-35052000D01*
X22832000Y-35052000D02*
X25308999Y-35052000D01*
X26162000Y-37846000D02*
X26478000Y-38162000D01*
X26478000Y-38608000D02*
X26732000Y-38862000D01*
X25308999Y-35052000D02*
X26227999Y-34133000D01*
X26478000Y-38162000D02*
X26478000Y-38608000D01*
D51*
%TO.N,+1V1*%
X23742000Y-40132000D02*
X23742000Y-40386000D01*
D53*
X23229000Y-41931376D02*
X23229000Y-41148000D01*
D51*
X25662500Y-45701000D02*
X26120346Y-45701000D01*
X26416000Y-44545250D02*
X26511250Y-44450000D01*
X26416000Y-45405346D02*
X26416000Y-44545250D01*
D50*
X23742000Y-39301000D02*
X23557000Y-39116000D01*
D51*
X26120346Y-45701000D02*
X26416000Y-45405346D01*
D54*
X26765250Y-44196000D02*
X26952000Y-44196000D01*
D51*
X22225000Y-50419000D02*
X22225000Y-50701000D01*
D53*
X23425000Y-42127376D02*
X23229000Y-41931376D01*
D51*
X22225000Y-49538500D02*
X22225000Y-50419000D01*
D53*
X23737000Y-40640000D02*
X23742000Y-40640000D01*
D50*
X23742000Y-40132000D02*
X23742000Y-39301000D01*
D54*
X26511250Y-44450000D02*
X26765250Y-44196000D01*
D51*
X17663000Y-45301000D02*
X17625000Y-45339000D01*
D53*
X23229000Y-41148000D02*
X23737000Y-40640000D01*
D51*
X18034000Y-45301000D02*
X17663000Y-45301000D01*
D50*
X23742000Y-40640000D02*
X23742000Y-40132000D01*
D53*
X23425000Y-42663500D02*
X23425000Y-42127376D01*
D51*
X18787500Y-45301000D02*
X18034000Y-45301000D01*
%TO.N,/VREG_AVDD*%
X25025000Y-42158000D02*
X25025000Y-42663500D01*
D50*
X25525000Y-41499000D02*
X25555000Y-41529000D01*
D51*
X25555000Y-41529000D02*
X25555000Y-41628000D01*
X25555000Y-41628000D02*
X25025000Y-42158000D01*
D50*
X25525000Y-40640000D02*
X25525000Y-41499000D01*
D51*
%TO.N,/GPIO9*%
X17145000Y-57215000D02*
X17083000Y-57277000D01*
X18787500Y-48101000D02*
X17942750Y-48101000D01*
X17145000Y-49403000D02*
X17145000Y-57215000D01*
X17942750Y-48101000D02*
X17780000Y-48263750D01*
%TO.N,/GPIO8*%
X17780000Y-56388000D02*
X18415000Y-57023000D01*
X17145000Y-48006000D02*
X17145000Y-48577500D01*
X18787500Y-47701000D02*
X17450000Y-47701000D01*
X18415000Y-57023000D02*
X18415000Y-60729999D01*
X17145000Y-48577500D02*
X17780000Y-49212500D01*
X18057999Y-61087000D02*
X17083000Y-61087000D01*
X17780000Y-49212500D02*
X17780000Y-56388000D01*
X17450000Y-47701000D02*
X17145000Y-48006000D01*
X18415000Y-60729999D02*
X18057999Y-61087000D01*
%TO.N,/GPIO7*%
X18787500Y-46901000D02*
X18328000Y-46901000D01*
D52*
X17083000Y-59817000D02*
X17083000Y-58547000D01*
D51*
X17145000Y-46738000D02*
X17655000Y-46228000D01*
X16510000Y-56509500D02*
X16510000Y-48133000D01*
X16510000Y-48133000D02*
X17145000Y-47498000D01*
D52*
X16510000Y-59120000D02*
X17083000Y-58547000D01*
X16510000Y-59182000D02*
X16510000Y-59244000D01*
D51*
X17145000Y-47498000D02*
X17145000Y-46738000D01*
X18328000Y-46901000D02*
X17655000Y-46228000D01*
D52*
X16510000Y-59182000D02*
X16510000Y-59120000D01*
X16510000Y-59244000D02*
X17083000Y-59817000D01*
D51*
%TO.N,/SWCLK*%
X23876000Y-53467000D02*
X24511000Y-52832000D01*
X24511000Y-52081204D02*
X22736250Y-50306454D01*
X24511000Y-52832000D02*
X24511000Y-52081204D01*
X22736250Y-50306454D02*
X22736250Y-50184750D01*
X22625000Y-50073500D02*
X22625000Y-49538500D01*
X22736250Y-50184750D02*
X22625000Y-50073500D01*
X23876000Y-55155538D02*
X23876000Y-53467000D01*
X24924000Y-55864000D02*
X24584462Y-55864000D01*
X24584462Y-55864000D02*
X23876000Y-55155538D01*
%TO.N,/SWD*%
X24924000Y-53864000D02*
X24924000Y-52011250D01*
X23074500Y-49962892D02*
X23025000Y-49913392D01*
X23074500Y-50040046D02*
X23074500Y-49962892D01*
X23025000Y-49913392D02*
X23025000Y-49538500D01*
X23077750Y-50043296D02*
X23074500Y-50040046D01*
X24924000Y-52011250D02*
X23077750Y-50165000D01*
X23077750Y-50165000D02*
X23077750Y-50043296D01*
%TO.N,/GPIO29_ADC3*%
X25662500Y-44101000D02*
X26128000Y-44101000D01*
D50*
X26922000Y-42418000D02*
X26922000Y-43307000D01*
D51*
X26128000Y-44101000D02*
X26922000Y-43307000D01*
%TO.N,/RUN*%
X26992000Y-50859000D02*
X26992000Y-50734000D01*
X24575904Y-51147250D02*
X26703750Y-51147250D01*
X23425000Y-49996346D02*
X24575904Y-51147250D01*
X26703750Y-51147250D02*
X26992000Y-50859000D01*
X23425000Y-49538500D02*
X23425000Y-49996346D01*
D52*
X26992000Y-46439000D02*
X26992000Y-50564000D01*
%TO.N,/RS485-A*%
X23749000Y-59692000D02*
X22158000Y-59692000D01*
D55*
X20574000Y-59817000D02*
X22033000Y-59817000D01*
X21610000Y-64142500D02*
X20399000Y-62931500D01*
D52*
X22158000Y-59692000D02*
X22033000Y-59817000D01*
D55*
X20399000Y-59992000D02*
X20574000Y-59817000D01*
X20399000Y-62931500D02*
X20399000Y-59992000D01*
D52*
%TO.N,/RS485-B*%
X23749000Y-58672000D02*
X22158000Y-58672000D01*
D55*
X19169250Y-59443750D02*
X20066000Y-58547000D01*
D52*
X22158000Y-58672000D02*
X22033000Y-58547000D01*
D55*
X19110000Y-64142500D02*
X19169250Y-64083250D01*
X20066000Y-58547000D02*
X22033000Y-58547000D01*
X19169250Y-64083250D02*
X19169250Y-59443750D01*
D51*
%TO.N,/VREG_LX*%
X24242250Y-42646250D02*
X24242250Y-39830750D01*
X24242250Y-39830750D02*
X24957000Y-39116000D01*
X24225000Y-42663500D02*
X24242250Y-42646250D01*
%TO.N,/XOUT*%
X22768750Y-51214750D02*
X21781250Y-51214750D01*
X21713750Y-51147250D02*
X21713750Y-50184750D01*
X21717000Y-50184750D02*
X21717000Y-50104346D01*
X21825000Y-49996346D02*
X21825000Y-49538500D01*
X21713750Y-50184750D02*
X21717000Y-50184750D01*
X21781250Y-51214750D02*
X21717000Y-51150500D01*
X21717000Y-51150500D02*
X21717000Y-51147250D01*
X21717000Y-50104346D02*
X21825000Y-49996346D01*
X23241000Y-51687000D02*
X22768750Y-51214750D01*
X21717000Y-51147250D02*
X21713750Y-51147250D01*
D52*
%TO.N,Net-(R4-Pad1)*%
X28702000Y-45214000D02*
X28702000Y-45999000D01*
X28702000Y-45999000D02*
X29142000Y-46439000D01*
X29142000Y-46439000D02*
X29142000Y-50589000D01*
D51*
%TO.N,/FLASH_SS*%
X17399000Y-41050562D02*
X17399000Y-40925500D01*
X19425000Y-42663500D02*
X18745750Y-41984250D01*
X18745750Y-41984250D02*
X18332688Y-41984250D01*
X18332688Y-41984250D02*
X17399000Y-41050562D01*
%TO.N,/QSPI_SD2*%
X20225000Y-42037000D02*
X20225000Y-42663500D01*
X19939000Y-41751000D02*
X20225000Y-42037000D01*
X19939000Y-40925500D02*
X19939000Y-41751000D01*
%TO.N,/QSPI_SD3*%
X21209000Y-38989000D02*
X21780250Y-39560250D01*
X21425000Y-42202000D02*
X21425000Y-42663500D01*
X21780250Y-39560250D02*
X21780250Y-41846750D01*
X18669000Y-34037952D02*
X18669000Y-33750500D01*
X21209000Y-37846000D02*
X21209000Y-38989000D01*
X21780250Y-41846750D02*
X21425000Y-42202000D01*
X19557425Y-34926377D02*
X18669000Y-34037952D01*
X19557425Y-37846000D02*
X19557425Y-34926377D01*
%TO.N,/QSPI_SCLK*%
X20066000Y-33877500D02*
X19939000Y-33750500D01*
X21082000Y-43434000D02*
X21082000Y-43310194D01*
X21082000Y-43310194D02*
X21025000Y-43253194D01*
X21025000Y-43253194D02*
X21025000Y-42663500D01*
X20066000Y-39624000D02*
X20066000Y-33877500D01*
%TO.N,/QSPI_SD1*%
X19825000Y-42207040D02*
X19825000Y-42663500D01*
X18669000Y-41051040D02*
X19825000Y-42207040D01*
X18669000Y-40925500D02*
X18669000Y-41051040D01*
%TO.N,/QSPI_SD0*%
X20574000Y-42612500D02*
X20574000Y-34845750D01*
X21209000Y-34210750D02*
X21209000Y-33750500D01*
X20574000Y-34845750D02*
X21209000Y-34210750D01*
X20625000Y-42663500D02*
X20574000Y-42612500D01*
%TD*%
%TA.AperFunction,Conductor*%
%TO.N,+1V1*%
G36*
X20957064Y-43819292D02*
G01*
X21028747Y-43838500D01*
X21028748Y-43838500D01*
X21135251Y-43838500D01*
X21135253Y-43838500D01*
X21206935Y-43819292D01*
X21239545Y-43815000D01*
X24385000Y-43815000D01*
X24453121Y-43835002D01*
X24499614Y-43888658D01*
X24511000Y-43941000D01*
X24511000Y-48261000D01*
X24490998Y-48329121D01*
X24437342Y-48375614D01*
X24385000Y-48387000D01*
X20065000Y-48387000D01*
X19996879Y-48366998D01*
X19950386Y-48313342D01*
X19939000Y-48261000D01*
X19939000Y-44508680D01*
X20374500Y-44508680D01*
X20374500Y-47693319D01*
X20377443Y-47718689D01*
X20423276Y-47822490D01*
X20423277Y-47822492D01*
X20503507Y-47902722D01*
X20503509Y-47902723D01*
X20503510Y-47902724D01*
X20607310Y-47948556D01*
X20632681Y-47951499D01*
X20632683Y-47951500D01*
X20632686Y-47951500D01*
X23817317Y-47951500D01*
X23817317Y-47951499D01*
X23842690Y-47948556D01*
X23946490Y-47902724D01*
X24026724Y-47822490D01*
X24072556Y-47718690D01*
X24075500Y-47693314D01*
X24075500Y-44508686D01*
X24072556Y-44483310D01*
X24026724Y-44379510D01*
X24026723Y-44379509D01*
X24026722Y-44379507D01*
X23946492Y-44299277D01*
X23946490Y-44299276D01*
X23842688Y-44253443D01*
X23842689Y-44253443D01*
X23817319Y-44250500D01*
X23817314Y-44250500D01*
X20632686Y-44250500D01*
X20632680Y-44250500D01*
X20607310Y-44253443D01*
X20503509Y-44299276D01*
X20503507Y-44299277D01*
X20423277Y-44379507D01*
X20423276Y-44379509D01*
X20377443Y-44483310D01*
X20374500Y-44508680D01*
X19939000Y-44508680D01*
X19939000Y-43941000D01*
X19959002Y-43872879D01*
X20012658Y-43826386D01*
X20065000Y-43815000D01*
X20924455Y-43815000D01*
X20957064Y-43819292D01*
G37*
%TD.AperFunction*%
%TD*%
%TA.AperFunction,Conductor*%
%TO.N,+3V3*%
G36*
X20660135Y-43325306D02*
G01*
X20678441Y-43369500D01*
X20677907Y-43377654D01*
X20677500Y-43380746D01*
X20677500Y-43487251D01*
X20677501Y-43487259D01*
X20702572Y-43580824D01*
X20696329Y-43628250D01*
X20658378Y-43657370D01*
X20642202Y-43659500D01*
X20064990Y-43659500D01*
X20031944Y-43663053D01*
X19979605Y-43674438D01*
X19910826Y-43708867D01*
X19910824Y-43708868D01*
X19857186Y-43755346D01*
X19851694Y-43760340D01*
X19809801Y-43829070D01*
X19809800Y-43829072D01*
X19789800Y-43897184D01*
X19789799Y-43897187D01*
X19789251Y-43901000D01*
X19783500Y-43941000D01*
X19783500Y-43941005D01*
X19783500Y-45023562D01*
X19765194Y-45067756D01*
X19742324Y-45090625D01*
X19742317Y-45090634D01*
X19689068Y-45182863D01*
X19689064Y-45182872D01*
X19661501Y-45285740D01*
X19661500Y-45285748D01*
X19661500Y-45392251D01*
X19661501Y-45392259D01*
X19689064Y-45495127D01*
X19689068Y-45495136D01*
X19742317Y-45587365D01*
X19742323Y-45587373D01*
X19765193Y-45610242D01*
X19783500Y-45654436D01*
X19783500Y-48261009D01*
X19787053Y-48294055D01*
X19798438Y-48346394D01*
X19832867Y-48415173D01*
X19832868Y-48415175D01*
X19860133Y-48446640D01*
X19879360Y-48468829D01*
X19884339Y-48474305D01*
X19953070Y-48516199D01*
X19991766Y-48527561D01*
X20021184Y-48536199D01*
X20021187Y-48536200D01*
X20021188Y-48536200D01*
X20021191Y-48536201D01*
X20065000Y-48542500D01*
X21909563Y-48542500D01*
X21953757Y-48560806D01*
X21953758Y-48560807D01*
X21976626Y-48583676D01*
X21976634Y-48583682D01*
X22068863Y-48636931D01*
X22068866Y-48636932D01*
X22068869Y-48636934D01*
X22068870Y-48636934D01*
X22068872Y-48636935D01*
X22131826Y-48653803D01*
X22171747Y-48664500D01*
X22171748Y-48664500D01*
X22278252Y-48664500D01*
X22278253Y-48664500D01*
X22381131Y-48636934D01*
X22473369Y-48583680D01*
X22496242Y-48560807D01*
X22540436Y-48542500D01*
X24384993Y-48542500D01*
X24385000Y-48542500D01*
X24418053Y-48538947D01*
X24470395Y-48527561D01*
X24539173Y-48493133D01*
X24592829Y-48446640D01*
X24598305Y-48441661D01*
X24640199Y-48372930D01*
X24660201Y-48304809D01*
X24666500Y-48261000D01*
X24666500Y-44765437D01*
X24684806Y-44721243D01*
X24707676Y-44698373D01*
X24707680Y-44698369D01*
X24760934Y-44606131D01*
X24788500Y-44503253D01*
X24788500Y-44396747D01*
X24760934Y-44293869D01*
X24707680Y-44201631D01*
X24707678Y-44201629D01*
X24707675Y-44201625D01*
X24684806Y-44178756D01*
X24666500Y-44134562D01*
X24666500Y-43941007D01*
X24666499Y-43940990D01*
X24666145Y-43937698D01*
X24662947Y-43907947D01*
X24651561Y-43855605D01*
X24617133Y-43786827D01*
X24617131Y-43786825D01*
X24617131Y-43786824D01*
X24570653Y-43733186D01*
X24570652Y-43733185D01*
X24570640Y-43733171D01*
X24565661Y-43727695D01*
X24496930Y-43685801D01*
X24496927Y-43685800D01*
X24428815Y-43665800D01*
X24428812Y-43665799D01*
X24412380Y-43663436D01*
X24385000Y-43659500D01*
X24384995Y-43659500D01*
X24064437Y-43659500D01*
X24020243Y-43641194D01*
X24020242Y-43641193D01*
X23997373Y-43618323D01*
X23997365Y-43618317D01*
X23905136Y-43565068D01*
X23905127Y-43565064D01*
X23802259Y-43537501D01*
X23802254Y-43537500D01*
X23802253Y-43537500D01*
X23695747Y-43537500D01*
X23695746Y-43537500D01*
X23695740Y-43537501D01*
X23592872Y-43565064D01*
X23592863Y-43565068D01*
X23500634Y-43618317D01*
X23500626Y-43618323D01*
X23477758Y-43641193D01*
X23433564Y-43659500D01*
X21521798Y-43659500D01*
X21477604Y-43641194D01*
X21459298Y-43597000D01*
X21461428Y-43580824D01*
X21473036Y-43537500D01*
X21486500Y-43487253D01*
X21486500Y-43380747D01*
X21486500Y-43380746D01*
X21486093Y-43377654D01*
X21498477Y-43331449D01*
X21539905Y-43307534D01*
X21548059Y-43307000D01*
X24956500Y-43307000D01*
X25000694Y-43325306D01*
X25019000Y-43369500D01*
X25019000Y-48832500D01*
X25000694Y-48876694D01*
X24956500Y-48895000D01*
X19493500Y-48895000D01*
X19449306Y-48876694D01*
X19431000Y-48832500D01*
X19431000Y-43369500D01*
X19449306Y-43325306D01*
X19493500Y-43307000D01*
X20615941Y-43307000D01*
X20660135Y-43325306D01*
G37*
%TD.AperFunction*%
%TD*%
M02*
