%TF.GenerationSoftware,KiCad,Pcbnew,9.0.0*%
%TF.CreationDate,2025-04-09T23:47:23-07:00*%
%TF.ProjectId,RP2350_60QFN_minimal,52503233-3530-45f3-9630-51464e5f6d69,rev?*%
%TF.SameCoordinates,Original*%
%TF.FileFunction,Drillmap*%
%TF.FilePolarity,Positive*%
%FSLAX45Y45*%
G04 Gerber Fmt 4.5, Leading zero omitted, Abs format (unit mm)*
G04 Created by KiCad (PCBNEW 9.0.0) date 2025-04-09 23:47:23*
%MOMM*%
%LPD*%
G01*
G04 APERTURE LIST*
%ADD10C,0.050000*%
%ADD11C,0.200000*%
G04 APERTURE END LIST*
D10*
X2984500Y-1905000D02*
X2984500Y-7048500D01*
X2921000Y-7112000D01*
X1651000Y-7112000D01*
X1587500Y-7048500D01*
X1587500Y-1905000D01*
X1778000Y-1714500D01*
X2794000Y-1714500D01*
X2984500Y-1905000D01*
D11*
X1845777Y-7425984D02*
X1845777Y-7225984D01*
X1845777Y-7225984D02*
X1893396Y-7225984D01*
X1893396Y-7225984D02*
X1921967Y-7235508D01*
X1921967Y-7235508D02*
X1941015Y-7254555D01*
X1941015Y-7254555D02*
X1950539Y-7273603D01*
X1950539Y-7273603D02*
X1960062Y-7311698D01*
X1960062Y-7311698D02*
X1960062Y-7340269D01*
X1960062Y-7340269D02*
X1950539Y-7378365D01*
X1950539Y-7378365D02*
X1941015Y-7397412D01*
X1941015Y-7397412D02*
X1921967Y-7416460D01*
X1921967Y-7416460D02*
X1893396Y-7425984D01*
X1893396Y-7425984D02*
X1845777Y-7425984D01*
X2045777Y-7425984D02*
X2045777Y-7292650D01*
X2045777Y-7330746D02*
X2055301Y-7311698D01*
X2055301Y-7311698D02*
X2064824Y-7302174D01*
X2064824Y-7302174D02*
X2083872Y-7292650D01*
X2083872Y-7292650D02*
X2102920Y-7292650D01*
X2169586Y-7425984D02*
X2169586Y-7292650D01*
X2169586Y-7225984D02*
X2160063Y-7235508D01*
X2160063Y-7235508D02*
X2169586Y-7245031D01*
X2169586Y-7245031D02*
X2179110Y-7235508D01*
X2179110Y-7235508D02*
X2169586Y-7225984D01*
X2169586Y-7225984D02*
X2169586Y-7245031D01*
X2293396Y-7425984D02*
X2274348Y-7416460D01*
X2274348Y-7416460D02*
X2264824Y-7397412D01*
X2264824Y-7397412D02*
X2264824Y-7225984D01*
X2398158Y-7425984D02*
X2379110Y-7416460D01*
X2379110Y-7416460D02*
X2369586Y-7397412D01*
X2369586Y-7397412D02*
X2369586Y-7225984D01*
X2626729Y-7425984D02*
X2626729Y-7225984D01*
X2626729Y-7225984D02*
X2693396Y-7368841D01*
X2693396Y-7368841D02*
X2760063Y-7225984D01*
X2760063Y-7225984D02*
X2760063Y-7425984D01*
X2941015Y-7425984D02*
X2941015Y-7321222D01*
X2941015Y-7321222D02*
X2931491Y-7302174D01*
X2931491Y-7302174D02*
X2912443Y-7292650D01*
X2912443Y-7292650D02*
X2874348Y-7292650D01*
X2874348Y-7292650D02*
X2855301Y-7302174D01*
X2941015Y-7416460D02*
X2921967Y-7425984D01*
X2921967Y-7425984D02*
X2874348Y-7425984D01*
X2874348Y-7425984D02*
X2855301Y-7416460D01*
X2855301Y-7416460D02*
X2845777Y-7397412D01*
X2845777Y-7397412D02*
X2845777Y-7378365D01*
X2845777Y-7378365D02*
X2855301Y-7359317D01*
X2855301Y-7359317D02*
X2874348Y-7349793D01*
X2874348Y-7349793D02*
X2921967Y-7349793D01*
X2921967Y-7349793D02*
X2941015Y-7340269D01*
X3036253Y-7292650D02*
X3036253Y-7492650D01*
X3036253Y-7302174D02*
X3055301Y-7292650D01*
X3055301Y-7292650D02*
X3093396Y-7292650D01*
X3093396Y-7292650D02*
X3112443Y-7302174D01*
X3112443Y-7302174D02*
X3121967Y-7311698D01*
X3121967Y-7311698D02*
X3131491Y-7330746D01*
X3131491Y-7330746D02*
X3131491Y-7387888D01*
X3131491Y-7387888D02*
X3121967Y-7406936D01*
X3121967Y-7406936D02*
X3112443Y-7416460D01*
X3112443Y-7416460D02*
X3093396Y-7425984D01*
X3093396Y-7425984D02*
X3055301Y-7425984D01*
X3055301Y-7425984D02*
X3036253Y-7416460D01*
X3217205Y-7406936D02*
X3226729Y-7416460D01*
X3226729Y-7416460D02*
X3217205Y-7425984D01*
X3217205Y-7425984D02*
X3207682Y-7416460D01*
X3207682Y-7416460D02*
X3217205Y-7406936D01*
X3217205Y-7406936D02*
X3217205Y-7425984D01*
X3217205Y-7302174D02*
X3226729Y-7311698D01*
X3226729Y-7311698D02*
X3217205Y-7321222D01*
X3217205Y-7321222D02*
X3207682Y-7311698D01*
X3207682Y-7311698D02*
X3217205Y-7302174D01*
X3217205Y-7302174D02*
X3217205Y-7321222D01*
M02*
