%TF.GenerationSoftware,KiCad,Pcbnew,9.0.0*%
%TF.CreationDate,2025-04-09T23:46:37-07:00*%
%TF.ProjectId,RP2350_60QFN_minimal,52503233-3530-45f3-9630-51464e5f6d69,rev?*%
%TF.SameCoordinates,Original*%
%TF.FileFunction,Paste,Top*%
%TF.FilePolarity,Positive*%
%FSLAX46Y46*%
G04 Gerber Fmt 4.6, Leading zero omitted, Abs format (unit mm)*
G04 Created by KiCad (PCBNEW 9.0.0) date 2025-04-09 23:46:37*
%MOMM*%
%LPD*%
G01*
G04 APERTURE LIST*
G04 Aperture macros list*
%AMRoundRect*
0 Rectangle with rounded corners*
0 $1 Rounding radius*
0 $2 $3 $4 $5 $6 $7 $8 $9 X,Y pos of 4 corners*
0 Add a 4 corners polygon primitive as box body*
4,1,4,$2,$3,$4,$5,$6,$7,$8,$9,$2,$3,0*
0 Add four circle primitives for the rounded corners*
1,1,$1+$1,$2,$3*
1,1,$1+$1,$4,$5*
1,1,$1+$1,$6,$7*
1,1,$1+$1,$8,$9*
0 Add four rect primitives between the rounded corners*
20,1,$1+$1,$2,$3,$4,$5,0*
20,1,$1+$1,$4,$5,$6,$7,0*
20,1,$1+$1,$6,$7,$8,$9,0*
20,1,$1+$1,$8,$9,$2,$3,0*%
%AMFreePoly0*
4,1,18,-0.437500,0.050000,-0.433694,0.069134,-0.422855,0.085355,-0.406634,0.096194,-0.387500,0.100000,0.387500,0.100000,0.437500,0.050000,0.437500,-0.050000,0.433694,-0.069134,0.422855,-0.085355,0.406634,-0.096194,0.387500,-0.100000,-0.387500,-0.100000,-0.406634,-0.096194,-0.422855,-0.085355,-0.433694,-0.069134,-0.437500,-0.050000,-0.437500,0.050000,-0.437500,0.050000,$1*%
%AMFreePoly1*
4,1,18,-0.437500,0.050000,-0.433694,0.069134,-0.422855,0.085355,-0.406634,0.096194,-0.387500,0.100000,0.387500,0.100000,0.406634,0.096194,0.422855,0.085355,0.433694,0.069134,0.437500,0.050000,0.437500,-0.050000,0.387500,-0.100000,-0.387500,-0.100000,-0.406634,-0.096194,-0.422855,-0.085355,-0.433694,-0.069134,-0.437500,-0.050000,-0.437500,0.050000,-0.437500,0.050000,$1*%
%AMFreePoly2*
4,1,18,-0.100000,0.387500,-0.050000,0.437500,0.050000,0.437500,0.069134,0.433694,0.085355,0.422855,0.096194,0.406634,0.100000,0.387500,0.100000,-0.387500,0.096194,-0.406634,0.085355,-0.422855,0.069134,-0.433694,0.050000,-0.437500,-0.050000,-0.437500,-0.069134,-0.433694,-0.085355,-0.422855,-0.096194,-0.406634,-0.100000,-0.387500,-0.100000,0.387500,-0.100000,0.387500,$1*%
%AMFreePoly3*
4,1,18,-0.100000,0.387500,-0.096194,0.406634,-0.085355,0.422855,-0.069134,0.433694,-0.050000,0.437500,0.050000,0.437500,0.100000,0.387500,0.100000,-0.387500,0.096194,-0.406634,0.085355,-0.422855,0.069134,-0.433694,0.050000,-0.437500,-0.050000,-0.437500,-0.069134,-0.433694,-0.085355,-0.422855,-0.096194,-0.406634,-0.100000,-0.387500,-0.100000,0.387500,-0.100000,0.387500,$1*%
%AMFreePoly4*
4,1,18,-0.437500,0.050000,-0.433694,0.069134,-0.422855,0.085355,-0.406634,0.096194,-0.387500,0.100000,0.387500,0.100000,0.406634,0.096194,0.422855,0.085355,0.433694,0.069134,0.437500,0.050000,0.437500,-0.050000,0.433694,-0.069134,0.422855,-0.085355,0.406634,-0.096194,0.387500,-0.100000,-0.387500,-0.100000,-0.437500,-0.050000,-0.437500,0.050000,-0.437500,0.050000,$1*%
%AMFreePoly5*
4,1,18,-0.437500,0.050000,-0.387500,0.100000,0.387500,0.100000,0.406634,0.096194,0.422855,0.085355,0.433694,0.069134,0.437500,0.050000,0.437500,-0.050000,0.433694,-0.069134,0.422855,-0.085355,0.406634,-0.096194,0.387500,-0.100000,-0.387500,-0.100000,-0.406634,-0.096194,-0.422855,-0.085355,-0.433694,-0.069134,-0.437500,-0.050000,-0.437500,0.050000,-0.437500,0.050000,$1*%
%AMFreePoly6*
4,1,18,-0.100000,0.387500,-0.096194,0.406634,-0.085355,0.422855,-0.069134,0.433694,-0.050000,0.437500,0.050000,0.437500,0.069134,0.433694,0.085355,0.422855,0.096194,0.406634,0.100000,0.387500,0.100000,-0.387500,0.050000,-0.437500,-0.050000,-0.437500,-0.069134,-0.433694,-0.085355,-0.422855,-0.096194,-0.406634,-0.100000,-0.387500,-0.100000,0.387500,-0.100000,0.387500,$1*%
%AMFreePoly7*
4,1,18,-0.100000,0.387500,-0.096194,0.406634,-0.085355,0.422855,-0.069134,0.433694,-0.050000,0.437500,0.050000,0.437500,0.069134,0.433694,0.085355,0.422855,0.096194,0.406634,0.100000,0.387500,0.100000,-0.387500,0.096194,-0.406634,0.085355,-0.422855,0.069134,-0.433694,0.050000,-0.437500,-0.050000,-0.437500,-0.100000,-0.387500,-0.100000,0.387500,-0.100000,0.387500,$1*%
G04 Aperture macros list end*
%ADD10R,0.530000X0.470000*%
%ADD11RoundRect,0.140000X-0.170000X0.140000X-0.170000X-0.140000X0.170000X-0.140000X0.170000X0.140000X0*%
%ADD12RoundRect,0.135000X0.135000X0.185000X-0.135000X0.185000X-0.135000X-0.185000X0.135000X-0.185000X0*%
%ADD13R,0.599999X1.100000*%
%ADD14RoundRect,0.162500X0.162500X-0.650000X0.162500X0.650000X-0.162500X0.650000X-0.162500X-0.650000X0*%
%ADD15RoundRect,0.150000X0.625000X-0.150000X0.625000X0.150000X-0.625000X0.150000X-0.625000X-0.150000X0*%
%ADD16RoundRect,0.250000X0.650000X-0.350000X0.650000X0.350000X-0.650000X0.350000X-0.650000X-0.350000X0*%
%ADD17RoundRect,0.140000X0.170000X-0.140000X0.170000X0.140000X-0.170000X0.140000X-0.170000X-0.140000X0*%
%ADD18R,1.200000X1.400000*%
%ADD19R,0.470000X0.530000*%
%ADD20R,0.700000X1.700000*%
%ADD21RoundRect,0.140000X-0.140000X-0.170000X0.140000X-0.170000X0.140000X0.170000X-0.140000X0.170000X0*%
%ADD22RoundRect,0.135000X0.185000X-0.135000X0.185000X0.135000X-0.185000X0.135000X-0.185000X-0.135000X0*%
%ADD23RoundRect,0.250000X-0.650000X0.325000X-0.650000X-0.325000X0.650000X-0.325000X0.650000X0.325000X0*%
%ADD24RoundRect,0.140000X0.140000X0.170000X-0.140000X0.170000X-0.140000X-0.170000X0.140000X-0.170000X0*%
%ADD25RoundRect,0.250000X-0.350000X-0.350000X0.350000X-0.350000X0.350000X0.350000X-0.350000X0.350000X0*%
%ADD26FreePoly0,0.000000*%
%ADD27RoundRect,0.050000X-0.387500X-0.050000X0.387500X-0.050000X0.387500X0.050000X-0.387500X0.050000X0*%
%ADD28FreePoly1,0.000000*%
%ADD29FreePoly2,0.000000*%
%ADD30RoundRect,0.050000X-0.050000X-0.387500X0.050000X-0.387500X0.050000X0.387500X-0.050000X0.387500X0*%
%ADD31FreePoly3,0.000000*%
%ADD32FreePoly4,0.000000*%
%ADD33FreePoly5,0.000000*%
%ADD34FreePoly6,0.000000*%
%ADD35FreePoly7,0.000000*%
%ADD36RoundRect,0.135000X-0.185000X0.135000X-0.185000X-0.135000X0.185000X-0.135000X0.185000X0.135000X0*%
%ADD37RoundRect,0.135000X-0.135000X-0.185000X0.135000X-0.185000X0.135000X0.185000X-0.135000X0.185000X0*%
%ADD38R,0.650000X1.050000*%
%ADD39RoundRect,0.150000X-0.825000X-0.150000X0.825000X-0.150000X0.825000X0.150000X-0.825000X0.150000X0*%
G04 APERTURE END LIST*
D10*
%TO.C,C18*%
X20701000Y-50666000D03*
X20701000Y-51696000D03*
%TD*%
D11*
%TO.C,C2*%
X19050000Y-53749000D03*
X19050000Y-54709000D03*
%TD*%
D12*
%TO.C,R5*%
X26545000Y-40640000D03*
X25525000Y-40640000D03*
%TD*%
D13*
%TO.C,U2*%
X26227999Y-36733000D03*
X27178000Y-36733000D03*
X28128001Y-36733000D03*
X28128001Y-34133000D03*
X27178000Y-34133000D03*
X26227999Y-34133000D03*
%TD*%
D14*
%TO.C,U1*%
X17399000Y-40925500D03*
X18669000Y-40925500D03*
X19939000Y-40925500D03*
X21209000Y-40925500D03*
X21209000Y-33750500D03*
X19939000Y-33750500D03*
X18669000Y-33750500D03*
X17399000Y-33750500D03*
%TD*%
D15*
%TO.C,J3*%
X24924000Y-55864000D03*
X24924000Y-54864000D03*
X24924000Y-53864000D03*
D16*
X28799000Y-57164000D03*
X28799000Y-52564000D03*
%TD*%
D17*
%TO.C,C13*%
X22606000Y-41501000D03*
X22606000Y-40541000D03*
%TD*%
D18*
%TO.C,Y1*%
X20232000Y-53129000D03*
X20232000Y-55329000D03*
X21932000Y-55329000D03*
X21932000Y-53129000D03*
%TD*%
D19*
%TO.C,C7*%
X23742000Y-40640000D03*
X24772000Y-40640000D03*
%TD*%
D10*
%TO.C,C15*%
X25753000Y-50666000D03*
X25753000Y-51696000D03*
%TD*%
D20*
%TO.C,L2*%
X23557000Y-39116000D03*
X24957000Y-39116000D03*
%TD*%
D21*
%TO.C,C20*%
X24920000Y-61722000D03*
X25880000Y-61722000D03*
%TD*%
D17*
%TO.C,C4*%
X17399000Y-32230000D03*
X17399000Y-31270000D03*
%TD*%
D10*
%TO.C,C11*%
X22225000Y-50666000D03*
X22225000Y-51696000D03*
%TD*%
D22*
%TO.C,R4*%
X28702000Y-45214000D03*
X28702000Y-44194000D03*
%TD*%
D11*
%TO.C,C6*%
X22733000Y-34953000D03*
X22733000Y-35913000D03*
%TD*%
%TO.C,C19*%
X27432000Y-40541000D03*
X27432000Y-41501000D03*
%TD*%
D23*
%TO.C,C1*%
X24384000Y-33958000D03*
X24384000Y-36908000D03*
%TD*%
D21*
%TO.C,C9*%
X26952000Y-44196000D03*
X27912000Y-44196000D03*
%TD*%
D24*
%TO.C,C12*%
X17625000Y-45339000D03*
X16665000Y-45339000D03*
%TD*%
D25*
%TO.C,U3*%
X21525000Y-45401000D03*
X21525000Y-46801000D03*
X22925000Y-45401000D03*
X22925000Y-46801000D03*
D26*
X18787500Y-43301000D03*
D27*
X18787500Y-43701000D03*
X18787500Y-44101000D03*
X18787500Y-44501000D03*
X18787500Y-44901000D03*
X18787500Y-45301000D03*
X18787500Y-45701000D03*
X18787500Y-46101000D03*
X18787500Y-46501000D03*
X18787500Y-46901000D03*
X18787500Y-47301000D03*
X18787500Y-47701000D03*
X18787500Y-48101000D03*
X18787500Y-48501000D03*
D28*
X18787500Y-48901000D03*
D29*
X19425000Y-49538500D03*
D30*
X19825000Y-49538500D03*
X20225000Y-49538500D03*
X20625000Y-49538500D03*
X21025000Y-49538500D03*
X21425000Y-49538500D03*
X21825000Y-49538500D03*
X22225000Y-49538500D03*
X22625000Y-49538500D03*
X23025000Y-49538500D03*
X23425000Y-49538500D03*
X23825000Y-49538500D03*
X24225000Y-49538500D03*
X24625000Y-49538500D03*
D31*
X25025000Y-49538500D03*
D32*
X25662500Y-48901000D03*
D27*
X25662500Y-48501000D03*
X25662500Y-48101000D03*
X25662500Y-47701000D03*
X25662500Y-47301000D03*
X25662500Y-46901000D03*
X25662500Y-46501000D03*
X25662500Y-46101000D03*
X25662500Y-45701000D03*
X25662500Y-45301000D03*
X25662500Y-44901000D03*
X25662500Y-44501000D03*
X25662500Y-44101000D03*
X25662500Y-43701000D03*
D33*
X25662500Y-43301000D03*
D34*
X25025000Y-42663500D03*
D30*
X24625000Y-42663500D03*
X24225000Y-42663500D03*
X23825000Y-42663500D03*
X23425000Y-42663500D03*
X23025000Y-42663500D03*
X22625000Y-42663500D03*
X22225000Y-42663500D03*
X21825000Y-42663500D03*
X21425000Y-42663500D03*
X21025000Y-42663500D03*
X20625000Y-42663500D03*
X20225000Y-42663500D03*
X19825000Y-42663500D03*
D35*
X19425000Y-42663500D03*
%TD*%
D19*
%TO.C,C5*%
X23742000Y-41529000D03*
X24772000Y-41529000D03*
%TD*%
D36*
%TO.C,R3*%
X23241000Y-51687000D03*
X23241000Y-52707000D03*
%TD*%
D11*
%TO.C,C16*%
X17653000Y-42954000D03*
X17653000Y-43914000D03*
%TD*%
D20*
%TO.C,L1*%
X26732000Y-38862000D03*
X28132000Y-38862000D03*
%TD*%
D19*
%TO.C,C17*%
X17660000Y-47117000D03*
X16630000Y-47117000D03*
%TD*%
D37*
%TO.C,R2*%
X26922000Y-43307000D03*
X27942000Y-43307000D03*
%TD*%
D38*
%TO.C,SW1*%
X29142000Y-46609000D03*
X29142000Y-50759000D03*
X26992000Y-46609000D03*
X26992000Y-50734000D03*
%TD*%
D11*
%TO.C,C3*%
X23241000Y-53594000D03*
X23241000Y-54554000D03*
%TD*%
D21*
%TO.C,C14*%
X26952000Y-45085000D03*
X27912000Y-45085000D03*
%TD*%
D36*
%TO.C,R7*%
X23749000Y-58672000D03*
X23749000Y-59692000D03*
%TD*%
D19*
%TO.C,C10*%
X25520000Y-41529000D03*
X26550000Y-41529000D03*
%TD*%
D39*
%TO.C,U4*%
X17083000Y-57277000D03*
X17083000Y-58547000D03*
X17083000Y-59817000D03*
X17083000Y-61087000D03*
X22033000Y-61087000D03*
X22033000Y-59817000D03*
X22033000Y-58547000D03*
X22033000Y-57277000D03*
%TD*%
D12*
%TO.C,R1*%
X27942000Y-42418000D03*
X26922000Y-42418000D03*
%TD*%
%TO.C,R6*%
X17655000Y-46228000D03*
X16635000Y-46228000D03*
%TD*%
D11*
%TO.C,C8*%
X28321000Y-40541000D03*
X28321000Y-41501000D03*
%TD*%
M02*
