M48
; DRILL file {KiCad 9.0.0} date 2025-04-09T23:47:23-0700
; FORMAT={-:-/ absolute / metric / decimal}
; #@! TF.CreationDate,2025-04-09T23:47:23-07:00
; #@! TF.GenerationSoftware,Kicad,Pcbnew,9.0.0
; #@! TF.FileFunction,Plated,1,2,PTH
FMAT,2
METRIC
; #@! TA.AperFunction,Plated,PTH,ViaDrill
T1C0.254
; #@! TA.AperFunction,Plated,PTH,ComponentDrill
T2C0.254
; #@! TA.AperFunction,Plated,PTH,ComponentDrill
T3C0.950
; #@! TA.AperFunction,Plated,PTH,ComponentDrill
T4C1.000
; #@! TA.AperFunction,Plated,PTH,ComponentDrill
T5C1.900
%
G90
G05
T1
X16.51Y-56.509
X16.51Y-59.182
X17.145Y-49.403
X17.78Y-48.264
X18.034Y-45.301
X19.557Y-37.846
X19.558Y-38.608
X20.066Y-39.624
X20.066Y-45.339
X21.082Y-43.434
X21.209Y-37.846
X21.209Y-39.751
X21.717Y-38.608
X22.225Y-48.26
X22.225Y-50.419
X22.606Y-39.37
X23.241Y-55.372
X23.368Y-36.703
X23.742Y-40.132
X23.749Y-43.942
X24.13Y-61.976
X24.384Y-44.45
X24.765Y-40.37
X25.309Y-35.052
X26.162Y-37.846
X26.511Y-44.45
X26.67Y-61.976
X26.924Y-54.864
X27.178Y-37.465
X28.702Y-41.783
X28.702Y-43.307
T2
X20.85Y-44.726
X20.85Y-46.101
X20.85Y-47.476
X22.225Y-44.726
X22.225Y-46.101
X22.225Y-47.476
X23.6Y-44.726
X23.6Y-46.101
X23.6Y-47.476
T3
X19.11Y-64.142
X21.61Y-64.142
X24.11Y-64.142
X26.61Y-64.142
T4
X17.4Y-20.48
X28.4Y-20.48
T5
X20.4Y-30.48
X25.4Y-30.48
M30
