%TF.GenerationSoftware,KiCad,Pcbnew,9.0.0*%
%TF.CreationDate,2025-04-09T23:47:23-07:00*%
%TF.ProjectId,RP2350_60QFN_minimal,52503233-3530-45f3-9630-51464e5f6d69,rev?*%
%TF.SameCoordinates,Original*%
%TF.FileFunction,Drillmap*%
%TF.FilePolarity,Positive*%
%FSLAX45Y45*%
G04 Gerber Fmt 4.5, Leading zero omitted, Abs format (unit mm)*
G04 Created by KiCad (PCBNEW 9.0.0) date 2025-04-09 23:47:23*
%MOMM*%
%LPD*%
G01*
G04 APERTURE LIST*
%ADD10C,0.050000*%
%ADD11C,0.200000*%
%ADD12C,0.100000*%
%ADD13C,0.190000*%
G04 APERTURE END LIST*
D10*
X2984500Y-1905000D02*
X2984500Y-7048500D01*
X2921000Y-7112000D01*
X1651000Y-7112000D01*
X1587500Y-7048500D01*
X1587500Y-1905000D01*
X1778000Y-1714500D01*
X2794000Y-1714500D01*
X2984500Y-1905000D01*
D11*
D12*
X1638300Y-5638250D02*
X1663700Y-5663650D01*
X1663700Y-5638250D02*
X1638300Y-5663650D01*
X1638300Y-5905500D02*
X1663700Y-5930900D01*
X1663700Y-5905500D02*
X1638300Y-5930900D01*
X1701800Y-4927600D02*
X1727200Y-4953000D01*
X1727200Y-4927600D02*
X1701800Y-4953000D01*
X1765300Y-4813675D02*
X1790700Y-4839075D01*
X1790700Y-4813675D02*
X1765300Y-4839075D01*
X1790700Y-4517400D02*
X1816100Y-4542800D01*
X1816100Y-4517400D02*
X1790700Y-4542800D01*
X1943042Y-3771900D02*
X1968442Y-3797300D01*
X1968442Y-3771900D02*
X1943042Y-3797300D01*
X1943100Y-3848100D02*
X1968500Y-3873500D01*
X1968500Y-3848100D02*
X1943100Y-3873500D01*
X1993900Y-3949700D02*
X2019300Y-3975100D01*
X2019300Y-3949700D02*
X1993900Y-3975100D01*
X1993900Y-4521200D02*
X2019300Y-4546600D01*
X2019300Y-4521200D02*
X1993900Y-4546600D01*
X2095500Y-4330700D02*
X2120900Y-4356100D01*
X2120900Y-4330700D02*
X2095500Y-4356100D01*
X2108200Y-3771900D02*
X2133600Y-3797300D01*
X2133600Y-3771900D02*
X2108200Y-3797300D01*
X2108200Y-3962400D02*
X2133600Y-3987800D01*
X2133600Y-3962400D02*
X2108200Y-3987800D01*
X2159000Y-3848100D02*
X2184400Y-3873500D01*
X2184400Y-3848100D02*
X2159000Y-3873500D01*
X2209800Y-4813300D02*
X2235200Y-4838700D01*
X2235200Y-4813300D02*
X2209800Y-4838700D01*
X2209800Y-5029200D02*
X2235200Y-5054600D01*
X2235200Y-5029200D02*
X2209800Y-5054600D01*
X2247900Y-3924300D02*
X2273300Y-3949700D01*
X2273300Y-3924300D02*
X2247900Y-3949700D01*
X2311400Y-5524500D02*
X2336800Y-5549900D01*
X2336800Y-5524500D02*
X2311400Y-5549900D01*
X2324100Y-3657600D02*
X2349500Y-3683000D01*
X2349500Y-3657600D02*
X2324100Y-3683000D01*
X2361500Y-4000500D02*
X2386900Y-4025900D01*
X2386900Y-4000500D02*
X2361500Y-4025900D01*
X2362200Y-4381500D02*
X2387600Y-4406900D01*
X2387600Y-4381500D02*
X2362200Y-4406900D01*
X2400300Y-6184900D02*
X2425700Y-6210300D01*
X2425700Y-6184900D02*
X2400300Y-6210300D01*
X2425700Y-4432300D02*
X2451100Y-4457700D01*
X2451100Y-4432300D02*
X2425700Y-4457700D01*
X2463800Y-4024300D02*
X2489200Y-4049700D01*
X2489200Y-4024300D02*
X2463800Y-4049700D01*
X2518200Y-3492500D02*
X2543600Y-3517900D01*
X2543600Y-3492500D02*
X2518200Y-3517900D01*
X2603500Y-3771900D02*
X2628900Y-3797300D01*
X2628900Y-3771900D02*
X2603500Y-3797300D01*
X2638425Y-4432300D02*
X2663825Y-4457700D01*
X2663825Y-4432300D02*
X2638425Y-4457700D01*
X2654300Y-6184900D02*
X2679700Y-6210300D01*
X2679700Y-6184900D02*
X2654300Y-6210300D01*
X2679700Y-5473700D02*
X2705100Y-5499100D01*
X2705100Y-5473700D02*
X2679700Y-5499100D01*
X2705100Y-3733800D02*
X2730500Y-3759200D01*
X2730500Y-3733800D02*
X2705100Y-3759200D01*
X2857500Y-4165600D02*
X2882900Y-4191000D01*
X2882900Y-4165600D02*
X2857500Y-4191000D01*
X2857500Y-4318000D02*
X2882900Y-4343400D01*
X2882900Y-4318000D02*
X2857500Y-4343400D01*
X2097700Y-4472600D02*
G75*
G02*
X2072300Y-4472600I-12700J0D01*
G01*
X2072300Y-4472600D02*
G75*
G02*
X2097700Y-4472600I12700J0D01*
G01*
X2097700Y-4610100D02*
G75*
G02*
X2072300Y-4610100I-12700J0D01*
G01*
X2072300Y-4610100D02*
G75*
G02*
X2097700Y-4610100I12700J0D01*
G01*
X2097700Y-4747600D02*
G75*
G02*
X2072300Y-4747600I-12700J0D01*
G01*
X2072300Y-4747600D02*
G75*
G02*
X2097700Y-4747600I12700J0D01*
G01*
X2235200Y-4472600D02*
G75*
G02*
X2209800Y-4472600I-12700J0D01*
G01*
X2209800Y-4472600D02*
G75*
G02*
X2235200Y-4472600I12700J0D01*
G01*
X2235200Y-4610100D02*
G75*
G02*
X2209800Y-4610100I-12700J0D01*
G01*
X2209800Y-4610100D02*
G75*
G02*
X2235200Y-4610100I12700J0D01*
G01*
X2235200Y-4747600D02*
G75*
G02*
X2209800Y-4747600I-12700J0D01*
G01*
X2209800Y-4747600D02*
G75*
G02*
X2235200Y-4747600I12700J0D01*
G01*
X2372700Y-4472600D02*
G75*
G02*
X2347300Y-4472600I-12700J0D01*
G01*
X2347300Y-4472600D02*
G75*
G02*
X2372700Y-4472600I12700J0D01*
G01*
X2372700Y-4610100D02*
G75*
G02*
X2347300Y-4610100I-12700J0D01*
G01*
X2347300Y-4610100D02*
G75*
G02*
X2372700Y-4610100I12700J0D01*
G01*
X2372700Y-4747600D02*
G75*
G02*
X2347300Y-4747600I-12700J0D01*
G01*
X2347300Y-4747600D02*
G75*
G02*
X2372700Y-4747600I12700J0D01*
G01*
X1911000Y-6366750D02*
X1911000Y-6461750D01*
X1863500Y-6414250D02*
X1958500Y-6414250D01*
X2161000Y-6366750D02*
X2161000Y-6461750D01*
X2113500Y-6414250D02*
X2208500Y-6414250D01*
X2411000Y-6366750D02*
X2411000Y-6461750D01*
X2363500Y-6414250D02*
X2458500Y-6414250D01*
X2661000Y-6366750D02*
X2661000Y-6461750D01*
X2613500Y-6414250D02*
X2708500Y-6414250D01*
X1775356Y-2083356D02*
X1775356Y-2012644D01*
X1704644Y-2012644D01*
X1704644Y-2083356D01*
X1775356Y-2083356D01*
X2875356Y-2083356D02*
X2875356Y-2012644D01*
X2804644Y-2012644D01*
X2804644Y-2083356D01*
X2875356Y-2083356D01*
D13*
X2040000Y-3143000D02*
X2135000Y-3048000D01*
X2040000Y-2953000D01*
X1945000Y-3048000D01*
X2040000Y-3143000D01*
X2540000Y-3143000D02*
X2635000Y-3048000D01*
X2540000Y-2953000D01*
X2445000Y-3048000D01*
X2540000Y-3143000D01*
D11*
X1845777Y-7425984D02*
X1845777Y-7225984D01*
X1845777Y-7225984D02*
X1893396Y-7225984D01*
X1893396Y-7225984D02*
X1921967Y-7235508D01*
X1921967Y-7235508D02*
X1941015Y-7254555D01*
X1941015Y-7254555D02*
X1950539Y-7273603D01*
X1950539Y-7273603D02*
X1960062Y-7311698D01*
X1960062Y-7311698D02*
X1960062Y-7340269D01*
X1960062Y-7340269D02*
X1950539Y-7378365D01*
X1950539Y-7378365D02*
X1941015Y-7397412D01*
X1941015Y-7397412D02*
X1921967Y-7416460D01*
X1921967Y-7416460D02*
X1893396Y-7425984D01*
X1893396Y-7425984D02*
X1845777Y-7425984D01*
X2045777Y-7425984D02*
X2045777Y-7292650D01*
X2045777Y-7330746D02*
X2055301Y-7311698D01*
X2055301Y-7311698D02*
X2064824Y-7302174D01*
X2064824Y-7302174D02*
X2083872Y-7292650D01*
X2083872Y-7292650D02*
X2102920Y-7292650D01*
X2169586Y-7425984D02*
X2169586Y-7292650D01*
X2169586Y-7225984D02*
X2160063Y-7235508D01*
X2160063Y-7235508D02*
X2169586Y-7245031D01*
X2169586Y-7245031D02*
X2179110Y-7235508D01*
X2179110Y-7235508D02*
X2169586Y-7225984D01*
X2169586Y-7225984D02*
X2169586Y-7245031D01*
X2293396Y-7425984D02*
X2274348Y-7416460D01*
X2274348Y-7416460D02*
X2264824Y-7397412D01*
X2264824Y-7397412D02*
X2264824Y-7225984D01*
X2398158Y-7425984D02*
X2379110Y-7416460D01*
X2379110Y-7416460D02*
X2369586Y-7397412D01*
X2369586Y-7397412D02*
X2369586Y-7225984D01*
X2626729Y-7425984D02*
X2626729Y-7225984D01*
X2626729Y-7225984D02*
X2693396Y-7368841D01*
X2693396Y-7368841D02*
X2760063Y-7225984D01*
X2760063Y-7225984D02*
X2760063Y-7425984D01*
X2941015Y-7425984D02*
X2941015Y-7321222D01*
X2941015Y-7321222D02*
X2931491Y-7302174D01*
X2931491Y-7302174D02*
X2912443Y-7292650D01*
X2912443Y-7292650D02*
X2874348Y-7292650D01*
X2874348Y-7292650D02*
X2855301Y-7302174D01*
X2941015Y-7416460D02*
X2921967Y-7425984D01*
X2921967Y-7425984D02*
X2874348Y-7425984D01*
X2874348Y-7425984D02*
X2855301Y-7416460D01*
X2855301Y-7416460D02*
X2845777Y-7397412D01*
X2845777Y-7397412D02*
X2845777Y-7378365D01*
X2845777Y-7378365D02*
X2855301Y-7359317D01*
X2855301Y-7359317D02*
X2874348Y-7349793D01*
X2874348Y-7349793D02*
X2921967Y-7349793D01*
X2921967Y-7349793D02*
X2941015Y-7340269D01*
X3036253Y-7292650D02*
X3036253Y-7492650D01*
X3036253Y-7302174D02*
X3055301Y-7292650D01*
X3055301Y-7292650D02*
X3093396Y-7292650D01*
X3093396Y-7292650D02*
X3112443Y-7302174D01*
X3112443Y-7302174D02*
X3121967Y-7311698D01*
X3121967Y-7311698D02*
X3131491Y-7330746D01*
X3131491Y-7330746D02*
X3131491Y-7387888D01*
X3131491Y-7387888D02*
X3121967Y-7406936D01*
X3121967Y-7406936D02*
X3112443Y-7416460D01*
X3112443Y-7416460D02*
X3093396Y-7425984D01*
X3093396Y-7425984D02*
X3055301Y-7425984D01*
X3055301Y-7425984D02*
X3036253Y-7416460D01*
X3217205Y-7406936D02*
X3226729Y-7416460D01*
X3226729Y-7416460D02*
X3217205Y-7425984D01*
X3217205Y-7425984D02*
X3207682Y-7416460D01*
X3207682Y-7416460D02*
X3217205Y-7406936D01*
X3217205Y-7406936D02*
X3217205Y-7425984D01*
X3217205Y-7302174D02*
X3226729Y-7311698D01*
X3226729Y-7311698D02*
X3217205Y-7321222D01*
X3217205Y-7321222D02*
X3207682Y-7311698D01*
X3207682Y-7311698D02*
X3217205Y-7302174D01*
X3217205Y-7302174D02*
X3217205Y-7321222D01*
D12*
X1559600Y-7741800D02*
X1585000Y-7767200D01*
X1585000Y-7741800D02*
X1559600Y-7767200D01*
D11*
X1883872Y-7645984D02*
X1902920Y-7645984D01*
X1902920Y-7645984D02*
X1921967Y-7655508D01*
X1921967Y-7655508D02*
X1931491Y-7665031D01*
X1931491Y-7665031D02*
X1941015Y-7684079D01*
X1941015Y-7684079D02*
X1950539Y-7722174D01*
X1950539Y-7722174D02*
X1950539Y-7769793D01*
X1950539Y-7769793D02*
X1941015Y-7807888D01*
X1941015Y-7807888D02*
X1931491Y-7826936D01*
X1931491Y-7826936D02*
X1921967Y-7836460D01*
X1921967Y-7836460D02*
X1902920Y-7845984D01*
X1902920Y-7845984D02*
X1883872Y-7845984D01*
X1883872Y-7845984D02*
X1864824Y-7836460D01*
X1864824Y-7836460D02*
X1855301Y-7826936D01*
X1855301Y-7826936D02*
X1845777Y-7807888D01*
X1845777Y-7807888D02*
X1836253Y-7769793D01*
X1836253Y-7769793D02*
X1836253Y-7722174D01*
X1836253Y-7722174D02*
X1845777Y-7684079D01*
X1845777Y-7684079D02*
X1855301Y-7665031D01*
X1855301Y-7665031D02*
X1864824Y-7655508D01*
X1864824Y-7655508D02*
X1883872Y-7645984D01*
X2036253Y-7826936D02*
X2045777Y-7836460D01*
X2045777Y-7836460D02*
X2036253Y-7845984D01*
X2036253Y-7845984D02*
X2026729Y-7836460D01*
X2026729Y-7836460D02*
X2036253Y-7826936D01*
X2036253Y-7826936D02*
X2036253Y-7845984D01*
X2121967Y-7665031D02*
X2131491Y-7655508D01*
X2131491Y-7655508D02*
X2150539Y-7645984D01*
X2150539Y-7645984D02*
X2198158Y-7645984D01*
X2198158Y-7645984D02*
X2217205Y-7655508D01*
X2217205Y-7655508D02*
X2226729Y-7665031D01*
X2226729Y-7665031D02*
X2236253Y-7684079D01*
X2236253Y-7684079D02*
X2236253Y-7703127D01*
X2236253Y-7703127D02*
X2226729Y-7731698D01*
X2226729Y-7731698D02*
X2112444Y-7845984D01*
X2112444Y-7845984D02*
X2236253Y-7845984D01*
X2417205Y-7645984D02*
X2321967Y-7645984D01*
X2321967Y-7645984D02*
X2312444Y-7741222D01*
X2312444Y-7741222D02*
X2321967Y-7731698D01*
X2321967Y-7731698D02*
X2341015Y-7722174D01*
X2341015Y-7722174D02*
X2388634Y-7722174D01*
X2388634Y-7722174D02*
X2407682Y-7731698D01*
X2407682Y-7731698D02*
X2417205Y-7741222D01*
X2417205Y-7741222D02*
X2426729Y-7760269D01*
X2426729Y-7760269D02*
X2426729Y-7807888D01*
X2426729Y-7807888D02*
X2417205Y-7826936D01*
X2417205Y-7826936D02*
X2407682Y-7836460D01*
X2407682Y-7836460D02*
X2388634Y-7845984D01*
X2388634Y-7845984D02*
X2341015Y-7845984D01*
X2341015Y-7845984D02*
X2321967Y-7836460D01*
X2321967Y-7836460D02*
X2312444Y-7826936D01*
X2598158Y-7712650D02*
X2598158Y-7845984D01*
X2550539Y-7636460D02*
X2502920Y-7779317D01*
X2502920Y-7779317D02*
X2626729Y-7779317D01*
X2702920Y-7845984D02*
X2702920Y-7712650D01*
X2702920Y-7731698D02*
X2712444Y-7722174D01*
X2712444Y-7722174D02*
X2731491Y-7712650D01*
X2731491Y-7712650D02*
X2760063Y-7712650D01*
X2760063Y-7712650D02*
X2779110Y-7722174D01*
X2779110Y-7722174D02*
X2788634Y-7741222D01*
X2788634Y-7741222D02*
X2788634Y-7845984D01*
X2788634Y-7741222D02*
X2798158Y-7722174D01*
X2798158Y-7722174D02*
X2817205Y-7712650D01*
X2817205Y-7712650D02*
X2845777Y-7712650D01*
X2845777Y-7712650D02*
X2864824Y-7722174D01*
X2864824Y-7722174D02*
X2874348Y-7741222D01*
X2874348Y-7741222D02*
X2874348Y-7845984D01*
X2969586Y-7845984D02*
X2969586Y-7712650D01*
X2969586Y-7731698D02*
X2979110Y-7722174D01*
X2979110Y-7722174D02*
X2998158Y-7712650D01*
X2998158Y-7712650D02*
X3026729Y-7712650D01*
X3026729Y-7712650D02*
X3045777Y-7722174D01*
X3045777Y-7722174D02*
X3055301Y-7741222D01*
X3055301Y-7741222D02*
X3055301Y-7845984D01*
X3055301Y-7741222D02*
X3064824Y-7722174D01*
X3064824Y-7722174D02*
X3083872Y-7712650D01*
X3083872Y-7712650D02*
X3112443Y-7712650D01*
X3112443Y-7712650D02*
X3131491Y-7722174D01*
X3131491Y-7722174D02*
X3141015Y-7741222D01*
X3141015Y-7741222D02*
X3141015Y-7845984D01*
X3531491Y-7636460D02*
X3360063Y-7893603D01*
X3788634Y-7645984D02*
X3807682Y-7645984D01*
X3807682Y-7645984D02*
X3826729Y-7655508D01*
X3826729Y-7655508D02*
X3836253Y-7665031D01*
X3836253Y-7665031D02*
X3845777Y-7684079D01*
X3845777Y-7684079D02*
X3855301Y-7722174D01*
X3855301Y-7722174D02*
X3855301Y-7769793D01*
X3855301Y-7769793D02*
X3845777Y-7807888D01*
X3845777Y-7807888D02*
X3836253Y-7826936D01*
X3836253Y-7826936D02*
X3826729Y-7836460D01*
X3826729Y-7836460D02*
X3807682Y-7845984D01*
X3807682Y-7845984D02*
X3788634Y-7845984D01*
X3788634Y-7845984D02*
X3769586Y-7836460D01*
X3769586Y-7836460D02*
X3760063Y-7826936D01*
X3760063Y-7826936D02*
X3750539Y-7807888D01*
X3750539Y-7807888D02*
X3741015Y-7769793D01*
X3741015Y-7769793D02*
X3741015Y-7722174D01*
X3741015Y-7722174D02*
X3750539Y-7684079D01*
X3750539Y-7684079D02*
X3760063Y-7665031D01*
X3760063Y-7665031D02*
X3769586Y-7655508D01*
X3769586Y-7655508D02*
X3788634Y-7645984D01*
X3941015Y-7826936D02*
X3950539Y-7836460D01*
X3950539Y-7836460D02*
X3941015Y-7845984D01*
X3941015Y-7845984D02*
X3931491Y-7836460D01*
X3931491Y-7836460D02*
X3941015Y-7826936D01*
X3941015Y-7826936D02*
X3941015Y-7845984D01*
X4074348Y-7645984D02*
X4093396Y-7645984D01*
X4093396Y-7645984D02*
X4112444Y-7655508D01*
X4112444Y-7655508D02*
X4121967Y-7665031D01*
X4121967Y-7665031D02*
X4131491Y-7684079D01*
X4131491Y-7684079D02*
X4141015Y-7722174D01*
X4141015Y-7722174D02*
X4141015Y-7769793D01*
X4141015Y-7769793D02*
X4131491Y-7807888D01*
X4131491Y-7807888D02*
X4121967Y-7826936D01*
X4121967Y-7826936D02*
X4112444Y-7836460D01*
X4112444Y-7836460D02*
X4093396Y-7845984D01*
X4093396Y-7845984D02*
X4074348Y-7845984D01*
X4074348Y-7845984D02*
X4055301Y-7836460D01*
X4055301Y-7836460D02*
X4045777Y-7826936D01*
X4045777Y-7826936D02*
X4036253Y-7807888D01*
X4036253Y-7807888D02*
X4026729Y-7769793D01*
X4026729Y-7769793D02*
X4026729Y-7722174D01*
X4026729Y-7722174D02*
X4036253Y-7684079D01*
X4036253Y-7684079D02*
X4045777Y-7665031D01*
X4045777Y-7665031D02*
X4055301Y-7655508D01*
X4055301Y-7655508D02*
X4074348Y-7645984D01*
X4331491Y-7845984D02*
X4217206Y-7845984D01*
X4274348Y-7845984D02*
X4274348Y-7645984D01*
X4274348Y-7645984D02*
X4255301Y-7674555D01*
X4255301Y-7674555D02*
X4236253Y-7693603D01*
X4236253Y-7693603D02*
X4217206Y-7703127D01*
X4455301Y-7645984D02*
X4474349Y-7645984D01*
X4474349Y-7645984D02*
X4493396Y-7655508D01*
X4493396Y-7655508D02*
X4502920Y-7665031D01*
X4502920Y-7665031D02*
X4512444Y-7684079D01*
X4512444Y-7684079D02*
X4521968Y-7722174D01*
X4521968Y-7722174D02*
X4521968Y-7769793D01*
X4521968Y-7769793D02*
X4512444Y-7807888D01*
X4512444Y-7807888D02*
X4502920Y-7826936D01*
X4502920Y-7826936D02*
X4493396Y-7836460D01*
X4493396Y-7836460D02*
X4474349Y-7845984D01*
X4474349Y-7845984D02*
X4455301Y-7845984D01*
X4455301Y-7845984D02*
X4436253Y-7836460D01*
X4436253Y-7836460D02*
X4426729Y-7826936D01*
X4426729Y-7826936D02*
X4417206Y-7807888D01*
X4417206Y-7807888D02*
X4407682Y-7769793D01*
X4407682Y-7769793D02*
X4407682Y-7722174D01*
X4407682Y-7722174D02*
X4417206Y-7684079D01*
X4417206Y-7684079D02*
X4426729Y-7665031D01*
X4426729Y-7665031D02*
X4436253Y-7655508D01*
X4436253Y-7655508D02*
X4455301Y-7645984D01*
X4645777Y-7645984D02*
X4664825Y-7645984D01*
X4664825Y-7645984D02*
X4683872Y-7655508D01*
X4683872Y-7655508D02*
X4693396Y-7665031D01*
X4693396Y-7665031D02*
X4702920Y-7684079D01*
X4702920Y-7684079D02*
X4712444Y-7722174D01*
X4712444Y-7722174D02*
X4712444Y-7769793D01*
X4712444Y-7769793D02*
X4702920Y-7807888D01*
X4702920Y-7807888D02*
X4693396Y-7826936D01*
X4693396Y-7826936D02*
X4683872Y-7836460D01*
X4683872Y-7836460D02*
X4664825Y-7845984D01*
X4664825Y-7845984D02*
X4645777Y-7845984D01*
X4645777Y-7845984D02*
X4626729Y-7836460D01*
X4626729Y-7836460D02*
X4617206Y-7826936D01*
X4617206Y-7826936D02*
X4607682Y-7807888D01*
X4607682Y-7807888D02*
X4598158Y-7769793D01*
X4598158Y-7769793D02*
X4598158Y-7722174D01*
X4598158Y-7722174D02*
X4607682Y-7684079D01*
X4607682Y-7684079D02*
X4617206Y-7665031D01*
X4617206Y-7665031D02*
X4626729Y-7655508D01*
X4626729Y-7655508D02*
X4645777Y-7645984D01*
X4788634Y-7645984D02*
X4788634Y-7684079D01*
X4864825Y-7645984D02*
X4864825Y-7684079D01*
X5160063Y-7922174D02*
X5150539Y-7912650D01*
X5150539Y-7912650D02*
X5131491Y-7884079D01*
X5131491Y-7884079D02*
X5121968Y-7865031D01*
X5121968Y-7865031D02*
X5112444Y-7836460D01*
X5112444Y-7836460D02*
X5102920Y-7788841D01*
X5102920Y-7788841D02*
X5102920Y-7750746D01*
X5102920Y-7750746D02*
X5112444Y-7703127D01*
X5112444Y-7703127D02*
X5121968Y-7674555D01*
X5121968Y-7674555D02*
X5131491Y-7655508D01*
X5131491Y-7655508D02*
X5150539Y-7626936D01*
X5150539Y-7626936D02*
X5160063Y-7617412D01*
X5217206Y-7645984D02*
X5341015Y-7645984D01*
X5341015Y-7645984D02*
X5274349Y-7722174D01*
X5274349Y-7722174D02*
X5302920Y-7722174D01*
X5302920Y-7722174D02*
X5321968Y-7731698D01*
X5321968Y-7731698D02*
X5331491Y-7741222D01*
X5331491Y-7741222D02*
X5341015Y-7760269D01*
X5341015Y-7760269D02*
X5341015Y-7807888D01*
X5341015Y-7807888D02*
X5331491Y-7826936D01*
X5331491Y-7826936D02*
X5321968Y-7836460D01*
X5321968Y-7836460D02*
X5302920Y-7845984D01*
X5302920Y-7845984D02*
X5245777Y-7845984D01*
X5245777Y-7845984D02*
X5226730Y-7836460D01*
X5226730Y-7836460D02*
X5217206Y-7826936D01*
X5531491Y-7845984D02*
X5417206Y-7845984D01*
X5474349Y-7845984D02*
X5474349Y-7645984D01*
X5474349Y-7645984D02*
X5455301Y-7674555D01*
X5455301Y-7674555D02*
X5436253Y-7693603D01*
X5436253Y-7693603D02*
X5417206Y-7703127D01*
X5769587Y-7845984D02*
X5769587Y-7645984D01*
X5855301Y-7845984D02*
X5855301Y-7741222D01*
X5855301Y-7741222D02*
X5845777Y-7722174D01*
X5845777Y-7722174D02*
X5826730Y-7712650D01*
X5826730Y-7712650D02*
X5798158Y-7712650D01*
X5798158Y-7712650D02*
X5779110Y-7722174D01*
X5779110Y-7722174D02*
X5769587Y-7731698D01*
X5979110Y-7845984D02*
X5960063Y-7836460D01*
X5960063Y-7836460D02*
X5950539Y-7826936D01*
X5950539Y-7826936D02*
X5941015Y-7807888D01*
X5941015Y-7807888D02*
X5941015Y-7750746D01*
X5941015Y-7750746D02*
X5950539Y-7731698D01*
X5950539Y-7731698D02*
X5960063Y-7722174D01*
X5960063Y-7722174D02*
X5979110Y-7712650D01*
X5979110Y-7712650D02*
X6007682Y-7712650D01*
X6007682Y-7712650D02*
X6026730Y-7722174D01*
X6026730Y-7722174D02*
X6036253Y-7731698D01*
X6036253Y-7731698D02*
X6045777Y-7750746D01*
X6045777Y-7750746D02*
X6045777Y-7807888D01*
X6045777Y-7807888D02*
X6036253Y-7826936D01*
X6036253Y-7826936D02*
X6026730Y-7836460D01*
X6026730Y-7836460D02*
X6007682Y-7845984D01*
X6007682Y-7845984D02*
X5979110Y-7845984D01*
X6160063Y-7845984D02*
X6141015Y-7836460D01*
X6141015Y-7836460D02*
X6131491Y-7817412D01*
X6131491Y-7817412D02*
X6131491Y-7645984D01*
X6312444Y-7836460D02*
X6293396Y-7845984D01*
X6293396Y-7845984D02*
X6255301Y-7845984D01*
X6255301Y-7845984D02*
X6236253Y-7836460D01*
X6236253Y-7836460D02*
X6226730Y-7817412D01*
X6226730Y-7817412D02*
X6226730Y-7741222D01*
X6226730Y-7741222D02*
X6236253Y-7722174D01*
X6236253Y-7722174D02*
X6255301Y-7712650D01*
X6255301Y-7712650D02*
X6293396Y-7712650D01*
X6293396Y-7712650D02*
X6312444Y-7722174D01*
X6312444Y-7722174D02*
X6321968Y-7741222D01*
X6321968Y-7741222D02*
X6321968Y-7760269D01*
X6321968Y-7760269D02*
X6226730Y-7779317D01*
X6398158Y-7836460D02*
X6417206Y-7845984D01*
X6417206Y-7845984D02*
X6455301Y-7845984D01*
X6455301Y-7845984D02*
X6474349Y-7836460D01*
X6474349Y-7836460D02*
X6483872Y-7817412D01*
X6483872Y-7817412D02*
X6483872Y-7807888D01*
X6483872Y-7807888D02*
X6474349Y-7788841D01*
X6474349Y-7788841D02*
X6455301Y-7779317D01*
X6455301Y-7779317D02*
X6426730Y-7779317D01*
X6426730Y-7779317D02*
X6407682Y-7769793D01*
X6407682Y-7769793D02*
X6398158Y-7750746D01*
X6398158Y-7750746D02*
X6398158Y-7741222D01*
X6398158Y-7741222D02*
X6407682Y-7722174D01*
X6407682Y-7722174D02*
X6426730Y-7712650D01*
X6426730Y-7712650D02*
X6455301Y-7712650D01*
X6455301Y-7712650D02*
X6474349Y-7722174D01*
X6550539Y-7922174D02*
X6560063Y-7912650D01*
X6560063Y-7912650D02*
X6579111Y-7884079D01*
X6579111Y-7884079D02*
X6588634Y-7865031D01*
X6588634Y-7865031D02*
X6598158Y-7836460D01*
X6598158Y-7836460D02*
X6607682Y-7788841D01*
X6607682Y-7788841D02*
X6607682Y-7750746D01*
X6607682Y-7750746D02*
X6598158Y-7703127D01*
X6598158Y-7703127D02*
X6588634Y-7674555D01*
X6588634Y-7674555D02*
X6579111Y-7655508D01*
X6579111Y-7655508D02*
X6560063Y-7626936D01*
X6560063Y-7626936D02*
X6550539Y-7617412D01*
D12*
X1585000Y-8018500D02*
G75*
G02*
X1559600Y-8018500I-12700J0D01*
G01*
X1559600Y-8018500D02*
G75*
G02*
X1585000Y-8018500I12700J0D01*
G01*
D11*
X1883872Y-7909984D02*
X1902920Y-7909984D01*
X1902920Y-7909984D02*
X1921967Y-7919508D01*
X1921967Y-7919508D02*
X1931491Y-7929031D01*
X1931491Y-7929031D02*
X1941015Y-7948079D01*
X1941015Y-7948079D02*
X1950539Y-7986174D01*
X1950539Y-7986174D02*
X1950539Y-8033793D01*
X1950539Y-8033793D02*
X1941015Y-8071888D01*
X1941015Y-8071888D02*
X1931491Y-8090936D01*
X1931491Y-8090936D02*
X1921967Y-8100460D01*
X1921967Y-8100460D02*
X1902920Y-8109984D01*
X1902920Y-8109984D02*
X1883872Y-8109984D01*
X1883872Y-8109984D02*
X1864824Y-8100460D01*
X1864824Y-8100460D02*
X1855301Y-8090936D01*
X1855301Y-8090936D02*
X1845777Y-8071888D01*
X1845777Y-8071888D02*
X1836253Y-8033793D01*
X1836253Y-8033793D02*
X1836253Y-7986174D01*
X1836253Y-7986174D02*
X1845777Y-7948079D01*
X1845777Y-7948079D02*
X1855301Y-7929031D01*
X1855301Y-7929031D02*
X1864824Y-7919508D01*
X1864824Y-7919508D02*
X1883872Y-7909984D01*
X2036253Y-8090936D02*
X2045777Y-8100460D01*
X2045777Y-8100460D02*
X2036253Y-8109984D01*
X2036253Y-8109984D02*
X2026729Y-8100460D01*
X2026729Y-8100460D02*
X2036253Y-8090936D01*
X2036253Y-8090936D02*
X2036253Y-8109984D01*
X2121967Y-7929031D02*
X2131491Y-7919508D01*
X2131491Y-7919508D02*
X2150539Y-7909984D01*
X2150539Y-7909984D02*
X2198158Y-7909984D01*
X2198158Y-7909984D02*
X2217205Y-7919508D01*
X2217205Y-7919508D02*
X2226729Y-7929031D01*
X2226729Y-7929031D02*
X2236253Y-7948079D01*
X2236253Y-7948079D02*
X2236253Y-7967127D01*
X2236253Y-7967127D02*
X2226729Y-7995698D01*
X2226729Y-7995698D02*
X2112444Y-8109984D01*
X2112444Y-8109984D02*
X2236253Y-8109984D01*
X2417205Y-7909984D02*
X2321967Y-7909984D01*
X2321967Y-7909984D02*
X2312444Y-8005222D01*
X2312444Y-8005222D02*
X2321967Y-7995698D01*
X2321967Y-7995698D02*
X2341015Y-7986174D01*
X2341015Y-7986174D02*
X2388634Y-7986174D01*
X2388634Y-7986174D02*
X2407682Y-7995698D01*
X2407682Y-7995698D02*
X2417205Y-8005222D01*
X2417205Y-8005222D02*
X2426729Y-8024269D01*
X2426729Y-8024269D02*
X2426729Y-8071888D01*
X2426729Y-8071888D02*
X2417205Y-8090936D01*
X2417205Y-8090936D02*
X2407682Y-8100460D01*
X2407682Y-8100460D02*
X2388634Y-8109984D01*
X2388634Y-8109984D02*
X2341015Y-8109984D01*
X2341015Y-8109984D02*
X2321967Y-8100460D01*
X2321967Y-8100460D02*
X2312444Y-8090936D01*
X2598158Y-7976650D02*
X2598158Y-8109984D01*
X2550539Y-7900460D02*
X2502920Y-8043317D01*
X2502920Y-8043317D02*
X2626729Y-8043317D01*
X2702920Y-8109984D02*
X2702920Y-7976650D01*
X2702920Y-7995698D02*
X2712444Y-7986174D01*
X2712444Y-7986174D02*
X2731491Y-7976650D01*
X2731491Y-7976650D02*
X2760063Y-7976650D01*
X2760063Y-7976650D02*
X2779110Y-7986174D01*
X2779110Y-7986174D02*
X2788634Y-8005222D01*
X2788634Y-8005222D02*
X2788634Y-8109984D01*
X2788634Y-8005222D02*
X2798158Y-7986174D01*
X2798158Y-7986174D02*
X2817205Y-7976650D01*
X2817205Y-7976650D02*
X2845777Y-7976650D01*
X2845777Y-7976650D02*
X2864824Y-7986174D01*
X2864824Y-7986174D02*
X2874348Y-8005222D01*
X2874348Y-8005222D02*
X2874348Y-8109984D01*
X2969586Y-8109984D02*
X2969586Y-7976650D01*
X2969586Y-7995698D02*
X2979110Y-7986174D01*
X2979110Y-7986174D02*
X2998158Y-7976650D01*
X2998158Y-7976650D02*
X3026729Y-7976650D01*
X3026729Y-7976650D02*
X3045777Y-7986174D01*
X3045777Y-7986174D02*
X3055301Y-8005222D01*
X3055301Y-8005222D02*
X3055301Y-8109984D01*
X3055301Y-8005222D02*
X3064824Y-7986174D01*
X3064824Y-7986174D02*
X3083872Y-7976650D01*
X3083872Y-7976650D02*
X3112443Y-7976650D01*
X3112443Y-7976650D02*
X3131491Y-7986174D01*
X3131491Y-7986174D02*
X3141015Y-8005222D01*
X3141015Y-8005222D02*
X3141015Y-8109984D01*
X3531491Y-7900460D02*
X3360063Y-8157603D01*
X3788634Y-7909984D02*
X3807682Y-7909984D01*
X3807682Y-7909984D02*
X3826729Y-7919508D01*
X3826729Y-7919508D02*
X3836253Y-7929031D01*
X3836253Y-7929031D02*
X3845777Y-7948079D01*
X3845777Y-7948079D02*
X3855301Y-7986174D01*
X3855301Y-7986174D02*
X3855301Y-8033793D01*
X3855301Y-8033793D02*
X3845777Y-8071888D01*
X3845777Y-8071888D02*
X3836253Y-8090936D01*
X3836253Y-8090936D02*
X3826729Y-8100460D01*
X3826729Y-8100460D02*
X3807682Y-8109984D01*
X3807682Y-8109984D02*
X3788634Y-8109984D01*
X3788634Y-8109984D02*
X3769586Y-8100460D01*
X3769586Y-8100460D02*
X3760063Y-8090936D01*
X3760063Y-8090936D02*
X3750539Y-8071888D01*
X3750539Y-8071888D02*
X3741015Y-8033793D01*
X3741015Y-8033793D02*
X3741015Y-7986174D01*
X3741015Y-7986174D02*
X3750539Y-7948079D01*
X3750539Y-7948079D02*
X3760063Y-7929031D01*
X3760063Y-7929031D02*
X3769586Y-7919508D01*
X3769586Y-7919508D02*
X3788634Y-7909984D01*
X3941015Y-8090936D02*
X3950539Y-8100460D01*
X3950539Y-8100460D02*
X3941015Y-8109984D01*
X3941015Y-8109984D02*
X3931491Y-8100460D01*
X3931491Y-8100460D02*
X3941015Y-8090936D01*
X3941015Y-8090936D02*
X3941015Y-8109984D01*
X4074348Y-7909984D02*
X4093396Y-7909984D01*
X4093396Y-7909984D02*
X4112444Y-7919508D01*
X4112444Y-7919508D02*
X4121967Y-7929031D01*
X4121967Y-7929031D02*
X4131491Y-7948079D01*
X4131491Y-7948079D02*
X4141015Y-7986174D01*
X4141015Y-7986174D02*
X4141015Y-8033793D01*
X4141015Y-8033793D02*
X4131491Y-8071888D01*
X4131491Y-8071888D02*
X4121967Y-8090936D01*
X4121967Y-8090936D02*
X4112444Y-8100460D01*
X4112444Y-8100460D02*
X4093396Y-8109984D01*
X4093396Y-8109984D02*
X4074348Y-8109984D01*
X4074348Y-8109984D02*
X4055301Y-8100460D01*
X4055301Y-8100460D02*
X4045777Y-8090936D01*
X4045777Y-8090936D02*
X4036253Y-8071888D01*
X4036253Y-8071888D02*
X4026729Y-8033793D01*
X4026729Y-8033793D02*
X4026729Y-7986174D01*
X4026729Y-7986174D02*
X4036253Y-7948079D01*
X4036253Y-7948079D02*
X4045777Y-7929031D01*
X4045777Y-7929031D02*
X4055301Y-7919508D01*
X4055301Y-7919508D02*
X4074348Y-7909984D01*
X4331491Y-8109984D02*
X4217206Y-8109984D01*
X4274348Y-8109984D02*
X4274348Y-7909984D01*
X4274348Y-7909984D02*
X4255301Y-7938555D01*
X4255301Y-7938555D02*
X4236253Y-7957603D01*
X4236253Y-7957603D02*
X4217206Y-7967127D01*
X4455301Y-7909984D02*
X4474349Y-7909984D01*
X4474349Y-7909984D02*
X4493396Y-7919508D01*
X4493396Y-7919508D02*
X4502920Y-7929031D01*
X4502920Y-7929031D02*
X4512444Y-7948079D01*
X4512444Y-7948079D02*
X4521968Y-7986174D01*
X4521968Y-7986174D02*
X4521968Y-8033793D01*
X4521968Y-8033793D02*
X4512444Y-8071888D01*
X4512444Y-8071888D02*
X4502920Y-8090936D01*
X4502920Y-8090936D02*
X4493396Y-8100460D01*
X4493396Y-8100460D02*
X4474349Y-8109984D01*
X4474349Y-8109984D02*
X4455301Y-8109984D01*
X4455301Y-8109984D02*
X4436253Y-8100460D01*
X4436253Y-8100460D02*
X4426729Y-8090936D01*
X4426729Y-8090936D02*
X4417206Y-8071888D01*
X4417206Y-8071888D02*
X4407682Y-8033793D01*
X4407682Y-8033793D02*
X4407682Y-7986174D01*
X4407682Y-7986174D02*
X4417206Y-7948079D01*
X4417206Y-7948079D02*
X4426729Y-7929031D01*
X4426729Y-7929031D02*
X4436253Y-7919508D01*
X4436253Y-7919508D02*
X4455301Y-7909984D01*
X4645777Y-7909984D02*
X4664825Y-7909984D01*
X4664825Y-7909984D02*
X4683872Y-7919508D01*
X4683872Y-7919508D02*
X4693396Y-7929031D01*
X4693396Y-7929031D02*
X4702920Y-7948079D01*
X4702920Y-7948079D02*
X4712444Y-7986174D01*
X4712444Y-7986174D02*
X4712444Y-8033793D01*
X4712444Y-8033793D02*
X4702920Y-8071888D01*
X4702920Y-8071888D02*
X4693396Y-8090936D01*
X4693396Y-8090936D02*
X4683872Y-8100460D01*
X4683872Y-8100460D02*
X4664825Y-8109984D01*
X4664825Y-8109984D02*
X4645777Y-8109984D01*
X4645777Y-8109984D02*
X4626729Y-8100460D01*
X4626729Y-8100460D02*
X4617206Y-8090936D01*
X4617206Y-8090936D02*
X4607682Y-8071888D01*
X4607682Y-8071888D02*
X4598158Y-8033793D01*
X4598158Y-8033793D02*
X4598158Y-7986174D01*
X4598158Y-7986174D02*
X4607682Y-7948079D01*
X4607682Y-7948079D02*
X4617206Y-7929031D01*
X4617206Y-7929031D02*
X4626729Y-7919508D01*
X4626729Y-7919508D02*
X4645777Y-7909984D01*
X4788634Y-7909984D02*
X4788634Y-7948079D01*
X4864825Y-7909984D02*
X4864825Y-7948079D01*
X5160063Y-8186174D02*
X5150539Y-8176650D01*
X5150539Y-8176650D02*
X5131491Y-8148079D01*
X5131491Y-8148079D02*
X5121968Y-8129031D01*
X5121968Y-8129031D02*
X5112444Y-8100460D01*
X5112444Y-8100460D02*
X5102920Y-8052841D01*
X5102920Y-8052841D02*
X5102920Y-8014746D01*
X5102920Y-8014746D02*
X5112444Y-7967127D01*
X5112444Y-7967127D02*
X5121968Y-7938555D01*
X5121968Y-7938555D02*
X5131491Y-7919508D01*
X5131491Y-7919508D02*
X5150539Y-7890936D01*
X5150539Y-7890936D02*
X5160063Y-7881412D01*
X5245777Y-8109984D02*
X5283872Y-8109984D01*
X5283872Y-8109984D02*
X5302920Y-8100460D01*
X5302920Y-8100460D02*
X5312444Y-8090936D01*
X5312444Y-8090936D02*
X5331491Y-8062365D01*
X5331491Y-8062365D02*
X5341015Y-8024269D01*
X5341015Y-8024269D02*
X5341015Y-7948079D01*
X5341015Y-7948079D02*
X5331491Y-7929031D01*
X5331491Y-7929031D02*
X5321968Y-7919508D01*
X5321968Y-7919508D02*
X5302920Y-7909984D01*
X5302920Y-7909984D02*
X5264825Y-7909984D01*
X5264825Y-7909984D02*
X5245777Y-7919508D01*
X5245777Y-7919508D02*
X5236253Y-7929031D01*
X5236253Y-7929031D02*
X5226730Y-7948079D01*
X5226730Y-7948079D02*
X5226730Y-7995698D01*
X5226730Y-7995698D02*
X5236253Y-8014746D01*
X5236253Y-8014746D02*
X5245777Y-8024269D01*
X5245777Y-8024269D02*
X5264825Y-8033793D01*
X5264825Y-8033793D02*
X5302920Y-8033793D01*
X5302920Y-8033793D02*
X5321968Y-8024269D01*
X5321968Y-8024269D02*
X5331491Y-8014746D01*
X5331491Y-8014746D02*
X5341015Y-7995698D01*
X5579111Y-8109984D02*
X5579111Y-7909984D01*
X5664825Y-8109984D02*
X5664825Y-8005222D01*
X5664825Y-8005222D02*
X5655301Y-7986174D01*
X5655301Y-7986174D02*
X5636253Y-7976650D01*
X5636253Y-7976650D02*
X5607682Y-7976650D01*
X5607682Y-7976650D02*
X5588634Y-7986174D01*
X5588634Y-7986174D02*
X5579111Y-7995698D01*
X5788634Y-8109984D02*
X5769587Y-8100460D01*
X5769587Y-8100460D02*
X5760063Y-8090936D01*
X5760063Y-8090936D02*
X5750539Y-8071888D01*
X5750539Y-8071888D02*
X5750539Y-8014746D01*
X5750539Y-8014746D02*
X5760063Y-7995698D01*
X5760063Y-7995698D02*
X5769587Y-7986174D01*
X5769587Y-7986174D02*
X5788634Y-7976650D01*
X5788634Y-7976650D02*
X5817206Y-7976650D01*
X5817206Y-7976650D02*
X5836253Y-7986174D01*
X5836253Y-7986174D02*
X5845777Y-7995698D01*
X5845777Y-7995698D02*
X5855301Y-8014746D01*
X5855301Y-8014746D02*
X5855301Y-8071888D01*
X5855301Y-8071888D02*
X5845777Y-8090936D01*
X5845777Y-8090936D02*
X5836253Y-8100460D01*
X5836253Y-8100460D02*
X5817206Y-8109984D01*
X5817206Y-8109984D02*
X5788634Y-8109984D01*
X5969587Y-8109984D02*
X5950539Y-8100460D01*
X5950539Y-8100460D02*
X5941015Y-8081412D01*
X5941015Y-8081412D02*
X5941015Y-7909984D01*
X6121968Y-8100460D02*
X6102920Y-8109984D01*
X6102920Y-8109984D02*
X6064825Y-8109984D01*
X6064825Y-8109984D02*
X6045777Y-8100460D01*
X6045777Y-8100460D02*
X6036253Y-8081412D01*
X6036253Y-8081412D02*
X6036253Y-8005222D01*
X6036253Y-8005222D02*
X6045777Y-7986174D01*
X6045777Y-7986174D02*
X6064825Y-7976650D01*
X6064825Y-7976650D02*
X6102920Y-7976650D01*
X6102920Y-7976650D02*
X6121968Y-7986174D01*
X6121968Y-7986174D02*
X6131491Y-8005222D01*
X6131491Y-8005222D02*
X6131491Y-8024269D01*
X6131491Y-8024269D02*
X6036253Y-8043317D01*
X6207682Y-8100460D02*
X6226730Y-8109984D01*
X6226730Y-8109984D02*
X6264825Y-8109984D01*
X6264825Y-8109984D02*
X6283872Y-8100460D01*
X6283872Y-8100460D02*
X6293396Y-8081412D01*
X6293396Y-8081412D02*
X6293396Y-8071888D01*
X6293396Y-8071888D02*
X6283872Y-8052841D01*
X6283872Y-8052841D02*
X6264825Y-8043317D01*
X6264825Y-8043317D02*
X6236253Y-8043317D01*
X6236253Y-8043317D02*
X6217206Y-8033793D01*
X6217206Y-8033793D02*
X6207682Y-8014746D01*
X6207682Y-8014746D02*
X6207682Y-8005222D01*
X6207682Y-8005222D02*
X6217206Y-7986174D01*
X6217206Y-7986174D02*
X6236253Y-7976650D01*
X6236253Y-7976650D02*
X6264825Y-7976650D01*
X6264825Y-7976650D02*
X6283872Y-7986174D01*
X6360063Y-8186174D02*
X6369587Y-8176650D01*
X6369587Y-8176650D02*
X6388634Y-8148079D01*
X6388634Y-8148079D02*
X6398158Y-8129031D01*
X6398158Y-8129031D02*
X6407682Y-8100460D01*
X6407682Y-8100460D02*
X6417206Y-8052841D01*
X6417206Y-8052841D02*
X6417206Y-8014746D01*
X6417206Y-8014746D02*
X6407682Y-7967127D01*
X6407682Y-7967127D02*
X6398158Y-7938555D01*
X6398158Y-7938555D02*
X6388634Y-7919508D01*
X6388634Y-7919508D02*
X6369587Y-7890936D01*
X6369587Y-7890936D02*
X6360063Y-7881412D01*
D12*
X1537500Y-8235000D02*
X1537500Y-8330000D01*
X1490000Y-8282500D02*
X1585000Y-8282500D01*
D11*
X1883872Y-8173984D02*
X1902920Y-8173984D01*
X1902920Y-8173984D02*
X1921967Y-8183508D01*
X1921967Y-8183508D02*
X1931491Y-8193031D01*
X1931491Y-8193031D02*
X1941015Y-8212079D01*
X1941015Y-8212079D02*
X1950539Y-8250174D01*
X1950539Y-8250174D02*
X1950539Y-8297793D01*
X1950539Y-8297793D02*
X1941015Y-8335888D01*
X1941015Y-8335888D02*
X1931491Y-8354936D01*
X1931491Y-8354936D02*
X1921967Y-8364460D01*
X1921967Y-8364460D02*
X1902920Y-8373984D01*
X1902920Y-8373984D02*
X1883872Y-8373984D01*
X1883872Y-8373984D02*
X1864824Y-8364460D01*
X1864824Y-8364460D02*
X1855301Y-8354936D01*
X1855301Y-8354936D02*
X1845777Y-8335888D01*
X1845777Y-8335888D02*
X1836253Y-8297793D01*
X1836253Y-8297793D02*
X1836253Y-8250174D01*
X1836253Y-8250174D02*
X1845777Y-8212079D01*
X1845777Y-8212079D02*
X1855301Y-8193031D01*
X1855301Y-8193031D02*
X1864824Y-8183508D01*
X1864824Y-8183508D02*
X1883872Y-8173984D01*
X2036253Y-8354936D02*
X2045777Y-8364460D01*
X2045777Y-8364460D02*
X2036253Y-8373984D01*
X2036253Y-8373984D02*
X2026729Y-8364460D01*
X2026729Y-8364460D02*
X2036253Y-8354936D01*
X2036253Y-8354936D02*
X2036253Y-8373984D01*
X2141015Y-8373984D02*
X2179110Y-8373984D01*
X2179110Y-8373984D02*
X2198158Y-8364460D01*
X2198158Y-8364460D02*
X2207682Y-8354936D01*
X2207682Y-8354936D02*
X2226729Y-8326365D01*
X2226729Y-8326365D02*
X2236253Y-8288269D01*
X2236253Y-8288269D02*
X2236253Y-8212079D01*
X2236253Y-8212079D02*
X2226729Y-8193031D01*
X2226729Y-8193031D02*
X2217205Y-8183508D01*
X2217205Y-8183508D02*
X2198158Y-8173984D01*
X2198158Y-8173984D02*
X2160063Y-8173984D01*
X2160063Y-8173984D02*
X2141015Y-8183508D01*
X2141015Y-8183508D02*
X2131491Y-8193031D01*
X2131491Y-8193031D02*
X2121967Y-8212079D01*
X2121967Y-8212079D02*
X2121967Y-8259698D01*
X2121967Y-8259698D02*
X2131491Y-8278746D01*
X2131491Y-8278746D02*
X2141015Y-8288269D01*
X2141015Y-8288269D02*
X2160063Y-8297793D01*
X2160063Y-8297793D02*
X2198158Y-8297793D01*
X2198158Y-8297793D02*
X2217205Y-8288269D01*
X2217205Y-8288269D02*
X2226729Y-8278746D01*
X2226729Y-8278746D02*
X2236253Y-8259698D01*
X2417205Y-8173984D02*
X2321967Y-8173984D01*
X2321967Y-8173984D02*
X2312444Y-8269222D01*
X2312444Y-8269222D02*
X2321967Y-8259698D01*
X2321967Y-8259698D02*
X2341015Y-8250174D01*
X2341015Y-8250174D02*
X2388634Y-8250174D01*
X2388634Y-8250174D02*
X2407682Y-8259698D01*
X2407682Y-8259698D02*
X2417205Y-8269222D01*
X2417205Y-8269222D02*
X2426729Y-8288269D01*
X2426729Y-8288269D02*
X2426729Y-8335888D01*
X2426729Y-8335888D02*
X2417205Y-8354936D01*
X2417205Y-8354936D02*
X2407682Y-8364460D01*
X2407682Y-8364460D02*
X2388634Y-8373984D01*
X2388634Y-8373984D02*
X2341015Y-8373984D01*
X2341015Y-8373984D02*
X2321967Y-8364460D01*
X2321967Y-8364460D02*
X2312444Y-8354936D01*
X2550539Y-8173984D02*
X2569586Y-8173984D01*
X2569586Y-8173984D02*
X2588634Y-8183508D01*
X2588634Y-8183508D02*
X2598158Y-8193031D01*
X2598158Y-8193031D02*
X2607682Y-8212079D01*
X2607682Y-8212079D02*
X2617205Y-8250174D01*
X2617205Y-8250174D02*
X2617205Y-8297793D01*
X2617205Y-8297793D02*
X2607682Y-8335888D01*
X2607682Y-8335888D02*
X2598158Y-8354936D01*
X2598158Y-8354936D02*
X2588634Y-8364460D01*
X2588634Y-8364460D02*
X2569586Y-8373984D01*
X2569586Y-8373984D02*
X2550539Y-8373984D01*
X2550539Y-8373984D02*
X2531491Y-8364460D01*
X2531491Y-8364460D02*
X2521967Y-8354936D01*
X2521967Y-8354936D02*
X2512444Y-8335888D01*
X2512444Y-8335888D02*
X2502920Y-8297793D01*
X2502920Y-8297793D02*
X2502920Y-8250174D01*
X2502920Y-8250174D02*
X2512444Y-8212079D01*
X2512444Y-8212079D02*
X2521967Y-8193031D01*
X2521967Y-8193031D02*
X2531491Y-8183508D01*
X2531491Y-8183508D02*
X2550539Y-8173984D01*
X2702920Y-8373984D02*
X2702920Y-8240650D01*
X2702920Y-8259698D02*
X2712444Y-8250174D01*
X2712444Y-8250174D02*
X2731491Y-8240650D01*
X2731491Y-8240650D02*
X2760063Y-8240650D01*
X2760063Y-8240650D02*
X2779110Y-8250174D01*
X2779110Y-8250174D02*
X2788634Y-8269222D01*
X2788634Y-8269222D02*
X2788634Y-8373984D01*
X2788634Y-8269222D02*
X2798158Y-8250174D01*
X2798158Y-8250174D02*
X2817205Y-8240650D01*
X2817205Y-8240650D02*
X2845777Y-8240650D01*
X2845777Y-8240650D02*
X2864824Y-8250174D01*
X2864824Y-8250174D02*
X2874348Y-8269222D01*
X2874348Y-8269222D02*
X2874348Y-8373984D01*
X2969586Y-8373984D02*
X2969586Y-8240650D01*
X2969586Y-8259698D02*
X2979110Y-8250174D01*
X2979110Y-8250174D02*
X2998158Y-8240650D01*
X2998158Y-8240650D02*
X3026729Y-8240650D01*
X3026729Y-8240650D02*
X3045777Y-8250174D01*
X3045777Y-8250174D02*
X3055301Y-8269222D01*
X3055301Y-8269222D02*
X3055301Y-8373984D01*
X3055301Y-8269222D02*
X3064824Y-8250174D01*
X3064824Y-8250174D02*
X3083872Y-8240650D01*
X3083872Y-8240650D02*
X3112443Y-8240650D01*
X3112443Y-8240650D02*
X3131491Y-8250174D01*
X3131491Y-8250174D02*
X3141015Y-8269222D01*
X3141015Y-8269222D02*
X3141015Y-8373984D01*
X3531491Y-8164460D02*
X3360063Y-8421603D01*
X3788634Y-8173984D02*
X3807682Y-8173984D01*
X3807682Y-8173984D02*
X3826729Y-8183508D01*
X3826729Y-8183508D02*
X3836253Y-8193031D01*
X3836253Y-8193031D02*
X3845777Y-8212079D01*
X3845777Y-8212079D02*
X3855301Y-8250174D01*
X3855301Y-8250174D02*
X3855301Y-8297793D01*
X3855301Y-8297793D02*
X3845777Y-8335888D01*
X3845777Y-8335888D02*
X3836253Y-8354936D01*
X3836253Y-8354936D02*
X3826729Y-8364460D01*
X3826729Y-8364460D02*
X3807682Y-8373984D01*
X3807682Y-8373984D02*
X3788634Y-8373984D01*
X3788634Y-8373984D02*
X3769586Y-8364460D01*
X3769586Y-8364460D02*
X3760063Y-8354936D01*
X3760063Y-8354936D02*
X3750539Y-8335888D01*
X3750539Y-8335888D02*
X3741015Y-8297793D01*
X3741015Y-8297793D02*
X3741015Y-8250174D01*
X3741015Y-8250174D02*
X3750539Y-8212079D01*
X3750539Y-8212079D02*
X3760063Y-8193031D01*
X3760063Y-8193031D02*
X3769586Y-8183508D01*
X3769586Y-8183508D02*
X3788634Y-8173984D01*
X3941015Y-8354936D02*
X3950539Y-8364460D01*
X3950539Y-8364460D02*
X3941015Y-8373984D01*
X3941015Y-8373984D02*
X3931491Y-8364460D01*
X3931491Y-8364460D02*
X3941015Y-8354936D01*
X3941015Y-8354936D02*
X3941015Y-8373984D01*
X4074348Y-8173984D02*
X4093396Y-8173984D01*
X4093396Y-8173984D02*
X4112444Y-8183508D01*
X4112444Y-8183508D02*
X4121967Y-8193031D01*
X4121967Y-8193031D02*
X4131491Y-8212079D01*
X4131491Y-8212079D02*
X4141015Y-8250174D01*
X4141015Y-8250174D02*
X4141015Y-8297793D01*
X4141015Y-8297793D02*
X4131491Y-8335888D01*
X4131491Y-8335888D02*
X4121967Y-8354936D01*
X4121967Y-8354936D02*
X4112444Y-8364460D01*
X4112444Y-8364460D02*
X4093396Y-8373984D01*
X4093396Y-8373984D02*
X4074348Y-8373984D01*
X4074348Y-8373984D02*
X4055301Y-8364460D01*
X4055301Y-8364460D02*
X4045777Y-8354936D01*
X4045777Y-8354936D02*
X4036253Y-8335888D01*
X4036253Y-8335888D02*
X4026729Y-8297793D01*
X4026729Y-8297793D02*
X4026729Y-8250174D01*
X4026729Y-8250174D02*
X4036253Y-8212079D01*
X4036253Y-8212079D02*
X4045777Y-8193031D01*
X4045777Y-8193031D02*
X4055301Y-8183508D01*
X4055301Y-8183508D02*
X4074348Y-8173984D01*
X4207682Y-8173984D02*
X4331491Y-8173984D01*
X4331491Y-8173984D02*
X4264825Y-8250174D01*
X4264825Y-8250174D02*
X4293396Y-8250174D01*
X4293396Y-8250174D02*
X4312444Y-8259698D01*
X4312444Y-8259698D02*
X4321968Y-8269222D01*
X4321968Y-8269222D02*
X4331491Y-8288269D01*
X4331491Y-8288269D02*
X4331491Y-8335888D01*
X4331491Y-8335888D02*
X4321968Y-8354936D01*
X4321968Y-8354936D02*
X4312444Y-8364460D01*
X4312444Y-8364460D02*
X4293396Y-8373984D01*
X4293396Y-8373984D02*
X4236253Y-8373984D01*
X4236253Y-8373984D02*
X4217206Y-8364460D01*
X4217206Y-8364460D02*
X4207682Y-8354936D01*
X4398158Y-8173984D02*
X4531491Y-8173984D01*
X4531491Y-8173984D02*
X4445777Y-8373984D01*
X4693396Y-8240650D02*
X4693396Y-8373984D01*
X4645777Y-8164460D02*
X4598158Y-8307317D01*
X4598158Y-8307317D02*
X4721968Y-8307317D01*
X4788634Y-8173984D02*
X4788634Y-8212079D01*
X4864825Y-8173984D02*
X4864825Y-8212079D01*
X5160063Y-8450174D02*
X5150539Y-8440650D01*
X5150539Y-8440650D02*
X5131491Y-8412079D01*
X5131491Y-8412079D02*
X5121968Y-8393031D01*
X5121968Y-8393031D02*
X5112444Y-8364460D01*
X5112444Y-8364460D02*
X5102920Y-8316841D01*
X5102920Y-8316841D02*
X5102920Y-8278746D01*
X5102920Y-8278746D02*
X5112444Y-8231127D01*
X5112444Y-8231127D02*
X5121968Y-8202555D01*
X5121968Y-8202555D02*
X5131491Y-8183508D01*
X5131491Y-8183508D02*
X5150539Y-8154936D01*
X5150539Y-8154936D02*
X5160063Y-8145412D01*
X5321968Y-8240650D02*
X5321968Y-8373984D01*
X5274349Y-8164460D02*
X5226730Y-8307317D01*
X5226730Y-8307317D02*
X5350539Y-8307317D01*
X5579111Y-8373984D02*
X5579111Y-8173984D01*
X5664825Y-8373984D02*
X5664825Y-8269222D01*
X5664825Y-8269222D02*
X5655301Y-8250174D01*
X5655301Y-8250174D02*
X5636253Y-8240650D01*
X5636253Y-8240650D02*
X5607682Y-8240650D01*
X5607682Y-8240650D02*
X5588634Y-8250174D01*
X5588634Y-8250174D02*
X5579111Y-8259698D01*
X5788634Y-8373984D02*
X5769587Y-8364460D01*
X5769587Y-8364460D02*
X5760063Y-8354936D01*
X5760063Y-8354936D02*
X5750539Y-8335888D01*
X5750539Y-8335888D02*
X5750539Y-8278746D01*
X5750539Y-8278746D02*
X5760063Y-8259698D01*
X5760063Y-8259698D02*
X5769587Y-8250174D01*
X5769587Y-8250174D02*
X5788634Y-8240650D01*
X5788634Y-8240650D02*
X5817206Y-8240650D01*
X5817206Y-8240650D02*
X5836253Y-8250174D01*
X5836253Y-8250174D02*
X5845777Y-8259698D01*
X5845777Y-8259698D02*
X5855301Y-8278746D01*
X5855301Y-8278746D02*
X5855301Y-8335888D01*
X5855301Y-8335888D02*
X5845777Y-8354936D01*
X5845777Y-8354936D02*
X5836253Y-8364460D01*
X5836253Y-8364460D02*
X5817206Y-8373984D01*
X5817206Y-8373984D02*
X5788634Y-8373984D01*
X5969587Y-8373984D02*
X5950539Y-8364460D01*
X5950539Y-8364460D02*
X5941015Y-8345412D01*
X5941015Y-8345412D02*
X5941015Y-8173984D01*
X6121968Y-8364460D02*
X6102920Y-8373984D01*
X6102920Y-8373984D02*
X6064825Y-8373984D01*
X6064825Y-8373984D02*
X6045777Y-8364460D01*
X6045777Y-8364460D02*
X6036253Y-8345412D01*
X6036253Y-8345412D02*
X6036253Y-8269222D01*
X6036253Y-8269222D02*
X6045777Y-8250174D01*
X6045777Y-8250174D02*
X6064825Y-8240650D01*
X6064825Y-8240650D02*
X6102920Y-8240650D01*
X6102920Y-8240650D02*
X6121968Y-8250174D01*
X6121968Y-8250174D02*
X6131491Y-8269222D01*
X6131491Y-8269222D02*
X6131491Y-8288269D01*
X6131491Y-8288269D02*
X6036253Y-8307317D01*
X6207682Y-8364460D02*
X6226730Y-8373984D01*
X6226730Y-8373984D02*
X6264825Y-8373984D01*
X6264825Y-8373984D02*
X6283872Y-8364460D01*
X6283872Y-8364460D02*
X6293396Y-8345412D01*
X6293396Y-8345412D02*
X6293396Y-8335888D01*
X6293396Y-8335888D02*
X6283872Y-8316841D01*
X6283872Y-8316841D02*
X6264825Y-8307317D01*
X6264825Y-8307317D02*
X6236253Y-8307317D01*
X6236253Y-8307317D02*
X6217206Y-8297793D01*
X6217206Y-8297793D02*
X6207682Y-8278746D01*
X6207682Y-8278746D02*
X6207682Y-8269222D01*
X6207682Y-8269222D02*
X6217206Y-8250174D01*
X6217206Y-8250174D02*
X6236253Y-8240650D01*
X6236253Y-8240650D02*
X6264825Y-8240650D01*
X6264825Y-8240650D02*
X6283872Y-8250174D01*
X6360063Y-8450174D02*
X6369587Y-8440650D01*
X6369587Y-8440650D02*
X6388634Y-8412079D01*
X6388634Y-8412079D02*
X6398158Y-8393031D01*
X6398158Y-8393031D02*
X6407682Y-8364460D01*
X6407682Y-8364460D02*
X6417206Y-8316841D01*
X6417206Y-8316841D02*
X6417206Y-8278746D01*
X6417206Y-8278746D02*
X6407682Y-8231127D01*
X6407682Y-8231127D02*
X6398158Y-8202555D01*
X6398158Y-8202555D02*
X6388634Y-8183508D01*
X6388634Y-8183508D02*
X6369587Y-8154936D01*
X6369587Y-8154936D02*
X6360063Y-8145412D01*
D12*
X1570356Y-8581856D02*
X1570356Y-8511144D01*
X1499644Y-8511144D01*
X1499644Y-8581856D01*
X1570356Y-8581856D01*
D11*
X1950539Y-8637984D02*
X1836253Y-8637984D01*
X1893396Y-8637984D02*
X1893396Y-8437984D01*
X1893396Y-8437984D02*
X1874348Y-8466555D01*
X1874348Y-8466555D02*
X1855301Y-8485603D01*
X1855301Y-8485603D02*
X1836253Y-8495127D01*
X2036253Y-8618936D02*
X2045777Y-8628460D01*
X2045777Y-8628460D02*
X2036253Y-8637984D01*
X2036253Y-8637984D02*
X2026729Y-8628460D01*
X2026729Y-8628460D02*
X2036253Y-8618936D01*
X2036253Y-8618936D02*
X2036253Y-8637984D01*
X2169586Y-8437984D02*
X2188634Y-8437984D01*
X2188634Y-8437984D02*
X2207682Y-8447508D01*
X2207682Y-8447508D02*
X2217205Y-8457031D01*
X2217205Y-8457031D02*
X2226729Y-8476079D01*
X2226729Y-8476079D02*
X2236253Y-8514174D01*
X2236253Y-8514174D02*
X2236253Y-8561793D01*
X2236253Y-8561793D02*
X2226729Y-8599889D01*
X2226729Y-8599889D02*
X2217205Y-8618936D01*
X2217205Y-8618936D02*
X2207682Y-8628460D01*
X2207682Y-8628460D02*
X2188634Y-8637984D01*
X2188634Y-8637984D02*
X2169586Y-8637984D01*
X2169586Y-8637984D02*
X2150539Y-8628460D01*
X2150539Y-8628460D02*
X2141015Y-8618936D01*
X2141015Y-8618936D02*
X2131491Y-8599889D01*
X2131491Y-8599889D02*
X2121967Y-8561793D01*
X2121967Y-8561793D02*
X2121967Y-8514174D01*
X2121967Y-8514174D02*
X2131491Y-8476079D01*
X2131491Y-8476079D02*
X2141015Y-8457031D01*
X2141015Y-8457031D02*
X2150539Y-8447508D01*
X2150539Y-8447508D02*
X2169586Y-8437984D01*
X2360063Y-8437984D02*
X2379110Y-8437984D01*
X2379110Y-8437984D02*
X2398158Y-8447508D01*
X2398158Y-8447508D02*
X2407682Y-8457031D01*
X2407682Y-8457031D02*
X2417205Y-8476079D01*
X2417205Y-8476079D02*
X2426729Y-8514174D01*
X2426729Y-8514174D02*
X2426729Y-8561793D01*
X2426729Y-8561793D02*
X2417205Y-8599889D01*
X2417205Y-8599889D02*
X2407682Y-8618936D01*
X2407682Y-8618936D02*
X2398158Y-8628460D01*
X2398158Y-8628460D02*
X2379110Y-8637984D01*
X2379110Y-8637984D02*
X2360063Y-8637984D01*
X2360063Y-8637984D02*
X2341015Y-8628460D01*
X2341015Y-8628460D02*
X2331491Y-8618936D01*
X2331491Y-8618936D02*
X2321967Y-8599889D01*
X2321967Y-8599889D02*
X2312444Y-8561793D01*
X2312444Y-8561793D02*
X2312444Y-8514174D01*
X2312444Y-8514174D02*
X2321967Y-8476079D01*
X2321967Y-8476079D02*
X2331491Y-8457031D01*
X2331491Y-8457031D02*
X2341015Y-8447508D01*
X2341015Y-8447508D02*
X2360063Y-8437984D01*
X2550539Y-8437984D02*
X2569586Y-8437984D01*
X2569586Y-8437984D02*
X2588634Y-8447508D01*
X2588634Y-8447508D02*
X2598158Y-8457031D01*
X2598158Y-8457031D02*
X2607682Y-8476079D01*
X2607682Y-8476079D02*
X2617205Y-8514174D01*
X2617205Y-8514174D02*
X2617205Y-8561793D01*
X2617205Y-8561793D02*
X2607682Y-8599889D01*
X2607682Y-8599889D02*
X2598158Y-8618936D01*
X2598158Y-8618936D02*
X2588634Y-8628460D01*
X2588634Y-8628460D02*
X2569586Y-8637984D01*
X2569586Y-8637984D02*
X2550539Y-8637984D01*
X2550539Y-8637984D02*
X2531491Y-8628460D01*
X2531491Y-8628460D02*
X2521967Y-8618936D01*
X2521967Y-8618936D02*
X2512444Y-8599889D01*
X2512444Y-8599889D02*
X2502920Y-8561793D01*
X2502920Y-8561793D02*
X2502920Y-8514174D01*
X2502920Y-8514174D02*
X2512444Y-8476079D01*
X2512444Y-8476079D02*
X2521967Y-8457031D01*
X2521967Y-8457031D02*
X2531491Y-8447508D01*
X2531491Y-8447508D02*
X2550539Y-8437984D01*
X2702920Y-8637984D02*
X2702920Y-8504650D01*
X2702920Y-8523698D02*
X2712444Y-8514174D01*
X2712444Y-8514174D02*
X2731491Y-8504650D01*
X2731491Y-8504650D02*
X2760063Y-8504650D01*
X2760063Y-8504650D02*
X2779110Y-8514174D01*
X2779110Y-8514174D02*
X2788634Y-8533222D01*
X2788634Y-8533222D02*
X2788634Y-8637984D01*
X2788634Y-8533222D02*
X2798158Y-8514174D01*
X2798158Y-8514174D02*
X2817205Y-8504650D01*
X2817205Y-8504650D02*
X2845777Y-8504650D01*
X2845777Y-8504650D02*
X2864824Y-8514174D01*
X2864824Y-8514174D02*
X2874348Y-8533222D01*
X2874348Y-8533222D02*
X2874348Y-8637984D01*
X2969586Y-8637984D02*
X2969586Y-8504650D01*
X2969586Y-8523698D02*
X2979110Y-8514174D01*
X2979110Y-8514174D02*
X2998158Y-8504650D01*
X2998158Y-8504650D02*
X3026729Y-8504650D01*
X3026729Y-8504650D02*
X3045777Y-8514174D01*
X3045777Y-8514174D02*
X3055301Y-8533222D01*
X3055301Y-8533222D02*
X3055301Y-8637984D01*
X3055301Y-8533222D02*
X3064824Y-8514174D01*
X3064824Y-8514174D02*
X3083872Y-8504650D01*
X3083872Y-8504650D02*
X3112443Y-8504650D01*
X3112443Y-8504650D02*
X3131491Y-8514174D01*
X3131491Y-8514174D02*
X3141015Y-8533222D01*
X3141015Y-8533222D02*
X3141015Y-8637984D01*
X3531491Y-8428460D02*
X3360063Y-8685603D01*
X3788634Y-8437984D02*
X3807682Y-8437984D01*
X3807682Y-8437984D02*
X3826729Y-8447508D01*
X3826729Y-8447508D02*
X3836253Y-8457031D01*
X3836253Y-8457031D02*
X3845777Y-8476079D01*
X3845777Y-8476079D02*
X3855301Y-8514174D01*
X3855301Y-8514174D02*
X3855301Y-8561793D01*
X3855301Y-8561793D02*
X3845777Y-8599889D01*
X3845777Y-8599889D02*
X3836253Y-8618936D01*
X3836253Y-8618936D02*
X3826729Y-8628460D01*
X3826729Y-8628460D02*
X3807682Y-8637984D01*
X3807682Y-8637984D02*
X3788634Y-8637984D01*
X3788634Y-8637984D02*
X3769586Y-8628460D01*
X3769586Y-8628460D02*
X3760063Y-8618936D01*
X3760063Y-8618936D02*
X3750539Y-8599889D01*
X3750539Y-8599889D02*
X3741015Y-8561793D01*
X3741015Y-8561793D02*
X3741015Y-8514174D01*
X3741015Y-8514174D02*
X3750539Y-8476079D01*
X3750539Y-8476079D02*
X3760063Y-8457031D01*
X3760063Y-8457031D02*
X3769586Y-8447508D01*
X3769586Y-8447508D02*
X3788634Y-8437984D01*
X3941015Y-8618936D02*
X3950539Y-8628460D01*
X3950539Y-8628460D02*
X3941015Y-8637984D01*
X3941015Y-8637984D02*
X3931491Y-8628460D01*
X3931491Y-8628460D02*
X3941015Y-8618936D01*
X3941015Y-8618936D02*
X3941015Y-8637984D01*
X4074348Y-8437984D02*
X4093396Y-8437984D01*
X4093396Y-8437984D02*
X4112444Y-8447508D01*
X4112444Y-8447508D02*
X4121967Y-8457031D01*
X4121967Y-8457031D02*
X4131491Y-8476079D01*
X4131491Y-8476079D02*
X4141015Y-8514174D01*
X4141015Y-8514174D02*
X4141015Y-8561793D01*
X4141015Y-8561793D02*
X4131491Y-8599889D01*
X4131491Y-8599889D02*
X4121967Y-8618936D01*
X4121967Y-8618936D02*
X4112444Y-8628460D01*
X4112444Y-8628460D02*
X4093396Y-8637984D01*
X4093396Y-8637984D02*
X4074348Y-8637984D01*
X4074348Y-8637984D02*
X4055301Y-8628460D01*
X4055301Y-8628460D02*
X4045777Y-8618936D01*
X4045777Y-8618936D02*
X4036253Y-8599889D01*
X4036253Y-8599889D02*
X4026729Y-8561793D01*
X4026729Y-8561793D02*
X4026729Y-8514174D01*
X4026729Y-8514174D02*
X4036253Y-8476079D01*
X4036253Y-8476079D02*
X4045777Y-8457031D01*
X4045777Y-8457031D02*
X4055301Y-8447508D01*
X4055301Y-8447508D02*
X4074348Y-8437984D01*
X4207682Y-8437984D02*
X4331491Y-8437984D01*
X4331491Y-8437984D02*
X4264825Y-8514174D01*
X4264825Y-8514174D02*
X4293396Y-8514174D01*
X4293396Y-8514174D02*
X4312444Y-8523698D01*
X4312444Y-8523698D02*
X4321968Y-8533222D01*
X4321968Y-8533222D02*
X4331491Y-8552270D01*
X4331491Y-8552270D02*
X4331491Y-8599889D01*
X4331491Y-8599889D02*
X4321968Y-8618936D01*
X4321968Y-8618936D02*
X4312444Y-8628460D01*
X4312444Y-8628460D02*
X4293396Y-8637984D01*
X4293396Y-8637984D02*
X4236253Y-8637984D01*
X4236253Y-8637984D02*
X4217206Y-8628460D01*
X4217206Y-8628460D02*
X4207682Y-8618936D01*
X4426729Y-8637984D02*
X4464825Y-8637984D01*
X4464825Y-8637984D02*
X4483872Y-8628460D01*
X4483872Y-8628460D02*
X4493396Y-8618936D01*
X4493396Y-8618936D02*
X4512444Y-8590365D01*
X4512444Y-8590365D02*
X4521968Y-8552270D01*
X4521968Y-8552270D02*
X4521968Y-8476079D01*
X4521968Y-8476079D02*
X4512444Y-8457031D01*
X4512444Y-8457031D02*
X4502920Y-8447508D01*
X4502920Y-8447508D02*
X4483872Y-8437984D01*
X4483872Y-8437984D02*
X4445777Y-8437984D01*
X4445777Y-8437984D02*
X4426729Y-8447508D01*
X4426729Y-8447508D02*
X4417206Y-8457031D01*
X4417206Y-8457031D02*
X4407682Y-8476079D01*
X4407682Y-8476079D02*
X4407682Y-8523698D01*
X4407682Y-8523698D02*
X4417206Y-8542746D01*
X4417206Y-8542746D02*
X4426729Y-8552270D01*
X4426729Y-8552270D02*
X4445777Y-8561793D01*
X4445777Y-8561793D02*
X4483872Y-8561793D01*
X4483872Y-8561793D02*
X4502920Y-8552270D01*
X4502920Y-8552270D02*
X4512444Y-8542746D01*
X4512444Y-8542746D02*
X4521968Y-8523698D01*
X4693396Y-8504650D02*
X4693396Y-8637984D01*
X4645777Y-8428460D02*
X4598158Y-8571317D01*
X4598158Y-8571317D02*
X4721968Y-8571317D01*
X4788634Y-8437984D02*
X4788634Y-8476079D01*
X4864825Y-8437984D02*
X4864825Y-8476079D01*
X5160063Y-8714174D02*
X5150539Y-8704650D01*
X5150539Y-8704650D02*
X5131491Y-8676079D01*
X5131491Y-8676079D02*
X5121968Y-8657031D01*
X5121968Y-8657031D02*
X5112444Y-8628460D01*
X5112444Y-8628460D02*
X5102920Y-8580841D01*
X5102920Y-8580841D02*
X5102920Y-8542746D01*
X5102920Y-8542746D02*
X5112444Y-8495127D01*
X5112444Y-8495127D02*
X5121968Y-8466555D01*
X5121968Y-8466555D02*
X5131491Y-8447508D01*
X5131491Y-8447508D02*
X5150539Y-8418936D01*
X5150539Y-8418936D02*
X5160063Y-8409412D01*
X5226730Y-8457031D02*
X5236253Y-8447508D01*
X5236253Y-8447508D02*
X5255301Y-8437984D01*
X5255301Y-8437984D02*
X5302920Y-8437984D01*
X5302920Y-8437984D02*
X5321968Y-8447508D01*
X5321968Y-8447508D02*
X5331491Y-8457031D01*
X5331491Y-8457031D02*
X5341015Y-8476079D01*
X5341015Y-8476079D02*
X5341015Y-8495127D01*
X5341015Y-8495127D02*
X5331491Y-8523698D01*
X5331491Y-8523698D02*
X5217206Y-8637984D01*
X5217206Y-8637984D02*
X5341015Y-8637984D01*
X5579111Y-8637984D02*
X5579111Y-8437984D01*
X5664825Y-8637984D02*
X5664825Y-8533222D01*
X5664825Y-8533222D02*
X5655301Y-8514174D01*
X5655301Y-8514174D02*
X5636253Y-8504650D01*
X5636253Y-8504650D02*
X5607682Y-8504650D01*
X5607682Y-8504650D02*
X5588634Y-8514174D01*
X5588634Y-8514174D02*
X5579111Y-8523698D01*
X5788634Y-8637984D02*
X5769587Y-8628460D01*
X5769587Y-8628460D02*
X5760063Y-8618936D01*
X5760063Y-8618936D02*
X5750539Y-8599889D01*
X5750539Y-8599889D02*
X5750539Y-8542746D01*
X5750539Y-8542746D02*
X5760063Y-8523698D01*
X5760063Y-8523698D02*
X5769587Y-8514174D01*
X5769587Y-8514174D02*
X5788634Y-8504650D01*
X5788634Y-8504650D02*
X5817206Y-8504650D01*
X5817206Y-8504650D02*
X5836253Y-8514174D01*
X5836253Y-8514174D02*
X5845777Y-8523698D01*
X5845777Y-8523698D02*
X5855301Y-8542746D01*
X5855301Y-8542746D02*
X5855301Y-8599889D01*
X5855301Y-8599889D02*
X5845777Y-8618936D01*
X5845777Y-8618936D02*
X5836253Y-8628460D01*
X5836253Y-8628460D02*
X5817206Y-8637984D01*
X5817206Y-8637984D02*
X5788634Y-8637984D01*
X5969587Y-8637984D02*
X5950539Y-8628460D01*
X5950539Y-8628460D02*
X5941015Y-8609412D01*
X5941015Y-8609412D02*
X5941015Y-8437984D01*
X6121968Y-8628460D02*
X6102920Y-8637984D01*
X6102920Y-8637984D02*
X6064825Y-8637984D01*
X6064825Y-8637984D02*
X6045777Y-8628460D01*
X6045777Y-8628460D02*
X6036253Y-8609412D01*
X6036253Y-8609412D02*
X6036253Y-8533222D01*
X6036253Y-8533222D02*
X6045777Y-8514174D01*
X6045777Y-8514174D02*
X6064825Y-8504650D01*
X6064825Y-8504650D02*
X6102920Y-8504650D01*
X6102920Y-8504650D02*
X6121968Y-8514174D01*
X6121968Y-8514174D02*
X6131491Y-8533222D01*
X6131491Y-8533222D02*
X6131491Y-8552270D01*
X6131491Y-8552270D02*
X6036253Y-8571317D01*
X6207682Y-8628460D02*
X6226730Y-8637984D01*
X6226730Y-8637984D02*
X6264825Y-8637984D01*
X6264825Y-8637984D02*
X6283872Y-8628460D01*
X6283872Y-8628460D02*
X6293396Y-8609412D01*
X6293396Y-8609412D02*
X6293396Y-8599889D01*
X6293396Y-8599889D02*
X6283872Y-8580841D01*
X6283872Y-8580841D02*
X6264825Y-8571317D01*
X6264825Y-8571317D02*
X6236253Y-8571317D01*
X6236253Y-8571317D02*
X6217206Y-8561793D01*
X6217206Y-8561793D02*
X6207682Y-8542746D01*
X6207682Y-8542746D02*
X6207682Y-8533222D01*
X6207682Y-8533222D02*
X6217206Y-8514174D01*
X6217206Y-8514174D02*
X6236253Y-8504650D01*
X6236253Y-8504650D02*
X6264825Y-8504650D01*
X6264825Y-8504650D02*
X6283872Y-8514174D01*
X6360063Y-8714174D02*
X6369587Y-8704650D01*
X6369587Y-8704650D02*
X6388634Y-8676079D01*
X6388634Y-8676079D02*
X6398158Y-8657031D01*
X6398158Y-8657031D02*
X6407682Y-8628460D01*
X6407682Y-8628460D02*
X6417206Y-8580841D01*
X6417206Y-8580841D02*
X6417206Y-8542746D01*
X6417206Y-8542746D02*
X6407682Y-8495127D01*
X6407682Y-8495127D02*
X6398158Y-8466555D01*
X6398158Y-8466555D02*
X6388634Y-8447508D01*
X6388634Y-8447508D02*
X6369587Y-8418936D01*
X6369587Y-8418936D02*
X6360063Y-8409412D01*
D13*
X1490000Y-8905500D02*
X1585000Y-8810500D01*
X1490000Y-8715500D01*
X1395000Y-8810500D01*
X1490000Y-8905500D01*
D11*
X1950539Y-8901984D02*
X1836253Y-8901984D01*
X1893396Y-8901984D02*
X1893396Y-8701984D01*
X1893396Y-8701984D02*
X1874348Y-8730555D01*
X1874348Y-8730555D02*
X1855301Y-8749603D01*
X1855301Y-8749603D02*
X1836253Y-8759127D01*
X2036253Y-8882936D02*
X2045777Y-8892460D01*
X2045777Y-8892460D02*
X2036253Y-8901984D01*
X2036253Y-8901984D02*
X2026729Y-8892460D01*
X2026729Y-8892460D02*
X2036253Y-8882936D01*
X2036253Y-8882936D02*
X2036253Y-8901984D01*
X2141015Y-8901984D02*
X2179110Y-8901984D01*
X2179110Y-8901984D02*
X2198158Y-8892460D01*
X2198158Y-8892460D02*
X2207682Y-8882936D01*
X2207682Y-8882936D02*
X2226729Y-8854365D01*
X2226729Y-8854365D02*
X2236253Y-8816270D01*
X2236253Y-8816270D02*
X2236253Y-8740079D01*
X2236253Y-8740079D02*
X2226729Y-8721031D01*
X2226729Y-8721031D02*
X2217205Y-8711508D01*
X2217205Y-8711508D02*
X2198158Y-8701984D01*
X2198158Y-8701984D02*
X2160063Y-8701984D01*
X2160063Y-8701984D02*
X2141015Y-8711508D01*
X2141015Y-8711508D02*
X2131491Y-8721031D01*
X2131491Y-8721031D02*
X2121967Y-8740079D01*
X2121967Y-8740079D02*
X2121967Y-8787698D01*
X2121967Y-8787698D02*
X2131491Y-8806746D01*
X2131491Y-8806746D02*
X2141015Y-8816270D01*
X2141015Y-8816270D02*
X2160063Y-8825793D01*
X2160063Y-8825793D02*
X2198158Y-8825793D01*
X2198158Y-8825793D02*
X2217205Y-8816270D01*
X2217205Y-8816270D02*
X2226729Y-8806746D01*
X2226729Y-8806746D02*
X2236253Y-8787698D01*
X2360063Y-8701984D02*
X2379110Y-8701984D01*
X2379110Y-8701984D02*
X2398158Y-8711508D01*
X2398158Y-8711508D02*
X2407682Y-8721031D01*
X2407682Y-8721031D02*
X2417205Y-8740079D01*
X2417205Y-8740079D02*
X2426729Y-8778174D01*
X2426729Y-8778174D02*
X2426729Y-8825793D01*
X2426729Y-8825793D02*
X2417205Y-8863889D01*
X2417205Y-8863889D02*
X2407682Y-8882936D01*
X2407682Y-8882936D02*
X2398158Y-8892460D01*
X2398158Y-8892460D02*
X2379110Y-8901984D01*
X2379110Y-8901984D02*
X2360063Y-8901984D01*
X2360063Y-8901984D02*
X2341015Y-8892460D01*
X2341015Y-8892460D02*
X2331491Y-8882936D01*
X2331491Y-8882936D02*
X2321967Y-8863889D01*
X2321967Y-8863889D02*
X2312444Y-8825793D01*
X2312444Y-8825793D02*
X2312444Y-8778174D01*
X2312444Y-8778174D02*
X2321967Y-8740079D01*
X2321967Y-8740079D02*
X2331491Y-8721031D01*
X2331491Y-8721031D02*
X2341015Y-8711508D01*
X2341015Y-8711508D02*
X2360063Y-8701984D01*
X2550539Y-8701984D02*
X2569586Y-8701984D01*
X2569586Y-8701984D02*
X2588634Y-8711508D01*
X2588634Y-8711508D02*
X2598158Y-8721031D01*
X2598158Y-8721031D02*
X2607682Y-8740079D01*
X2607682Y-8740079D02*
X2617205Y-8778174D01*
X2617205Y-8778174D02*
X2617205Y-8825793D01*
X2617205Y-8825793D02*
X2607682Y-8863889D01*
X2607682Y-8863889D02*
X2598158Y-8882936D01*
X2598158Y-8882936D02*
X2588634Y-8892460D01*
X2588634Y-8892460D02*
X2569586Y-8901984D01*
X2569586Y-8901984D02*
X2550539Y-8901984D01*
X2550539Y-8901984D02*
X2531491Y-8892460D01*
X2531491Y-8892460D02*
X2521967Y-8882936D01*
X2521967Y-8882936D02*
X2512444Y-8863889D01*
X2512444Y-8863889D02*
X2502920Y-8825793D01*
X2502920Y-8825793D02*
X2502920Y-8778174D01*
X2502920Y-8778174D02*
X2512444Y-8740079D01*
X2512444Y-8740079D02*
X2521967Y-8721031D01*
X2521967Y-8721031D02*
X2531491Y-8711508D01*
X2531491Y-8711508D02*
X2550539Y-8701984D01*
X2702920Y-8901984D02*
X2702920Y-8768650D01*
X2702920Y-8787698D02*
X2712444Y-8778174D01*
X2712444Y-8778174D02*
X2731491Y-8768650D01*
X2731491Y-8768650D02*
X2760063Y-8768650D01*
X2760063Y-8768650D02*
X2779110Y-8778174D01*
X2779110Y-8778174D02*
X2788634Y-8797222D01*
X2788634Y-8797222D02*
X2788634Y-8901984D01*
X2788634Y-8797222D02*
X2798158Y-8778174D01*
X2798158Y-8778174D02*
X2817205Y-8768650D01*
X2817205Y-8768650D02*
X2845777Y-8768650D01*
X2845777Y-8768650D02*
X2864824Y-8778174D01*
X2864824Y-8778174D02*
X2874348Y-8797222D01*
X2874348Y-8797222D02*
X2874348Y-8901984D01*
X2969586Y-8901984D02*
X2969586Y-8768650D01*
X2969586Y-8787698D02*
X2979110Y-8778174D01*
X2979110Y-8778174D02*
X2998158Y-8768650D01*
X2998158Y-8768650D02*
X3026729Y-8768650D01*
X3026729Y-8768650D02*
X3045777Y-8778174D01*
X3045777Y-8778174D02*
X3055301Y-8797222D01*
X3055301Y-8797222D02*
X3055301Y-8901984D01*
X3055301Y-8797222D02*
X3064824Y-8778174D01*
X3064824Y-8778174D02*
X3083872Y-8768650D01*
X3083872Y-8768650D02*
X3112443Y-8768650D01*
X3112443Y-8768650D02*
X3131491Y-8778174D01*
X3131491Y-8778174D02*
X3141015Y-8797222D01*
X3141015Y-8797222D02*
X3141015Y-8901984D01*
X3531491Y-8692460D02*
X3360063Y-8949603D01*
X3788634Y-8701984D02*
X3807682Y-8701984D01*
X3807682Y-8701984D02*
X3826729Y-8711508D01*
X3826729Y-8711508D02*
X3836253Y-8721031D01*
X3836253Y-8721031D02*
X3845777Y-8740079D01*
X3845777Y-8740079D02*
X3855301Y-8778174D01*
X3855301Y-8778174D02*
X3855301Y-8825793D01*
X3855301Y-8825793D02*
X3845777Y-8863889D01*
X3845777Y-8863889D02*
X3836253Y-8882936D01*
X3836253Y-8882936D02*
X3826729Y-8892460D01*
X3826729Y-8892460D02*
X3807682Y-8901984D01*
X3807682Y-8901984D02*
X3788634Y-8901984D01*
X3788634Y-8901984D02*
X3769586Y-8892460D01*
X3769586Y-8892460D02*
X3760063Y-8882936D01*
X3760063Y-8882936D02*
X3750539Y-8863889D01*
X3750539Y-8863889D02*
X3741015Y-8825793D01*
X3741015Y-8825793D02*
X3741015Y-8778174D01*
X3741015Y-8778174D02*
X3750539Y-8740079D01*
X3750539Y-8740079D02*
X3760063Y-8721031D01*
X3760063Y-8721031D02*
X3769586Y-8711508D01*
X3769586Y-8711508D02*
X3788634Y-8701984D01*
X3941015Y-8882936D02*
X3950539Y-8892460D01*
X3950539Y-8892460D02*
X3941015Y-8901984D01*
X3941015Y-8901984D02*
X3931491Y-8892460D01*
X3931491Y-8892460D02*
X3941015Y-8882936D01*
X3941015Y-8882936D02*
X3941015Y-8901984D01*
X4074348Y-8701984D02*
X4093396Y-8701984D01*
X4093396Y-8701984D02*
X4112444Y-8711508D01*
X4112444Y-8711508D02*
X4121967Y-8721031D01*
X4121967Y-8721031D02*
X4131491Y-8740079D01*
X4131491Y-8740079D02*
X4141015Y-8778174D01*
X4141015Y-8778174D02*
X4141015Y-8825793D01*
X4141015Y-8825793D02*
X4131491Y-8863889D01*
X4131491Y-8863889D02*
X4121967Y-8882936D01*
X4121967Y-8882936D02*
X4112444Y-8892460D01*
X4112444Y-8892460D02*
X4093396Y-8901984D01*
X4093396Y-8901984D02*
X4074348Y-8901984D01*
X4074348Y-8901984D02*
X4055301Y-8892460D01*
X4055301Y-8892460D02*
X4045777Y-8882936D01*
X4045777Y-8882936D02*
X4036253Y-8863889D01*
X4036253Y-8863889D02*
X4026729Y-8825793D01*
X4026729Y-8825793D02*
X4026729Y-8778174D01*
X4026729Y-8778174D02*
X4036253Y-8740079D01*
X4036253Y-8740079D02*
X4045777Y-8721031D01*
X4045777Y-8721031D02*
X4055301Y-8711508D01*
X4055301Y-8711508D02*
X4074348Y-8701984D01*
X4207682Y-8701984D02*
X4341015Y-8701984D01*
X4341015Y-8701984D02*
X4255301Y-8901984D01*
X4502920Y-8768650D02*
X4502920Y-8901984D01*
X4455301Y-8692460D02*
X4407682Y-8835317D01*
X4407682Y-8835317D02*
X4531491Y-8835317D01*
X4636253Y-8787698D02*
X4617206Y-8778174D01*
X4617206Y-8778174D02*
X4607682Y-8768650D01*
X4607682Y-8768650D02*
X4598158Y-8749603D01*
X4598158Y-8749603D02*
X4598158Y-8740079D01*
X4598158Y-8740079D02*
X4607682Y-8721031D01*
X4607682Y-8721031D02*
X4617206Y-8711508D01*
X4617206Y-8711508D02*
X4636253Y-8701984D01*
X4636253Y-8701984D02*
X4674349Y-8701984D01*
X4674349Y-8701984D02*
X4693396Y-8711508D01*
X4693396Y-8711508D02*
X4702920Y-8721031D01*
X4702920Y-8721031D02*
X4712444Y-8740079D01*
X4712444Y-8740079D02*
X4712444Y-8749603D01*
X4712444Y-8749603D02*
X4702920Y-8768650D01*
X4702920Y-8768650D02*
X4693396Y-8778174D01*
X4693396Y-8778174D02*
X4674349Y-8787698D01*
X4674349Y-8787698D02*
X4636253Y-8787698D01*
X4636253Y-8787698D02*
X4617206Y-8797222D01*
X4617206Y-8797222D02*
X4607682Y-8806746D01*
X4607682Y-8806746D02*
X4598158Y-8825793D01*
X4598158Y-8825793D02*
X4598158Y-8863889D01*
X4598158Y-8863889D02*
X4607682Y-8882936D01*
X4607682Y-8882936D02*
X4617206Y-8892460D01*
X4617206Y-8892460D02*
X4636253Y-8901984D01*
X4636253Y-8901984D02*
X4674349Y-8901984D01*
X4674349Y-8901984D02*
X4693396Y-8892460D01*
X4693396Y-8892460D02*
X4702920Y-8882936D01*
X4702920Y-8882936D02*
X4712444Y-8863889D01*
X4712444Y-8863889D02*
X4712444Y-8825793D01*
X4712444Y-8825793D02*
X4702920Y-8806746D01*
X4702920Y-8806746D02*
X4693396Y-8797222D01*
X4693396Y-8797222D02*
X4674349Y-8787698D01*
X4788634Y-8701984D02*
X4788634Y-8740079D01*
X4864825Y-8701984D02*
X4864825Y-8740079D01*
X5160063Y-8978174D02*
X5150539Y-8968650D01*
X5150539Y-8968650D02*
X5131491Y-8940079D01*
X5131491Y-8940079D02*
X5121968Y-8921031D01*
X5121968Y-8921031D02*
X5112444Y-8892460D01*
X5112444Y-8892460D02*
X5102920Y-8844841D01*
X5102920Y-8844841D02*
X5102920Y-8806746D01*
X5102920Y-8806746D02*
X5112444Y-8759127D01*
X5112444Y-8759127D02*
X5121968Y-8730555D01*
X5121968Y-8730555D02*
X5131491Y-8711508D01*
X5131491Y-8711508D02*
X5150539Y-8682936D01*
X5150539Y-8682936D02*
X5160063Y-8673412D01*
X5226730Y-8721031D02*
X5236253Y-8711508D01*
X5236253Y-8711508D02*
X5255301Y-8701984D01*
X5255301Y-8701984D02*
X5302920Y-8701984D01*
X5302920Y-8701984D02*
X5321968Y-8711508D01*
X5321968Y-8711508D02*
X5331491Y-8721031D01*
X5331491Y-8721031D02*
X5341015Y-8740079D01*
X5341015Y-8740079D02*
X5341015Y-8759127D01*
X5341015Y-8759127D02*
X5331491Y-8787698D01*
X5331491Y-8787698D02*
X5217206Y-8901984D01*
X5217206Y-8901984D02*
X5341015Y-8901984D01*
X5579111Y-8901984D02*
X5579111Y-8701984D01*
X5664825Y-8901984D02*
X5664825Y-8797222D01*
X5664825Y-8797222D02*
X5655301Y-8778174D01*
X5655301Y-8778174D02*
X5636253Y-8768650D01*
X5636253Y-8768650D02*
X5607682Y-8768650D01*
X5607682Y-8768650D02*
X5588634Y-8778174D01*
X5588634Y-8778174D02*
X5579111Y-8787698D01*
X5788634Y-8901984D02*
X5769587Y-8892460D01*
X5769587Y-8892460D02*
X5760063Y-8882936D01*
X5760063Y-8882936D02*
X5750539Y-8863889D01*
X5750539Y-8863889D02*
X5750539Y-8806746D01*
X5750539Y-8806746D02*
X5760063Y-8787698D01*
X5760063Y-8787698D02*
X5769587Y-8778174D01*
X5769587Y-8778174D02*
X5788634Y-8768650D01*
X5788634Y-8768650D02*
X5817206Y-8768650D01*
X5817206Y-8768650D02*
X5836253Y-8778174D01*
X5836253Y-8778174D02*
X5845777Y-8787698D01*
X5845777Y-8787698D02*
X5855301Y-8806746D01*
X5855301Y-8806746D02*
X5855301Y-8863889D01*
X5855301Y-8863889D02*
X5845777Y-8882936D01*
X5845777Y-8882936D02*
X5836253Y-8892460D01*
X5836253Y-8892460D02*
X5817206Y-8901984D01*
X5817206Y-8901984D02*
X5788634Y-8901984D01*
X5969587Y-8901984D02*
X5950539Y-8892460D01*
X5950539Y-8892460D02*
X5941015Y-8873412D01*
X5941015Y-8873412D02*
X5941015Y-8701984D01*
X6121968Y-8892460D02*
X6102920Y-8901984D01*
X6102920Y-8901984D02*
X6064825Y-8901984D01*
X6064825Y-8901984D02*
X6045777Y-8892460D01*
X6045777Y-8892460D02*
X6036253Y-8873412D01*
X6036253Y-8873412D02*
X6036253Y-8797222D01*
X6036253Y-8797222D02*
X6045777Y-8778174D01*
X6045777Y-8778174D02*
X6064825Y-8768650D01*
X6064825Y-8768650D02*
X6102920Y-8768650D01*
X6102920Y-8768650D02*
X6121968Y-8778174D01*
X6121968Y-8778174D02*
X6131491Y-8797222D01*
X6131491Y-8797222D02*
X6131491Y-8816270D01*
X6131491Y-8816270D02*
X6036253Y-8835317D01*
X6207682Y-8892460D02*
X6226730Y-8901984D01*
X6226730Y-8901984D02*
X6264825Y-8901984D01*
X6264825Y-8901984D02*
X6283872Y-8892460D01*
X6283872Y-8892460D02*
X6293396Y-8873412D01*
X6293396Y-8873412D02*
X6293396Y-8863889D01*
X6293396Y-8863889D02*
X6283872Y-8844841D01*
X6283872Y-8844841D02*
X6264825Y-8835317D01*
X6264825Y-8835317D02*
X6236253Y-8835317D01*
X6236253Y-8835317D02*
X6217206Y-8825793D01*
X6217206Y-8825793D02*
X6207682Y-8806746D01*
X6207682Y-8806746D02*
X6207682Y-8797222D01*
X6207682Y-8797222D02*
X6217206Y-8778174D01*
X6217206Y-8778174D02*
X6236253Y-8768650D01*
X6236253Y-8768650D02*
X6264825Y-8768650D01*
X6264825Y-8768650D02*
X6283872Y-8778174D01*
X6360063Y-8978174D02*
X6369587Y-8968650D01*
X6369587Y-8968650D02*
X6388634Y-8940079D01*
X6388634Y-8940079D02*
X6398158Y-8921031D01*
X6398158Y-8921031D02*
X6407682Y-8892460D01*
X6407682Y-8892460D02*
X6417206Y-8844841D01*
X6417206Y-8844841D02*
X6417206Y-8806746D01*
X6417206Y-8806746D02*
X6407682Y-8759127D01*
X6407682Y-8759127D02*
X6398158Y-8730555D01*
X6398158Y-8730555D02*
X6388634Y-8711508D01*
X6388634Y-8711508D02*
X6369587Y-8682936D01*
X6369587Y-8682936D02*
X6360063Y-8673412D01*
M02*
