M48
; DRILL file {KiCad 9.0.0} date 2025-04-10T00:07:50-0700
; FORMAT={-:-/ absolute / inch / decimal}
; #@! TF.CreationDate,2025-04-10T00:07:50-07:00
; #@! TF.GenerationSoftware,Kicad,Pcbnew,9.0.0
; #@! TF.FileFunction,Plated,1,2,PTH
FMAT,2
INCH
; #@! TA.AperFunction,Plated,PTH,ViaDrill
T1C0.0100
; #@! TA.AperFunction,Plated,PTH,ComponentDrill
T2C0.0100
; #@! TA.AperFunction,Plated,PTH,ComponentDrill
T3C0.0374
; #@! TA.AperFunction,Plated,PTH,ComponentDrill
T4C0.0394
; #@! TA.AperFunction,Plated,PTH,ComponentDrill
T5C0.0748
%
G90
G05
T1
X0.65Y-2.2248
X0.65Y-2.33
X0.675Y-1.945
X0.7Y-1.9001
X0.71Y-1.7835
X0.77Y-1.49
X0.77Y-1.52
X0.79Y-1.56
X0.79Y-1.785
X0.83Y-1.71
X0.835Y-1.49
X0.835Y-1.565
X0.855Y-1.52
X0.875Y-1.9
X0.875Y-1.985
X0.89Y-1.55
X0.915Y-2.18
X0.92Y-1.445
X0.9347Y-1.58
X0.935Y-1.73
X0.95Y-2.44
X0.96Y-1.75
X0.975Y-1.5894
X0.9964Y-1.38
X1.03Y-1.49
X1.0437Y-1.75
X1.05Y-2.44
X1.06Y-2.16
X1.07Y-1.475
X1.13Y-1.645
X1.13Y-1.705
T2
X0.8209Y-1.7609
X0.8209Y-1.815
X0.8209Y-1.8691
X0.875Y-1.7609
X0.875Y-1.815
X0.875Y-1.8691
X0.9291Y-1.7609
X0.9291Y-1.815
X0.9291Y-1.8691
T3
X0.7524Y-2.5253
X0.8508Y-2.5253
X0.9492Y-2.5253
X1.0476Y-2.5253
T4
X0.685Y-0.8063
X1.1181Y-0.8063
T5
X0.8031Y-1.2
X1.0Y-1.2
M30
