%TF.GenerationSoftware,KiCad,Pcbnew,9.0.0*%
%TF.CreationDate,2025-04-10T00:07:50-07:00*%
%TF.ProjectId,RP2350_60QFN_minimal,52503233-3530-45f3-9630-51464e5f6d69,rev?*%
%TF.SameCoordinates,Original*%
%TF.FileFunction,Copper,L2,Bot*%
%TF.FilePolarity,Positive*%
%FSLAX46Y46*%
G04 Gerber Fmt 4.6, Leading zero omitted, Abs format (unit mm)*
G04 Created by KiCad (PCBNEW 9.0.0) date 2025-04-10 00:07:50*
%MOMM*%
%LPD*%
G01*
G04 APERTURE LIST*
G04 Aperture macros list*
%AMRoundRect*
0 Rectangle with rounded corners*
0 $1 Rounding radius*
0 $2 $3 $4 $5 $6 $7 $8 $9 X,Y pos of 4 corners*
0 Add a 4 corners polygon primitive as box body*
4,1,4,$2,$3,$4,$5,$6,$7,$8,$9,$2,$3,0*
0 Add four circle primitives for the rounded corners*
1,1,$1+$1,$2,$3*
1,1,$1+$1,$4,$5*
1,1,$1+$1,$6,$7*
1,1,$1+$1,$8,$9*
0 Add four rect primitives between the rounded corners*
20,1,$1+$1,$2,$3,$4,$5,0*
20,1,$1+$1,$4,$5,$6,$7,0*
20,1,$1+$1,$6,$7,$8,$9,0*
20,1,$1+$1,$8,$9,$2,$3,0*%
G04 Aperture macros list end*
%TA.AperFunction,ComponentPad*%
%ADD10C,0.635000*%
%TD*%
%TA.AperFunction,ComponentPad*%
%ADD11RoundRect,0.250000X0.600000X0.725000X-0.600000X0.725000X-0.600000X-0.725000X0.600000X-0.725000X0*%
%TD*%
%TA.AperFunction,ComponentPad*%
%ADD12O,1.700000X1.950000*%
%TD*%
%TA.AperFunction,ComponentPad*%
%ADD13C,1.400000*%
%TD*%
%TA.AperFunction,ComponentPad*%
%ADD14RoundRect,0.770000X-0.980000X-0.980000X0.980000X-0.980000X0.980000X0.980000X-0.980000X0.980000X0*%
%TD*%
%TA.AperFunction,ComponentPad*%
%ADD15C,3.500000*%
%TD*%
%TA.AperFunction,ViaPad*%
%ADD16C,1.905000*%
%TD*%
%TA.AperFunction,ViaPad*%
%ADD17C,0.508000*%
%TD*%
%TA.AperFunction,ViaPad*%
%ADD18C,0.635000*%
%TD*%
%TA.AperFunction,Conductor*%
%ADD19C,0.635000*%
%TD*%
%TA.AperFunction,Conductor*%
%ADD20C,0.190500*%
%TD*%
G04 APERTURE END LIST*
D10*
%TO.P,U3,61,GND*%
%TO.N,GND*%
X20850000Y-44726000D03*
X20850000Y-46101000D03*
X20850000Y-47476000D03*
X22225000Y-44726000D03*
X22225000Y-46101000D03*
X22225000Y-47476000D03*
X23600000Y-44726000D03*
X23600000Y-46101000D03*
X23600000Y-47476000D03*
%TD*%
D11*
%TO.P,J5,1,Pin_1*%
%TO.N,GND*%
X26610000Y-64142500D03*
D12*
%TO.P,J5,2,Pin_2*%
%TO.N,+24V*%
X24110000Y-64142500D03*
%TO.P,J5,3,Pin_3*%
%TO.N,/RS485-A*%
X21610000Y-64142500D03*
%TO.P,J5,4,Pin_4*%
%TO.N,/RS485-B*%
X19110000Y-64142500D03*
%TD*%
D13*
%TO.P,J1,*%
%TO.N,GND*%
X17400000Y-20480000D03*
X28400000Y-20480000D03*
D14*
%TO.P,J1,1,Pin_1*%
X25400000Y-30480000D03*
D15*
%TO.P,J1,2,Pin_2*%
%TO.N,+24V*%
X20400000Y-30480000D03*
%TD*%
D16*
%TO.N,+24V*%
X24130000Y-61976000D03*
D17*
%TO.N,GND*%
X21209000Y-39751000D03*
D18*
X26924000Y-54864000D03*
D16*
X26670000Y-61976000D03*
D18*
X28702000Y-43307000D03*
X22606000Y-39370000D03*
X23241000Y-55372000D03*
X28702000Y-41783000D03*
D17*
X24765000Y-40370002D03*
D18*
X23368000Y-36703000D03*
X27178000Y-37465000D03*
D17*
%TO.N,+3V3*%
X19558000Y-38608000D03*
X21717000Y-38608000D03*
D18*
%TO.N,Net-(U2-SW)*%
X26162000Y-37846000D03*
X25308999Y-35052000D03*
D17*
%TO.N,+1V1*%
X24384000Y-44450000D03*
X26511250Y-44450000D03*
X22225000Y-50419000D03*
X22225000Y-48260000D03*
X23742000Y-40132000D03*
X20066000Y-45339000D03*
X18034000Y-45301000D03*
X23749000Y-43942000D03*
D18*
%TO.N,/GPIO9*%
X17145000Y-49403000D03*
X17780000Y-48263750D03*
%TO.N,/GPIO7*%
X16510000Y-59182000D03*
X16510000Y-56509500D03*
D17*
%TO.N,/QSPI_SD3*%
X21209000Y-37846000D03*
X19557425Y-37846000D03*
%TO.N,/QSPI_SCLK*%
X21082000Y-43434000D03*
X20066000Y-39624000D03*
%TD*%
D19*
%TO.N,GND*%
X21209000Y-39751000D02*
X21590000Y-39370000D01*
X23495000Y-39370000D02*
X24130000Y-38735000D01*
X21590000Y-39370000D02*
X22606000Y-39370000D01*
X22606000Y-39370000D02*
X23495000Y-39370000D01*
D20*
%TO.N,+3V3*%
X19558000Y-38608000D02*
X21717000Y-38608000D01*
D19*
%TO.N,Net-(U2-SW)*%
X26162000Y-37846000D02*
X26162000Y-35905001D01*
X26162000Y-35905001D02*
X25308999Y-35052000D01*
D20*
%TO.N,+1V1*%
X26511250Y-44450000D02*
X24384000Y-44450000D01*
X23749000Y-40139000D02*
X23742000Y-40132000D01*
X22225000Y-50419000D02*
X22225000Y-48260000D01*
X23749000Y-43942000D02*
X23749000Y-40139000D01*
X20028000Y-45301000D02*
X18034000Y-45301000D01*
X20066000Y-45339000D02*
X20028000Y-45301000D01*
%TO.N,/GPIO9*%
X17780000Y-48768000D02*
X17780000Y-48263750D01*
X17145000Y-49403000D02*
X17780000Y-48768000D01*
%TO.N,/GPIO7*%
X16510000Y-56509500D02*
X16510000Y-59182000D01*
%TO.N,/QSPI_SD3*%
X21209000Y-37846000D02*
X19557425Y-37846000D01*
%TO.N,/QSPI_SCLK*%
X21082000Y-43434000D02*
X21082000Y-40640000D01*
X21082000Y-40640000D02*
X20066000Y-39624000D01*
%TD*%
%TA.AperFunction,Conductor*%
%TO.N,GND*%
G36*
X27708598Y-17470218D02*
G01*
X27856361Y-17528722D01*
X27984932Y-17622134D01*
X27999235Y-17635994D01*
X29354006Y-18990765D01*
X29451410Y-19116339D01*
X29514526Y-19262191D01*
X29539387Y-19419157D01*
X29539700Y-19439071D01*
X29539700Y-70095929D01*
X29533458Y-70145333D01*
X29531895Y-70195105D01*
X29523536Y-70223874D01*
X29519782Y-70253598D01*
X29501450Y-70299897D01*
X29487558Y-70347717D01*
X29472306Y-70373506D01*
X29461278Y-70401361D01*
X29432010Y-70441643D01*
X29406661Y-70484509D01*
X29373726Y-70521866D01*
X29367866Y-70529932D01*
X29354008Y-70544232D01*
X29269238Y-70629003D01*
X29143665Y-70726409D01*
X28997814Y-70789525D01*
X28840848Y-70814387D01*
X28820930Y-70814700D01*
X16899072Y-70814700D01*
X16741403Y-70794782D01*
X16593640Y-70736278D01*
X16465069Y-70642866D01*
X16450766Y-70629006D01*
X16365994Y-70544234D01*
X16268590Y-70418660D01*
X16205474Y-70272808D01*
X16180613Y-70115842D01*
X16180300Y-70095928D01*
X16180300Y-64065912D01*
X16189021Y-63996872D01*
X16195569Y-63927609D01*
X16198962Y-63918184D01*
X16200218Y-63908243D01*
X16225833Y-63843547D01*
X16249402Y-63778082D01*
X16255033Y-63769794D01*
X16258722Y-63760480D01*
X16299619Y-63704188D01*
X16338730Y-63646640D01*
X16346244Y-63640014D01*
X16352134Y-63631909D01*
X16405746Y-63587556D01*
X16457939Y-63541543D01*
X16466866Y-63536994D01*
X16474586Y-63530608D01*
X16537551Y-63500978D01*
X16599540Y-63469394D01*
X16609315Y-63467208D01*
X16618383Y-63462942D01*
X16686743Y-63449901D01*
X16754635Y-63434726D01*
X16764647Y-63435040D01*
X16774491Y-63433163D01*
X16843945Y-63437532D01*
X16913479Y-63439718D01*
X16923098Y-63442512D01*
X16933100Y-63443142D01*
X16999281Y-63464645D01*
X17066092Y-63484056D01*
X17074715Y-63489156D01*
X17084244Y-63492252D01*
X17142991Y-63529534D01*
X17202883Y-63564954D01*
X17213363Y-63574193D01*
X17218427Y-63577407D01*
X17262606Y-63617606D01*
X17862525Y-64217525D01*
X17959929Y-64343099D01*
X18023045Y-64488951D01*
X18030699Y-64517817D01*
X18032695Y-64526132D01*
X18086418Y-64691475D01*
X18086424Y-64691490D01*
X18165344Y-64846379D01*
X18165351Y-64846390D01*
X18180531Y-64867283D01*
X18267535Y-64987033D01*
X18390467Y-65109965D01*
X18531116Y-65212153D01*
X18686019Y-65291080D01*
X18851362Y-65344803D01*
X19003424Y-65368887D01*
X19023067Y-65371999D01*
X19023068Y-65371999D01*
X19023074Y-65372000D01*
X19023080Y-65372000D01*
X19196920Y-65372000D01*
X19196926Y-65372000D01*
X19368638Y-65344803D01*
X19533981Y-65291080D01*
X19688884Y-65212153D01*
X19829533Y-65109965D01*
X19911698Y-65027799D01*
X20037268Y-64930399D01*
X20183120Y-64867283D01*
X20340086Y-64842422D01*
X20498303Y-64857378D01*
X20647830Y-64911211D01*
X20779272Y-65000539D01*
X20808289Y-65027787D01*
X20890467Y-65109965D01*
X21031116Y-65212153D01*
X21186019Y-65291080D01*
X21351362Y-65344803D01*
X21503424Y-65368887D01*
X21523067Y-65371999D01*
X21523068Y-65371999D01*
X21523074Y-65372000D01*
X21523080Y-65372000D01*
X21696920Y-65372000D01*
X21696926Y-65372000D01*
X21868638Y-65344803D01*
X22033981Y-65291080D01*
X22188884Y-65212153D01*
X22329533Y-65109965D01*
X22337211Y-65102286D01*
X22391506Y-65060169D01*
X22444337Y-65016220D01*
X22454173Y-65011558D01*
X22462775Y-65004886D01*
X22525849Y-64977589D01*
X22587948Y-64948160D01*
X22598634Y-64946091D01*
X22608626Y-64941767D01*
X22676519Y-64931012D01*
X22743974Y-64917953D01*
X22754836Y-64918606D01*
X22765591Y-64916903D01*
X22834012Y-64923369D01*
X22902609Y-64927496D01*
X22914722Y-64930997D01*
X22923809Y-64931856D01*
X22979780Y-64947085D01*
X22999563Y-64953453D01*
X23095302Y-64991359D01*
X23158307Y-65007536D01*
X23173570Y-65009464D01*
X23218206Y-65023832D01*
X23255091Y-65041065D01*
X23293810Y-65053640D01*
X23338254Y-65079920D01*
X23362189Y-65091103D01*
X23375027Y-65101664D01*
X23396599Y-65114420D01*
X23531116Y-65212153D01*
X23686019Y-65291080D01*
X23851362Y-65344803D01*
X24003424Y-65368887D01*
X24023067Y-65371999D01*
X24023068Y-65371999D01*
X24023074Y-65372000D01*
X24023080Y-65372000D01*
X24196920Y-65372000D01*
X24196926Y-65372000D01*
X24368638Y-65344803D01*
X24533981Y-65291080D01*
X24688884Y-65212153D01*
X24829533Y-65109965D01*
X24952465Y-64987033D01*
X25054653Y-64846384D01*
X25133580Y-64691481D01*
X25187303Y-64526138D01*
X25214500Y-64354426D01*
X25214500Y-63930574D01*
X25187303Y-63758862D01*
X25140311Y-63614237D01*
X25110534Y-63458136D01*
X25120513Y-63299528D01*
X25169623Y-63148383D01*
X25254777Y-63014200D01*
X25294957Y-62970042D01*
X25400000Y-62865000D01*
X25400000Y-60960000D01*
X23680694Y-59240694D01*
X23583289Y-59115120D01*
X23520174Y-58969268D01*
X23495313Y-58812302D01*
X23495000Y-58792388D01*
X23495000Y-47752001D01*
X23495000Y-47752000D01*
X23876000Y-47752000D01*
X23876000Y-44635374D01*
X23966099Y-44744286D01*
X23976458Y-44761390D01*
X23977097Y-44762223D01*
X23977099Y-44762226D01*
X24071774Y-44856901D01*
X24187726Y-44923847D01*
X24317055Y-44958500D01*
X24317058Y-44958500D01*
X24450942Y-44958500D01*
X24450945Y-44958500D01*
X24580274Y-44923847D01*
X24648093Y-44884690D01*
X24690958Y-44866671D01*
X24731704Y-44844272D01*
X24763927Y-44835998D01*
X24794597Y-44823106D01*
X24840594Y-44816313D01*
X24885634Y-44804749D01*
X24943598Y-44801102D01*
X24951815Y-44799889D01*
X24965095Y-44799750D01*
X25930155Y-44799750D01*
X26087824Y-44819668D01*
X26235587Y-44878172D01*
X26247153Y-44884688D01*
X26314976Y-44923847D01*
X26444305Y-44958500D01*
X26444308Y-44958500D01*
X26578192Y-44958500D01*
X26578195Y-44958500D01*
X26707524Y-44923847D01*
X26823476Y-44856901D01*
X26918151Y-44762226D01*
X26985097Y-44646274D01*
X27019750Y-44516945D01*
X27019750Y-44383055D01*
X26985097Y-44253726D01*
X26918151Y-44137774D01*
X26823476Y-44043099D01*
X26823471Y-44043096D01*
X26707526Y-43976154D01*
X26707524Y-43976153D01*
X26707517Y-43976151D01*
X26578195Y-43941500D01*
X26444305Y-43941500D01*
X26384752Y-43957457D01*
X26314975Y-43976153D01*
X26247157Y-44015309D01*
X26204291Y-44033328D01*
X26163546Y-44055728D01*
X26131322Y-44064001D01*
X26100653Y-44076894D01*
X26054655Y-44083686D01*
X26009616Y-44095251D01*
X25951651Y-44098897D01*
X25943435Y-44100111D01*
X25930155Y-44100250D01*
X24965095Y-44100250D01*
X24807426Y-44080332D01*
X24659663Y-44021828D01*
X24648093Y-44015309D01*
X24580274Y-43976153D01*
X24580268Y-43976151D01*
X24568661Y-43973041D01*
X24421519Y-43912995D01*
X24293933Y-43818241D01*
X24193919Y-43694736D01*
X24127762Y-43550238D01*
X24099619Y-43393827D01*
X24098750Y-43360644D01*
X24098750Y-40700970D01*
X24118668Y-40543301D01*
X24177172Y-40395538D01*
X24183664Y-40384015D01*
X24215847Y-40328274D01*
X24250500Y-40198945D01*
X24250500Y-40065055D01*
X24215847Y-39935726D01*
X24148901Y-39819774D01*
X24054226Y-39725099D01*
X24046505Y-39720641D01*
X23938276Y-39658154D01*
X23899880Y-39642250D01*
X23901119Y-39639258D01*
X23817733Y-39605223D01*
X23690153Y-39510461D01*
X23590148Y-39386949D01*
X23524000Y-39242447D01*
X23495867Y-39086034D01*
X23495000Y-39052892D01*
X23495000Y-35307810D01*
X23499849Y-35269421D01*
X23499703Y-35230731D01*
X23509768Y-35190901D01*
X23514918Y-35150141D01*
X23529161Y-35114166D01*
X23538642Y-35076653D01*
X23552262Y-35051654D01*
X23551066Y-35049423D01*
X24705018Y-35049423D01*
X24717590Y-35072189D01*
X24736999Y-35120673D01*
X24736999Y-35127305D01*
X24775980Y-35272784D01*
X24824762Y-35357276D01*
X24847434Y-35396547D01*
X24847438Y-35396555D01*
X24851279Y-35403207D01*
X24851283Y-35403212D01*
X24851285Y-35403216D01*
X25404309Y-35956240D01*
X25501710Y-36081810D01*
X25564826Y-36227662D01*
X25589687Y-36384628D01*
X25590000Y-36404542D01*
X25590000Y-37921305D01*
X25628980Y-38066783D01*
X25704284Y-38197213D01*
X25704286Y-38197216D01*
X25810784Y-38303714D01*
X25941216Y-38379019D01*
X26086695Y-38418000D01*
X26237305Y-38418000D01*
X26382784Y-38379019D01*
X26513216Y-38303714D01*
X26619714Y-38197216D01*
X26695019Y-38066784D01*
X26734000Y-37921305D01*
X26734000Y-35829696D01*
X26695020Y-35684218D01*
X26619714Y-35553785D01*
X25660215Y-34594286D01*
X25660212Y-34594284D01*
X25529782Y-34518980D01*
X25384304Y-34480000D01*
X25233694Y-34480000D01*
X25088215Y-34518980D01*
X24957785Y-34594284D01*
X24851283Y-34700786D01*
X24775979Y-34831216D01*
X24741397Y-34960281D01*
X24705018Y-35049423D01*
X23551066Y-35049423D01*
X23537110Y-35023396D01*
X23499202Y-34869060D01*
X23495000Y-34796190D01*
X23495000Y-29845002D01*
X23495000Y-29845000D01*
X16365994Y-22715994D01*
X16268590Y-22590420D01*
X16205474Y-22444568D01*
X16180613Y-22287602D01*
X16180300Y-22267688D01*
X16180300Y-19439071D01*
X16200218Y-19281402D01*
X16258722Y-19133639D01*
X16352134Y-19005068D01*
X16365994Y-18990765D01*
X17720766Y-17635994D01*
X17846340Y-17538589D01*
X17992192Y-17475474D01*
X18149158Y-17450613D01*
X18169072Y-17450300D01*
X27550929Y-17450300D01*
X27708598Y-17470218D01*
G37*
%TD.AperFunction*%
%TD*%
%TA.AperFunction,Conductor*%
%TO.N,GND*%
G36*
X23876000Y-47752000D02*
G01*
X20700000Y-47752000D01*
X20631879Y-47731998D01*
X20585386Y-47678342D01*
X20574000Y-47626000D01*
X20574000Y-44576000D01*
X20594002Y-44507879D01*
X20647658Y-44461386D01*
X20700000Y-44450000D01*
X23495001Y-44450000D01*
X23876000Y-44450000D01*
X23876000Y-47752000D01*
G37*
%TD.AperFunction*%
%TD*%
%TA.AperFunction,Conductor*%
%TO.N,+24V*%
G36*
X16933100Y-24708142D02*
G01*
X17084244Y-24757252D01*
X17218427Y-24842407D01*
X17262606Y-24882606D01*
X22674306Y-30294306D01*
X22771710Y-30419880D01*
X22834826Y-30565732D01*
X22859687Y-30722698D01*
X22860000Y-30742612D01*
X22860000Y-36438881D01*
X22834981Y-36482216D01*
X22796000Y-36627695D01*
X22796000Y-36778305D01*
X22834981Y-36923784D01*
X22860000Y-36967118D01*
X22860000Y-37322495D01*
X22840082Y-37480164D01*
X22781578Y-37627927D01*
X22688166Y-37756498D01*
X22565714Y-37857799D01*
X22421917Y-37925465D01*
X22265809Y-37955244D01*
X22107200Y-37945265D01*
X21956056Y-37896155D01*
X21821873Y-37811000D01*
X21713083Y-37695151D01*
X21676942Y-37639498D01*
X21615903Y-37533778D01*
X21615902Y-37533776D01*
X21615901Y-37533774D01*
X21521226Y-37439099D01*
X21521221Y-37439096D01*
X21405276Y-37372154D01*
X21405274Y-37372153D01*
X21275945Y-37337500D01*
X21142055Y-37337500D01*
X21055835Y-37360602D01*
X21012725Y-37372153D01*
X20944907Y-37411309D01*
X20902041Y-37429328D01*
X20861296Y-37451728D01*
X20829072Y-37460001D01*
X20798403Y-37472894D01*
X20752405Y-37479686D01*
X20707366Y-37491251D01*
X20649401Y-37494897D01*
X20641185Y-37496111D01*
X20627905Y-37496250D01*
X20138520Y-37496250D01*
X19980851Y-37476332D01*
X19833088Y-37417828D01*
X19821518Y-37411309D01*
X19753699Y-37372153D01*
X19624370Y-37337500D01*
X19490480Y-37337500D01*
X19404260Y-37360602D01*
X19361150Y-37372153D01*
X19361148Y-37372154D01*
X19245203Y-37439096D01*
X19245201Y-37439097D01*
X19150522Y-37533776D01*
X19150521Y-37533778D01*
X19083579Y-37649723D01*
X19083578Y-37649725D01*
X19048925Y-37779056D01*
X19048925Y-37912946D01*
X19089395Y-38063985D01*
X19110962Y-38221437D01*
X19092695Y-38379307D01*
X19089396Y-38392157D01*
X19084153Y-38411726D01*
X19049500Y-38541055D01*
X19049500Y-38674945D01*
X19084153Y-38804274D01*
X19151099Y-38920226D01*
X19245774Y-39014901D01*
X19245776Y-39014902D01*
X19278743Y-39040199D01*
X19278410Y-39040632D01*
X19367088Y-39107942D01*
X19465802Y-39232488D01*
X19530441Y-39377671D01*
X19556944Y-39534369D01*
X19557500Y-39560916D01*
X19557500Y-39690945D01*
X19592019Y-39819774D01*
X19592153Y-39820274D01*
X19592154Y-39820276D01*
X19658810Y-39935726D01*
X19659099Y-39936226D01*
X19753774Y-40030901D01*
X19869726Y-40097847D01*
X19945371Y-40118115D01*
X19988422Y-40135684D01*
X20033071Y-40148656D01*
X20061705Y-40165590D01*
X20092509Y-40178161D01*
X20129838Y-40205884D01*
X20169862Y-40229554D01*
X20213433Y-40267966D01*
X20220095Y-40272914D01*
X20229585Y-40282206D01*
X20546556Y-40599177D01*
X20643960Y-40724751D01*
X20707076Y-40870603D01*
X20731937Y-41027569D01*
X20732250Y-41047483D01*
X20732250Y-42852905D01*
X20712332Y-43010574D01*
X20653828Y-43158337D01*
X20647309Y-43169907D01*
X20608153Y-43237725D01*
X20608153Y-43237726D01*
X20573500Y-43367055D01*
X20573500Y-43500945D01*
X20592706Y-43572623D01*
X20618909Y-43670415D01*
X20614096Y-43671704D01*
X20634703Y-43748634D01*
X20636355Y-43907548D01*
X20598434Y-44061880D01*
X20535627Y-44183979D01*
X20484497Y-44261410D01*
X20477722Y-44265269D01*
X20424066Y-44311762D01*
X20391944Y-44345051D01*
X20345013Y-44434770D01*
X20331931Y-44479320D01*
X20316981Y-44505216D01*
X20312523Y-44521853D01*
X20272543Y-44582400D01*
X20265027Y-44591156D01*
X20246032Y-44624462D01*
X20135439Y-44738592D01*
X19999937Y-44821632D01*
X19903115Y-44856206D01*
X19869730Y-44865151D01*
X19869723Y-44865154D01*
X19867722Y-44866310D01*
X19721218Y-44927895D01*
X19564000Y-44951111D01*
X19550722Y-44951250D01*
X18615095Y-44951250D01*
X18457426Y-44931332D01*
X18309663Y-44872828D01*
X18298093Y-44866309D01*
X18230274Y-44827153D01*
X18209669Y-44821632D01*
X18100945Y-44792500D01*
X17967055Y-44792500D01*
X17880835Y-44815602D01*
X17837725Y-44827153D01*
X17837723Y-44827154D01*
X17721778Y-44894096D01*
X17721776Y-44894097D01*
X17627097Y-44988776D01*
X17627096Y-44988778D01*
X17560154Y-45104723D01*
X17560153Y-45104725D01*
X17560153Y-45104726D01*
X17525500Y-45234055D01*
X17525500Y-45367945D01*
X17560153Y-45497274D01*
X17627099Y-45613226D01*
X17721774Y-45707901D01*
X17837726Y-45774847D01*
X17967055Y-45809500D01*
X17967058Y-45809500D01*
X18100942Y-45809500D01*
X18100945Y-45809500D01*
X18230274Y-45774847D01*
X18298093Y-45735690D01*
X18340958Y-45717671D01*
X18381704Y-45695272D01*
X18413927Y-45686998D01*
X18444597Y-45674106D01*
X18490594Y-45667313D01*
X18535634Y-45655749D01*
X18593598Y-45652102D01*
X18601815Y-45650889D01*
X18615095Y-45650750D01*
X19419088Y-45650750D01*
X19576757Y-45670668D01*
X19724520Y-45729172D01*
X19736091Y-45735691D01*
X19753772Y-45745899D01*
X19753774Y-45745901D01*
X19869726Y-45812847D01*
X19869734Y-45812849D01*
X19908120Y-45828750D01*
X19906955Y-45831561D01*
X19991697Y-45866138D01*
X20119289Y-45960884D01*
X20219310Y-46084383D01*
X20285476Y-46228877D01*
X20313629Y-46385286D01*
X20314500Y-46418508D01*
X20314500Y-47264475D01*
X20278000Y-47400695D01*
X20278000Y-47551305D01*
X20316981Y-47696784D01*
X20327968Y-47715815D01*
X20331816Y-47733501D01*
X20339166Y-47760291D01*
X20389269Y-47848278D01*
X20435762Y-47901934D01*
X20469051Y-47934056D01*
X20558770Y-47980987D01*
X20603320Y-47994068D01*
X20629216Y-48009019D01*
X20774695Y-48048000D01*
X20925305Y-48048000D01*
X21061525Y-48011500D01*
X21170293Y-48011500D01*
X21195504Y-48013515D01*
X21247958Y-48024444D01*
X21303160Y-48031418D01*
X21327301Y-48040976D01*
X21351085Y-48045932D01*
X21397813Y-48068894D01*
X21450923Y-48089922D01*
X21472484Y-48105587D01*
X21493717Y-48116021D01*
X21532225Y-48148991D01*
X21579494Y-48183334D01*
X21596873Y-48204342D01*
X21614437Y-48219380D01*
X21642878Y-48259952D01*
X21680795Y-48305786D01*
X21692613Y-48330902D01*
X21705660Y-48349513D01*
X21722820Y-48395095D01*
X21733821Y-48418471D01*
X21735250Y-48417880D01*
X21747800Y-48448179D01*
X21748461Y-48449583D01*
X21748659Y-48450253D01*
X21751153Y-48456275D01*
X21790307Y-48524089D01*
X21851894Y-48670594D01*
X21875111Y-48827811D01*
X21875250Y-48841094D01*
X21875250Y-49837905D01*
X21855332Y-49995574D01*
X21796828Y-50143337D01*
X21790309Y-50154907D01*
X21751153Y-50222725D01*
X21751153Y-50222726D01*
X21716500Y-50352055D01*
X21716500Y-50485945D01*
X21751153Y-50615274D01*
X21818099Y-50731226D01*
X21912774Y-50825901D01*
X22028726Y-50892847D01*
X22158055Y-50927500D01*
X22158058Y-50927500D01*
X22226000Y-50927500D01*
X22383669Y-50947418D01*
X22531432Y-51005922D01*
X22660003Y-51099334D01*
X22761304Y-51221786D01*
X22828970Y-51365583D01*
X22858749Y-51521691D01*
X22860000Y-51561500D01*
X22860000Y-54718031D01*
X22840082Y-54875700D01*
X22781578Y-55023463D01*
X22775061Y-55035030D01*
X22707980Y-55151217D01*
X22669000Y-55296694D01*
X22669000Y-55447305D01*
X22707980Y-55592783D01*
X22775060Y-55708968D01*
X22836645Y-55855473D01*
X22859861Y-56012690D01*
X22860000Y-56025968D01*
X22860000Y-59690000D01*
X24579309Y-61409309D01*
X24676710Y-61534879D01*
X24739826Y-61680731D01*
X24764687Y-61837697D01*
X24765000Y-61857611D01*
X24765000Y-64136000D01*
X24757518Y-64195225D01*
X24753770Y-64254800D01*
X24747589Y-64273822D01*
X24745082Y-64293669D01*
X24723105Y-64349174D01*
X24704660Y-64405944D01*
X24693941Y-64422833D01*
X24686578Y-64441432D01*
X24651489Y-64489726D01*
X24619505Y-64540127D01*
X24604923Y-64553819D01*
X24593166Y-64570003D01*
X24547172Y-64608052D01*
X24503656Y-64648917D01*
X24486125Y-64658554D01*
X24470714Y-64671304D01*
X24416699Y-64696721D01*
X24364391Y-64725478D01*
X24345018Y-64730452D01*
X24326917Y-64738970D01*
X24268278Y-64750155D01*
X24210461Y-64765001D01*
X24180613Y-64766878D01*
X24170809Y-64768749D01*
X24131000Y-64770000D01*
X23348500Y-64770000D01*
X23190831Y-64750082D01*
X23043068Y-64691578D01*
X22914497Y-64598166D01*
X22813196Y-64475714D01*
X22745530Y-64331917D01*
X22715751Y-64175809D01*
X22714500Y-64136000D01*
X22714500Y-63930580D01*
X22714499Y-63930567D01*
X22711832Y-63913731D01*
X22687303Y-63758862D01*
X22633580Y-63593519D01*
X22554653Y-63438616D01*
X22452465Y-63297967D01*
X22329533Y-63175035D01*
X22248127Y-63115890D01*
X22188890Y-63072851D01*
X22188879Y-63072844D01*
X22033990Y-62993924D01*
X22033984Y-62993921D01*
X22033981Y-62993920D01*
X21868638Y-62940197D01*
X21696932Y-62913000D01*
X21696926Y-62913000D01*
X21523074Y-62913000D01*
X21523067Y-62913000D01*
X21351362Y-62940197D01*
X21186024Y-62993918D01*
X21186009Y-62993924D01*
X21031120Y-63072844D01*
X21031109Y-63072851D01*
X20890469Y-63175033D01*
X20890467Y-63175034D01*
X20890467Y-63175035D01*
X20808301Y-63257200D01*
X20682732Y-63354601D01*
X20536880Y-63417717D01*
X20379914Y-63442578D01*
X20221697Y-63427622D01*
X20072170Y-63373789D01*
X19940728Y-63284461D01*
X19911710Y-63257212D01*
X19829533Y-63175035D01*
X19748127Y-63115890D01*
X19688890Y-63072851D01*
X19688879Y-63072844D01*
X19533990Y-62993924D01*
X19533984Y-62993921D01*
X19533981Y-62993920D01*
X19368638Y-62940197D01*
X19196932Y-62913000D01*
X19196926Y-62913000D01*
X19023074Y-62913000D01*
X19023067Y-62913000D01*
X18851362Y-62940197D01*
X18686024Y-62993918D01*
X18686009Y-62993924D01*
X18581645Y-63047101D01*
X18432117Y-63100934D01*
X18273900Y-63115890D01*
X18116934Y-63091029D01*
X17971082Y-63027913D01*
X17845509Y-62930509D01*
X16365994Y-61450994D01*
X16335472Y-61411645D01*
X16301383Y-61375344D01*
X16286949Y-61349088D01*
X16268590Y-61325420D01*
X16248814Y-61279721D01*
X16224822Y-61236079D01*
X16217371Y-61207061D01*
X16205474Y-61179568D01*
X16197684Y-61130386D01*
X16185299Y-61082149D01*
X16182172Y-61032445D01*
X16180613Y-61022602D01*
X16180300Y-61002688D01*
X16180300Y-60349006D01*
X16200218Y-60191337D01*
X16258722Y-60043574D01*
X16352134Y-59915003D01*
X16474586Y-59813702D01*
X16618383Y-59746036D01*
X16650210Y-59736609D01*
X16675910Y-59729722D01*
X16730784Y-59715019D01*
X16861216Y-59639714D01*
X16967714Y-59533216D01*
X17043019Y-59402784D01*
X17082000Y-59257305D01*
X17082000Y-59106695D01*
X17043019Y-58961216D01*
X16967714Y-58830784D01*
X16946937Y-58794797D01*
X16950663Y-58792645D01*
X16946510Y-58785091D01*
X16910556Y-58723547D01*
X16908277Y-58715545D01*
X16904272Y-58708259D01*
X16886550Y-58639237D01*
X16867035Y-58570700D01*
X16866228Y-58560091D01*
X16864749Y-58554329D01*
X16859750Y-58474868D01*
X16859750Y-57216631D01*
X16879668Y-57058962D01*
X16938172Y-56911199D01*
X16947447Y-56896997D01*
X16946937Y-56896703D01*
X16967714Y-56860716D01*
X17043019Y-56730284D01*
X17082000Y-56584805D01*
X17082000Y-56434195D01*
X17043019Y-56288716D01*
X16967714Y-56158284D01*
X16861216Y-56051786D01*
X16730784Y-55976481D01*
X16730783Y-55976480D01*
X16730782Y-55976480D01*
X16650205Y-55954889D01*
X16503064Y-55894841D01*
X16375478Y-55800086D01*
X16275466Y-55676580D01*
X16209310Y-55532081D01*
X16181169Y-55375670D01*
X16180300Y-55342493D01*
X16180300Y-50562932D01*
X16200218Y-50405263D01*
X16258722Y-50257500D01*
X16352134Y-50128929D01*
X16474586Y-50027628D01*
X16618383Y-49959962D01*
X16774491Y-49930183D01*
X16933100Y-49940162D01*
X16978381Y-49950532D01*
X17069695Y-49975000D01*
X17069696Y-49975000D01*
X17220305Y-49975000D01*
X17365784Y-49936019D01*
X17496216Y-49860714D01*
X17602714Y-49754216D01*
X17678019Y-49623784D01*
X17717000Y-49478305D01*
X17717000Y-49478304D01*
X17727755Y-49438167D01*
X17732127Y-49439338D01*
X17752331Y-49362258D01*
X17813393Y-49246499D01*
X17848114Y-49194506D01*
X18059870Y-48982752D01*
X18105915Y-48902998D01*
X18129751Y-48814045D01*
X18129751Y-48772778D01*
X18206303Y-48658148D01*
X18214225Y-48649013D01*
X18230561Y-48624287D01*
X18237709Y-48614970D01*
X18237714Y-48614966D01*
X18313019Y-48484534D01*
X18352000Y-48339055D01*
X18352000Y-48188445D01*
X18313019Y-48042966D01*
X18237714Y-47912534D01*
X18131216Y-47806036D01*
X18102764Y-47789609D01*
X18000783Y-47730730D01*
X17855305Y-47691750D01*
X17704695Y-47691750D01*
X17559216Y-47730730D01*
X17428786Y-47806034D01*
X17322282Y-47912538D01*
X17317282Y-47919055D01*
X17205496Y-48032016D01*
X17069129Y-48113628D01*
X16916751Y-48158763D01*
X16757935Y-48164584D01*
X16602660Y-48130728D01*
X16460684Y-48059319D01*
X16340927Y-47954846D01*
X16250914Y-47823873D01*
X16196300Y-47674629D01*
X16180300Y-47533095D01*
X16180300Y-25330912D01*
X16200218Y-25173243D01*
X16258722Y-25025480D01*
X16352134Y-24896909D01*
X16474586Y-24795608D01*
X16618383Y-24727942D01*
X16774491Y-24698163D01*
X16933100Y-24708142D01*
G37*
%TD.AperFunction*%
%TD*%
M02*
